<?xml version="1.0" encoding="UTF-8"?>
<svg width="1920" height="197.66" version="1.1" viewBox="0 0 1920 197.66" xmlns="http://www.w3.org/2000/svg">
  <title>Group 24</title>
  <desc>Created with Sketch.</desc>
  <path d="m0.12305 134.47v63.342h1919.9v-115.86c-11.578-2.7722-22.631-5.2325-33.848-7.791h-690.8c-11.779 2.4183-23.067 4.7702-35.781 7.3105-21.127 4.2214-43.389 8.5827-66.264 12.988-45.749 8.8112-93.949 17.801-140.44 26.203-46.487 8.4023-91.26 16.218-130.15 22.684-19.446 3.2329-37.423 6.1275-53.408 8.5898-15.985 2.4624-29.979 4.4913-41.461 5.9922-14.537 1.9002-29.113 3.6524-43.729 5.2539-14.615 1.6015-29.269 3.0526-43.963 4.3555-14.694 1.3028-29.427 2.4568-44.199 3.4609s-29.581 1.859-44.432 2.5644c-14.85 0.7055-29.739 1.2612-44.668 1.668s-29.897 0.66529-44.904 0.77344c-15.007 0.10815-30.052 0.0675-45.137-0.12305-15.085-0.19053-30.21-0.53033-45.373-1.0195s-30.368-1.1281-45.609-1.916c-15.242-0.78788-30.522-1.726-45.842-2.8125-15.32-1.0866-30.68-2.3218-46.078-3.707-15.398-1.3852-30.834-2.9196-46.311-4.6035-15.476-1.6839-30.992-3.5174-46.547-5.5s-31.148-4.1152-46.781-6.3965c-15.633-2.2813-31.306-4.7111-47.018-7.291-15.667-2.5727-31.372-5.2944-47.117-8.1641z" fill="#fff" style="paint-order:stroke markers fill"/>
  <path d="m1557.7 0.0055553c-102.98 0.42296-193.51 10.867-338.69 41.318-146.7 30.77-399.61 76.57-491.18 88.607-258.98 34.045-501.59 27.857-727.84-18.568v23.086c252.63 46.058 495.25 53.885 727.84 23.482 91.859-12.007 344.47-57.837 491.18-88.607 145.18-30.451 235.71-40.895 338.69-41.318 89.771-0.3687 210.54 17.615 362.29 53.951v-28c-151.76-36.336-272.52-54.32-362.29-53.951z" fill="#e63351"/>
  <path d="m1557.7 28.006c-102.98 0.42296-193.51 10.867-338.69 41.318-146.7 30.77-399.32 76.6-491.18 88.607-232.59 30.402-475.21 22.575-727.84-23.482v24.094c321.13 48.688 602.18 51.929 843.14 9.7226 71.945-12.602 224.73-35.674 380.95-66.059 172.21-33.495 298.27-18.632 360.71-13.227 101.86 8.8177 213.6 35.247 335.2 79.285v-86.309c-151.76-36.336-272.52-54.32-362.29-53.951z" fill="#c9334d"/>
</svg>
