<?xml version="1.0" encoding="utf-8"?>
<!-- Generator: Adobe Illustrator 21.0.0, SVG Export Plug-In . SVG Version: 6.00 Build 0)  -->
<svg version="1.1" id="Layer_1" xmlns="http://www.w3.org/2000/svg" xmlns:xlink="http://www.w3.org/1999/xlink" x="0px" y="0px"
	 viewBox="0 0 1920 294" style="enable-background:new 0 0 1920 294;" xml:space="preserve">
<style type="text/css">
	.st0{fill:#F9F9F9;}
	.st1{fill:#FFFFFF;}
	.st2{fill:#E63351;}
	.st3{fill:url(#Path-3-Copy-2_1_);}
	.st4{filter:url(#Adobe_OpacityMaskFilter);}
	.st5{mask:url(#mask-3);fill:url(#Path-2_2_);}
	.st6{fill:#F9F9F9;stroke:#FFFFFF;}
</style>
<title>Group 13</title>
<desc>Created with Sketch.</desc>
<polygon class="st0" points="0.6,294 1920,294 1920,224.6 1633,129.9 1415,97.1 1211,104 935,165 777,204 651,238 558,259.2 
	323,288 174,266 30,224 0.8,218 "/>
<g id="Group-13" transform="translate(961.500000, 2652.000000) scale(-1, -1) translate(-961.500000, -2652.000000) translate(0.000000, 2505.000000)">
	<path id="Path-5-Copy" class="st1" d="M336.5,2798.4H1925V2684c-107-66.9-184-106.7-230.9-119.5c-84.9-23.1-137.4-27.6-181.7-23.2
		c-96.6,9.6-186.9,13.5-270.6,11.5l-305.3,86.1L795.8,2674L336.5,2798.4z"/>
	<g id="Group-4" transform="translate(961.000000, 146.000000) scale(1, -1) translate(-961.000000, -146.000000) ">
		<path id="Path-3-Copy-3" class="st2" d="M1924.6-2450.7c-108.7,110-225.7,169.3-350.9,177.9c-187.9,13-330.4-42.8-489.8-88.4
			c-92.4-26.5-315.7-87.7-384.9-102.1c-146-30.5-237-40.9-340.5-41.3c-90.3-0.4-211.7,17.6-364.3,54v127
			c232.6-59,410.4-87.4,533.2-85.2c452.2,8,656.6,166.4,924.8,172.2c178.8,3.9,336.3-11.2,472.4-45.3V-2450.7z"/>
		
			<linearGradient id="Path-3-Copy-2_1_" gradientUnits="userSpaceOnUse" x1="1268.839" y1="-1963.9554" x2="1268.839" y2="-1964.8177" gradientTransform="matrix(1921.4375 0 0 -259.8574 -2437036.25 -512826.0938)">
			<stop  offset="0" style="stop-color:#FF4069"/>
			<stop  offset="1" style="stop-color:#FF6959"/>
		</linearGradient>
		<path id="Path-3-Copy-2" class="st3" d="M1924.4-2282.2l-1.8-49.8c-116.7,49.5-197.9,77.7-243.8,84.7
			c-120.3,18.3-245.2,1.2-301.1-7.2s-159-40-236.1-57.6c-65.5-14.9-296.2-93.7-443.7-124.4c-146-30.4-237-40.8-340.6-41.2
			c-90.3-0.4-211.3,22.6-362.9,68.8l-1.6,128.1c286.1-84.8,495.2-124.4,627.3-118.9c275.7,11.6,544,136.9,735.7,168.8
			C1562.1-2196.4,1751.7-2213.6,1924.4-2282.2z"/>
		<g id="Path-2_1_" transform="translate(1.000000, 95.000000)">
			<g id="Group-30">
				<g id="Mask" transform="translate(960.000000, 65.000000) scale(-1, 1) translate(-960.000000, -65.000000) ">
				</g>
				<defs>
					<filter id="Adobe_OpacityMaskFilter" filterUnits="userSpaceOnUse">
						<feColorMatrix  type="matrix" values="1 0 0 0 0  0 1 0 0 0  0 0 1 0 0  0 0 0 1 0"/>
					</filter>
				</defs>
				<mask maskUnits="userSpaceOnUse" id="mask-3">
					<g class="st4">
						<path id="path-2" class="st1" d="M-7.8-2374.9c331.3,1.9,613.9-12.3,847.7-42.6c92.4-11.9,226-35.7,383-66.1
							c173.1-33.5,299.9-18.6,362.7-13.2c102.4,8.8,214.8,35.2,337,79.3v42.6H-7.8z"/>
					</g>
				</mask>
				
					<linearGradient id="Path-2_2_" gradientUnits="userSpaceOnUse" x1="1266.6313" y1="-2059.6416" x2="1266.6313" y2="-2060.5039" gradientTransform="matrix(-745.6603 0 0 -151.2428 944753.3125 -314010.8438)">
					<stop  offset="0" style="stop-color:#B10429"/>
					<stop  offset="1" style="stop-color:#FF6959"/>
				</linearGradient>
				<path id="Path-2" class="st5" d="M-77.5-2353.6c126.5-38,210.6-62.4,252.4-73.2c19.3-5,36.4-8.7,51.2-12.7
					c3.2-0.9,10.4-2.2,13.3-2.9c147.6-32.9,189.9-39.8,249.8-46.2c39.9-4.3,94-5.9,162.3-4.9c-24.7-7.4-49.4-11.2-74-11.3
					c-88.3-0.6-224,5.6-262.4,7.8c-42.3,2.5-180.1,19.9-413.2,52.3L-77.5-2353.6z"/>
			</g>
		</g>
	</g>
</g>
<path class="st6" d="M911.1,595.6"/>
</svg>
