<?xml version="1.0" encoding="utf-8"?>
<!-- Generator: Adobe Illustrator 21.0.0, SVG Export Plug-In . SVG Version: 6.00 Build 0)  -->
<svg version="1.1" id="Layer_1" xmlns="http://www.w3.org/2000/svg" xmlns:xlink="http://www.w3.org/1999/xlink" x="0px" y="0px"
	 viewBox="0 0 1920 297" style="enable-background:new 0 0 1920 297;" xml:space="preserve">
<style type="text/css">
	.st0{fill:url(#Path-5_1_);}
	.st1{fill:#E63351;}
	.st2{fill:url(#Path-3-Copy-2_1_);}
	.st3{filter:url(#Adobe_OpacityMaskFilter);}
	.st4{fill:#FFFFFF;}
	.st5{mask:url(#mask-4);fill:url(#Path-2_2_);}
</style>
<title>Group 13</title>
<desc>Created with Sketch.</desc>
<g id="_x30_1-.-home" transform="translate(0.000000, -3819.000000)">
	
		<g id="Group-13" transform="translate(960.500000, 3967.500000) scale(-1, -1) translate(-960.500000, -3967.500000) translate(-1.000000, 3819.000000)">
		
			<linearGradient id="Path-5_1_" gradientUnits="userSpaceOnUse" x1="1267.1602" y1="-249.1487" x2="1267.1602" y2="-248.1404" gradientTransform="matrix(-1922.417 0 0 217.5439 2436971.25 54199.6563)">
			<stop  offset="0" style="stop-color:#FF4069"/>
			<stop  offset="1" style="stop-color:#FF6959"/>
		</linearGradient>
		<polygon id="Path-5" class="st0" points="1930.1,-1.1 -8.2,-1.1 -8.2,85.9 316.3,193.9 677,218.2 998.6,152.2 1484.5,45.3 
			1930.1,66.9 		"/>
		<g id="Group-4" transform="translate(961.500000, 148.500000) scale(1, -1) translate(-961.500000, -148.500000) ">
			<path id="Path-3-Copy-3" class="st1" d="M1930.1,172.8c-107.7,41.5-224.8,62.1-351.2,61.9c-189.6-0.3-332.9-43.6-492.8-89.7
				c-92.6-26.7-316.6-88.4-386-103C553.8,11.4,462.6,0.9,358.7,0.5C268.2,0.1,146.5,18.2-6.6,54.8v128.1
				C226.7,123.5,405,94.9,528.2,97.1c453.5,8.1,660.3,157.4,927.4,173.7c178.1,10.9,336.3-5,474.6-47.6V172.8z"/>
			
				<linearGradient id="Path-3-Copy-2_1_" gradientUnits="userSpaceOnUse" x1="1267.8398" y1="544.0778" x2="1267.8398" y2="543.2085" gradientTransform="matrix(1922.4349 0 0 -268.5695 -2436378.75 146150.375)">
				<stop  offset="0" style="stop-color:#FF4069"/>
				<stop  offset="1" style="stop-color:#FF6959"/>
			</linearGradient>
			<path id="Path-3-Copy-2" class="st2" d="M1930.1,259.9v-42.6c-70.5,20.4-135.5,34.6-195.1,42.6c-146.4,19.6-294.8-3.6-350.9-12
				c-56.1-8.4-162.8-35.6-240.2-53.3c-65.7-15.1-297-94.5-445-125.5C552.6,38.6,461.3,28.1,357.4,27.6
				c-90.5-0.4-211.9,22.8-364,69.4l-1.6,129.2c286.9-85.5,496.6-125.5,629.1-119.9c276.5,11.7,545.5,138,737.8,170.2
				C1565.7,311.3,1756.2,305.7,1930.1,259.9z"/>
			<g id="Path-2_1_" transform="translate(1.000000, 95.000000)">
				<g id="Group-30">
					<g id="Mask" transform="translate(960.906540, 65.000000) scale(-1, 1) translate(-960.906540, -65.000000) ">
					</g>
					<defs>
						<filter id="Adobe_OpacityMaskFilter" filterUnits="userSpaceOnUse">
							<feColorMatrix  type="matrix" values="1 0 0 0 0  0 1 0 0 0  0 0 1 0 0  0 0 0 1 0"/>
						</filter>
					</defs>
					<mask maskUnits="userSpaceOnUse" id="mask-4">
						<g class="st3">
							<path id="path-3" class="st4" d="M-8.6,132.1c333.4,1.9,617.4-12.4,851.9-42.9c92.6-12,226.6-36,384.1-66.6
								c173.6-33.8,300.7-18.8,363.7-13.3c102.7,8.9,215.4,35.5,338,79.9v42.9H-8.6z"/>
						</g>
					</mask>
					
						<linearGradient id="Path-2_2_" gradientUnits="userSpaceOnUse" x1="1265.6312" y1="448.3587" x2="1265.6312" y2="447.4894" gradientTransform="matrix(-745.6603 0 0 -151.2428 944007.625 67812.1172)">
						<stop  offset="0" style="stop-color:#B10429"/>
						<stop  offset="1" style="stop-color:#FF6959"/>
					</linearGradient>
					<path id="Path-2" class="st5" d="M-78.4,153.6c126.9-38.3,211.2-62.9,253.1-73.8c19.4-5,36.5-8.7,51.4-12.9
						c3.2-0.9,10.4-2.2,13.3-2.9c148-33.2,190.4-40.2,250.5-46.6c40-4.3,94.3-5.9,162.7-4.9C627.7,5.1,603,1.3,578.3,1.1
						C489.7,0.5,353.6,6.7,315.1,9C272.7,11.5,134.5,29-99.3,61.7L-78.4,153.6z"/>
				</g>
			</g>
		</g>
	</g>
</g>
</svg>
