<?xml version="1.0" encoding="utf-8"?>
<!-- Generator: Adobe Illustrator 21.0.0, SVG Export Plug-In . SVG Version: 6.00 Build 0)  -->
<svg version="1.1" id="Layer_1" xmlns="http://www.w3.org/2000/svg" xmlns:xlink="http://www.w3.org/1999/xlink" x="0px" y="0px"
	 viewBox="0 0 1920 294" style="enable-background:new 0 0 1920 294;" xml:space="preserve">
<style type="text/css">
	.st0{fill:#E63351;}
	.st1{fill:url(#Path-3-Copy-2_1_);}
	.st2{filter:url(#Adobe_OpacityMaskFilter);}
	.st3{fill:#FFFFFF;}
	.st4{mask:url(#mask-3);fill:url(#Path-2_2_);}
</style>
<title>Group 13</title>
<desc>Created with Sketch.</desc>
<g id="Group-13" transform="translate(-1.000000, 6252.000000)">
	<g id="Group-4" transform="translate(961.000000, 146.000000) scale(1, -1) translate(-961.000000, -146.000000) ">
		<path id="Path-3-Copy-3" class="st0" d="M1922,6306c-103.3,82-217.5,127.3-342.4,135.9c-187.5,13-337.5-0.8-496.6-46.4
			c-92.2-26.5-315.1-87.7-384.1-102.1c-145.7-30.5-236.5-40.9-339.8-41.3c-90.1-0.4-211.3,17.6-363.5,54v127
			c232.2-59,409.6-87.4,532.1-85.2c451.3,8,655.2,166.4,922.9,172.2c178.5,3.9,335.6-11.2,471.5-45.3V6306z"/>
		
			<linearGradient id="Path-3-Copy-2_1_" gradientUnits="userSpaceOnUse" x1="655.8421" y1="5999.0454" x2="655.8421" y2="5999.9077" gradientTransform="matrix(-1921.4375 0 0 259.8574 1261117.375 -1552617.375)">
			<stop  offset="0" style="stop-color:#FF4069"/>
			<stop  offset="1" style="stop-color:#FF6959"/>
		</linearGradient>
		<path id="Path-3-Copy-2" class="st1" d="M1921.8,6474.5v-29.9c-107.4,35.2-184.1,56.4-229.9,63.4c-120.1,18.3-216.9,4.6-263.4,0
			c-58.5-5.8-211.1-45.8-288.1-63.4c-65.4-14.9-295.6-93.7-442.8-124.4c-145.7-30.4-236.6-40.8-339.9-41.2
			c-90.1-0.4-210.8,22.6-362.2,68.8l-1.6,128.1c285.5-84.8,494.2-124.4,626.1-118.9c275.1,11.6,542.9,136.9,734.2,168.8
			C1560.2,6560.3,1749.4,6543.2,1921.8,6474.5z"/>
		<g id="Path-2_1_" transform="translate(1.000000, 95.000000)">
			<g id="Group-30">
				<g id="Mask" transform="translate(960.000000, 65.000000) scale(-1, 1) translate(-960.000000, -65.000000) ">
				</g>
				<defs>
					<filter id="Adobe_OpacityMaskFilter" filterUnits="userSpaceOnUse" x="-96.9" y="-6403.1" width="748.2" height="151.2">
						<feColorMatrix  type="matrix" values="1 0 0 0 0  0 1 0 0 0  0 0 1 0 0  0 0 0 1 0"/>
					</filter>
				</defs>
				<mask maskUnits="userSpaceOnUse" x="-96.9" y="-6403.1" width="748.2" height="151.2" id="mask-3">
					<g class="st2">
						<path id="path-2" class="st3" d="M-6.5,6381.8c330.6,1.9,612.6-12.3,846-42.6c92.2-11.9,225.5-35.7,382.2-66.1
							c172.8-33.5,299.3-18.6,361.9-13.2c102.2,8.8,214.3,35.2,336.3,79.3v42.6H-6.5z"/>
					</g>
				</mask>
				
					<linearGradient id="Path-2_2_" gradientUnits="userSpaceOnUse" x1="653.6154" y1="5903.3604" x2="653.6154" y2="5904.2227" gradientTransform="matrix(745.6603 0 0 151.2428 -487097.875 -886588.9375)">
					<stop  offset="0" style="stop-color:#B10429"/>
					<stop  offset="1" style="stop-color:#FF6959"/>
				</linearGradient>
				<path id="Path-2" class="st4" d="M-76.1,6403.1c126.2-38,210.2-62.4,251.9-73.2c19.3-5,36.3-8.7,51.1-12.7
					c3.2-0.9,10.4-2.2,13.2-2.9c147.3-32.9,189.5-39.8,249.3-46.2c39.8-4.3,93.8-5.9,161.9-4.9c-24.7-7.4-49.3-11.2-73.9-11.3
					c-88.1-0.6-223.6,5.6-261.9,7.8c-42.2,2.5-179.7,19.9-412.4,52.3L-76.1,6403.1z"/>
			</g>
		</g>
	</g>
</g>
</svg>
