<?xml version="1.0" encoding="UTF-8"?>
<svg width="48px" height="50px" viewBox="0 0 48 50" version="1.1" xmlns="http://www.w3.org/2000/svg" xmlns:xlink="http://www.w3.org/1999/xlink">
    <!-- Generator: Sketch 48.1 (47250) - http://www.bohemiancoding.com/sketch -->
    <title>259470</title>
    <desc>Created with Sketch.</desc>
    <defs></defs>
    <g id="02-.-tinh-nang" stroke="none" stroke-width="1" fill="none" fill-rule="evenodd" transform="translate(-1226.000000, -4961.000000)">
        <g id="#1-copy-8" transform="translate(1176.000000, 4901.000000)" fill="#FF4669" fill-rule="nonzero">
            <g id="#1">
                <g id="Testimonial-left-Copy-6" transform="translate(50.000000, 60.000000)">
                    <g id="259470">
                        <path d="M11.717509,29.0316907 C11.1723942,28.3027596 10.4023526,27.8846154 9.60520934,27.8846154 L7.70233827,27.8846154 C6.90503278,27.8846154 6.13507228,28.3026579 5.5900386,29.0316907 C5.04484262,29.7607235 4.76189898,30.7505246 4.81374899,31.7475438 L4.8982994,33.3723384 L4.8982994,33.3724401 L5.09580007,37.1664403 C5.17540079,38.6964841 5.86316401,40.0510557 6.93546119,40.7900516 C7.47343548,41.1607186 8.0636655,41.3461538 8.65381438,41.3461538 C9.24396326,41.3461538 9.83419327,41.1607186 10.3721676,40.7900516 C11.4444648,40.0510557 12.1323091,38.6964841 12.2118287,37.1664403 L12.4374858,32.8307741 L12.4939609,31.7474421 C12.5457298,30.7505246 12.2627861,29.7607235 11.717509,29.0316907 Z M6.46532196,31.6126356 C6.44284551,31.1794452 6.5608266,30.7662825 6.79776249,30.4497007 C7.03453609,30.1329156 7.35577896,29.9585617 7.70233827,29.9585617 L9.00889364,29.9585617 L8.77658287,30.734665 C8.65803379,30.9459229 8.07835228,31.8255201 6.4938841,32.1584698 L6.46532196,31.6126356 Z M10.5600934,37.0314305 C10.5174937,37.8511476 10.1489448,38.5770288 9.57437522,38.9729086 C8.99793941,39.37011 8.3096082,39.37011 7.73317239,38.9729086 C7.15868401,38.5770288 6.79005396,37.8511476 6.74745418,37.0314305 L6.60188467,34.2345511 C7.95160781,33.9860842 8.84133453,33.4070059 9.40405726,32.8596467 C9.50410588,32.9466711 9.61429729,33.0291206 9.7342258,33.1066903 C9.96832171,33.2582714 10.3005999,33.4080225 10.7407165,33.5599086 L10.5600934,37.0314305 Z M10.4941246,31.2643346 C10.45899,31.2416635 10.4301033,31.2209241 10.4043811,31.2016079 L10.5923881,30.5734258 C10.7449359,30.8237227 10.8318394,31.120785 10.8434428,31.4349269 C10.6450496,31.3535957 10.5420798,31.2955455 10.4941246,31.2643346 Z" id="Shape"></path>
                        <path d="M21.1377394,48.8119846 L20.7540197,46.6924211 C20.2767918,44.0572533 18.1894635,41.9541022 15.5602622,41.458865 C15.163396,41.3840208 14.7573371,41.3461538 14.3537494,41.3461538 L13.1976481,41.3461538 C12.93027,41.3461538 12.6739627,41.4524385 12.4847717,41.6414769 L10.5771452,43.5495586 L8.66951869,41.6414769 C8.48042654,41.4524385 8.22402034,41.3461538 7.95664226,41.3461538 L6.80044209,41.3461538 C6.39675554,41.3461538 5.99079554,41.3840208 5.59392937,41.458865 C2.96462915,41.9541022 0.877498555,44.0572533 0.400270682,46.6923222 L0.0161556211,48.8119846 C-0.0371223042,49.1061212 0.0428440067,49.4086618 0.234308462,49.6380389 C0.425871763,49.8674161 0.709361726,50 1.0081728,50 L20.1456233,50 C20.4444344,50 20.7278255,49.8674161 20.9194877,49.6380389 C21.1109521,49.4086618 21.1909184,49.1060223 21.1377394,48.8119846 Z M2.21557513,47.9834585 L2.38430504,47.0519104 C2.71365948,45.233701 4.15344846,43.7824951 5.96707254,43.4409011 C6.24127099,43.3892913 6.52169673,43.3630908 6.80054093,43.3630908 L7.53901845,43.3630908 L9.86416991,45.6887972 C10.2579719,46.0824954 10.8961208,46.0824954 11.2900216,45.6887972 L13.6151731,43.3630908 L14.3536506,43.3630908 C14.6324948,43.3630908 14.9128217,43.3892913 15.187119,43.4409011 C17.0007431,43.7824951 18.4406309,45.233701 18.7699853,47.0520093 L18.9386164,47.9834585 L2.21557513,47.9834585 Z" id="Shape"></path>
                        <path d="M39.6021401,29.0316907 C39.057024,28.3027596 38.2869807,27.8846154 37.4898356,27.8846154 L35.5870414,27.8846154 C34.7897341,27.884717 34.0197718,28.3028612 33.4746558,29.0317924 C32.9294585,29.7608252 32.6465143,30.7506263 32.6983644,31.7476455 L32.782915,33.3723384 L32.782915,33.3724401 L32.9804161,37.1664403 C33.060017,38.6964841 33.7477818,40.0510557 34.8200814,40.7900516 C35.3580569,41.1607186 35.9482883,41.3461538 36.5384385,41.3461538 C37.1285887,41.3461538 37.7188201,41.1607186 38.2567956,40.7900516 C39.3290952,40.0510557 40.0169412,38.6964841 40.0964609,37.1664403 L40.3221185,32.8307741 L40.3785938,31.7474421 C40.4302816,30.7505246 40.1473373,29.7607235 39.6021401,29.0316907 Z M34.3499411,31.6127373 C34.3274646,31.1795468 34.445446,30.7663842 34.6823824,30.4498024 C34.9191565,30.1330172 35.2404001,29.9586634 35.5869602,29.9586634 L36.8934374,29.9586634 L36.6611261,30.7347667 C36.5425768,30.9460245 35.962894,31.8256218 34.3784222,32.1585715 L34.3499411,31.6127373 Z M38.4447219,37.0315321 C38.4020409,37.8512492 38.0334911,38.5771305 37.4590014,38.9730102 C36.8825643,39.3702116 36.1942315,39.3702116 35.6177944,38.9730102 C35.0433047,38.5771305 34.6746739,37.8512492 34.632074,37.0315321 L34.4865041,34.2346528 C35.8362303,33.9861859 36.7260402,33.4071075 37.2887642,32.8597484 C37.3888131,32.9467728 37.4990048,33.0292223 37.6189335,33.106792 C37.85303,33.2583731 38.185309,33.4081242 38.6254265,33.5600102 L38.4447219,37.0315321 Z M38.378753,31.2644363 C38.3436182,31.2417652 38.3147314,31.2210257 38.2890904,31.2017096 L38.4770978,30.5735275 C38.6294836,30.8238244 38.7164685,31.1208867 38.7280719,31.4350285 C38.5297594,31.3536973 38.4267894,31.2956472 38.378753,31.2644363 Z" id="Shape"></path>
                        <path d="M47.099269,48.8119981 L46.7152547,46.69236 C46.2381281,44.0572224 44.1508105,41.9540952 41.5216225,41.4588637 C41.1247584,41.3840204 40.7187016,41.3461538 40.3151159,41.3461538 L39.1590205,41.3461538 C38.8916438,41.3461538 38.6353377,41.4524373 38.4461477,41.6414736 L36.5385309,43.5495335 L34.6309141,41.6414736 C34.441823,41.4524373 34.1854181,41.3461538 33.9180413,41.3461538 L32.7618471,41.3461538 C32.3581626,41.3461538 31.9522046,41.3841193 31.5553405,41.4588637 C28.9261525,41.9540952 26.8389337,44.0572224 26.3617083,46.6922611 L25.977694,48.8118993 C25.9244163,49.1060326 26.0043822,49.4085696 26.1958457,49.6379442 C26.3874081,49.8673187 26.6708966,50 26.9697061,50 L46.1070592,50 C46.4058687,50 46.6892584,49.8674176 46.8809196,49.6379442 C47.0725807,49.4087674 47.1524478,49.1061314 47.099269,48.8119981 Z M28.1770035,47.9833827 L28.3457325,47.0519441 C28.6750853,45.2337555 30.1148669,43.7825661 31.9284818,43.440976 C32.2026788,43.3893668 32.4831031,43.3631667 32.7619459,43.3631667 L33.5004197,43.3631667 L35.8255593,45.6888464 C36.2193592,46.0825401 36.8575049,46.0825401 37.2514037,45.6888464 L39.5765433,43.3631667 L40.3150171,43.3631667 C40.5938599,43.3631667 40.8741853,43.3893668 41.1484812,43.440976 C42.9620961,43.7825661 44.4018777,45.2337555 44.7312305,47.0519441 L44.8999595,47.9833827 L28.1770035,47.9833827 Z" id="Shape"></path>
                        <path d="M28.0636629,1.14708399 C27.518548,0.418045677 26.7485875,0 25.951282,0 L24.0484921,0 C23.2511866,0 22.4812261,0.418045677 21.9361924,1.14708399 C21.3909965,1.87612231 21.1080528,2.86593085 21.1599028,3.86295759 L21.2444532,5.48766283 L21.4419539,9.28189501 C21.5215546,10.8119503 22.2093179,12.1665322 23.281615,12.9055336 C23.8195893,13.2762035 24.4098193,13.4615385 24.9999682,13.4615385 C25.5901171,13.4615385 26.180266,13.2762035 26.7183214,12.9055336 C27.7906186,12.1665322 28.478463,10.8119503 28.5579825,9.28189501 L28.7836396,4.94619608 L28.8401148,3.86285592 C28.8918836,2.86603251 28.60894,1.87612231 28.0636629,1.14708399 Z M22.8114758,3.72794673 C22.7889994,3.29475299 22.9069804,2.88168889 23.1438352,2.56500302 C23.3806899,2.24821549 23.7019328,2.07386035 24.0484921,2.07386035 L25.3549663,2.07386035 L25.1226556,2.84996947 C25.0041065,3.06122894 24.424425,3.94083283 22.8399568,4.27378506 L22.8114758,3.72794673 Z M26.9062473,9.14688415 C26.8636475,9.96660747 26.4950175,10.6924942 25.9205291,11.0883769 C25.3440121,11.4855813 24.6558432,11.4855813 24.0793262,11.0883769 C23.5048379,10.6924942 23.1362078,9.96660747 23.093608,9.14688415 L22.9480385,6.3499837 C24.2977617,6.10151492 25.1874884,5.52243219 25.7502923,4.97506889 C25.850422,5.06209396 25.9605323,5.14454411 26.0805419,5.22211436 C26.314719,5.37369658 26.6469972,5.52344884 27.0869515,5.67533606 L26.9062473,9.14688415 Z M26.8402785,3.3796431 C26.8051438,3.35697185 26.7762571,3.33623223 26.750535,3.31691592 L26.938542,2.68862743 C27.0910086,2.93902784 27.1779933,3.2360924 27.1895966,3.55023665 C26.9912034,3.4689048 26.8883148,3.41075253 26.8402785,3.3796431 Z" id="Shape"></path>
                        <path d="M37.4838924,21.0593192 L37.099975,19.1752395 C36.6227472,16.8329484 34.535419,14.9635448 31.9062177,14.523437 C31.5093515,14.4569111 31.1032927,14.4232527 30.699705,14.4232527 L29.5435049,14.4232527 C29.2761268,14.4232527 29.0198195,14.5177247 28.8306285,14.6857531 L26.9231009,16.3815918 L25.0154745,14.6855773 C24.8263824,14.5175489 24.5699762,14.4230769 24.3025981,14.4230769 L23.1464968,14.4230769 C22.7428103,14.4230769 22.3368503,14.4567353 21.9399841,14.5232612 C19.310684,14.9634569 17.2235535,16.8328605 16.7463257,19.1750637 L16.3623095,21.0591434 C16.3090315,21.3205893 16.3889979,21.589505 16.5804623,21.7933888 C16.7722233,21.9974484 17.0556144,22.1153846 17.3544255,22.1153846 L36.4918753,22.1153846 C36.7906863,22.1153846 37.0740774,21.9975363 37.2657396,21.7936524 C37.4571052,21.5896808 37.5370715,21.3206772 37.4838924,21.0593192 Z M18.56163,20.3227889 L18.7302611,19.4946867 C19.0596155,17.878556 20.4994045,16.5886394 22.3130285,16.2850107 C22.5872269,16.2391368 22.8676526,16.2158484 23.1464968,16.2158484 L23.8850732,16.2158484 L26.2101257,18.283072 C26.6039276,18.6331019 27.2420765,18.6331019 27.6359773,18.283072 L29.9610299,16.2158484 L30.6996062,16.2158484 C30.9784504,16.2158484 31.2588761,16.2391368 31.5330746,16.2850107 C33.3466986,16.5887272 34.7865863,17.878556 35.1159408,19.4947746 L35.2845718,20.3227889 L18.56163,20.3227889 Z" id="Shape"></path>
                        <path d="M25.9615385,23.0769231 C25.4305663,23.0769231 25,23.4510186 25,23.9125341 L25,24.164389 C25,24.6259045 25.4305663,25 25.9615385,25 C26.4925106,25 26.9230769,24.6259045 26.9230769,24.164389 L26.9230769,23.9125341 C26.9230769,23.4510186 26.4925106,23.0769231 25.9615385,23.0769231 Z" id="Shape"></path>
                        <path d="M32.2129442,33.7981171 L26.4390902,30.482203 L26.4390902,26.9147773 C26.4390902,26.3882949 26.00996,25.9615385 25.480759,25.9615385 C24.9515579,25.9615385 24.5224278,26.3882949 24.5224278,26.9147773 L24.5224278,30.4821095 L18.7485737,33.7980236 C18.290221,34.0612181 18.1331144,34.6442463 18.3978089,35.1001634 C18.5753995,35.4059775 18.8974115,35.5769231 19.228726,35.5769231 C19.3912824,35.5769231 19.5560939,35.5357055 19.706905,35.4490644 L25.480759,32.1331502 L31.254613,35.4490644 C31.405518,35.5357055 31.5703295,35.5769231 31.732792,35.5769231 C32.0640125,35.5769231 32.3861185,35.4059775 32.563709,35.1001634 C32.8284035,34.6442463 32.6713909,34.0613116 32.2129442,33.7981171 Z" id="Shape"></path>
                    </g>
                </g>
            </g>
        </g>
    </g>
</svg>