<?xml version="1.0" encoding="UTF-8"?>
<svg width="45px" height="50px" viewBox="0 0 45 50" version="1.1" xmlns="http://www.w3.org/2000/svg" xmlns:xlink="http://www.w3.org/1999/xlink">
    <!-- Generator: Sketch 48.1 (47250) - http://www.bohemiancoding.com/sketch -->
    <title>272426</title>
    <desc>Created with Sketch.</desc>
    <defs></defs>
    <g id="02-.-tinh-nang" stroke="none" stroke-width="1" fill="none" fill-rule="evenodd" transform="translate(-473.000000, -2419.000000)">
        <g id="Abtes" transform="translate(473.000000, 2353.000000)" fill="#FF4669" fill-rule="nonzero">
            <g id="272426" transform="translate(0.000000, 66.000000)">
                <path d="M1,7 C0.447673693,7 0,7.72971324 0,8.63046573 L0,10.3695343 C0,11.2700834 0.447548958,12 1,12 C1.55232631,12 2,11.2702868 2,10.3695343 L2,8.63046573 C2,7.72971324 1.55232631,7 1,7 Z" id="Shape"></path>
                <path d="M44.2583073,3.34032551 L22.846188,3.34032551 L22.846188,0.782908627 C22.846188,0.350487597 22.5142028,0 22.1044028,0 C21.6946954,0 21.3626176,0.350389941 21.3626176,0.782908627 L21.3626176,4.12323413 L21.3626176,8.35076494 L0.741785186,8.35076494 C0.332077714,8.35076494 0,8.70115488 0,9.13367357 L0,14.97917 L0,45.8767659 C0,46.3091869 0.331985188,46.6596745 0.741785186,46.6596745 L21.3626176,46.6596745 L21.3626176,49.2170914 C21.3626176,49.6495124 21.6946028,50 22.1044028,50 C22.5141103,50 22.846188,49.6496101 22.846188,49.2170914 L22.846188,45.8767659 L22.846188,41.6492351 L44.2582148,41.6492351 C44.6679223,41.6492351 45,41.2988451 45,40.8663264 L45,9.96863287 L45,4.12313648 C45,3.69071545 44.6680148,3.34032551 44.2583073,3.34032551 Z M21.3627102,26.4613741 L21.3627102,29.2275796 L17.007764,29.2275796 L18.8992838,23.9039572 L21.3627102,23.9039572 L21.3627102,26.4613741 Z M21.3627102,22.33814 L18.385299,22.33814 C18.0761678,22.33814 17.7993285,22.540581 17.6907948,22.8460491 L15.2430055,29.7353911 C15.157696,29.975918 15.1893401,30.2451558 15.3278523,30.4562882 C15.466272,30.6672253 15.6941649,30.7932016 15.9375096,30.7932016 L21.3627102,30.7932016 L21.3627102,32.3589212 L14.8248781,32.3589212 C14.515747,32.3589212 14.2389076,32.5614598 14.130374,32.8668303 L11.1914538,41.1385915 L9.80235305,40.5888856 L16.6627326,21.2800366 C16.770711,20.9763262 17.0498636,20.7721274 17.3573292,20.7721274 L21.3627102,20.7721274 L21.3627102,22.33814 Z M21.3627102,18.1106092 L21.3627102,19.2066031 L17.3572367,19.2066031 C16.4348397,19.2066031 15.5974746,19.8190043 15.2737243,20.7306236 L8.15288261,40.7723813 C8.08385782,40.9668145 8.09079731,41.1823414 8.1720356,41.3712083 C8.25345895,41.5602704 8.40270424,41.7074381 8.58683204,41.7802895 L11.3649411,42.8797991 C11.4508057,42.9136857 11.5387984,42.929799 11.6253107,42.929799 C11.9255593,42.929799 12.2083204,42.7359517 12.3199074,42.4216945 L15.3387705,33.9248361 L21.3627102,33.9248361 L21.3627102,35.02083 L21.3627102,38.1523669 L21.3627102,40.8663264 L21.3627102,45.0938572 L1.48357037,45.0938572 L1.48357037,15.7619809 L21.3627102,15.7619809 L21.3627102,18.1106092 Z M21.3627102,9.96863287 L21.3627102,14.1961637 L1.48357037,14.1961637 L1.48357037,9.91638688 L21.3627102,9.91638688 L21.3627102,9.96863287 Z M22.846188,19.9895117 L22.846188,18.8935178 L29.2253371,18.8935178 C30.1796557,18.8935178 30.9561383,19.7130474 30.9561383,20.720272 C30.9561383,21.7274966 30.1796557,22.5470263 29.2253371,22.5470263 L22.846188,22.5470263 L22.846188,19.9895117 Z M22.846188,33.1419275 L22.846188,30.0103906 L22.846188,27.2441851 L30.0165314,27.2441851 C31.8434677,27.2441851 33.3297214,28.8128343 33.3297214,30.7410532 C33.3297214,32.6692721 31.8434677,34.2379214 30.0165314,34.2379214 L22.846188,34.2379214 L22.846188,33.1419275 Z M22.846188,35.803641 L30.0165314,35.803641 C32.6614022,35.803641 34.8131992,33.5325517 34.8131992,30.7410532 C34.8131992,27.9495548 32.6614022,25.6784655 30.0165314,25.6784655 L22.846188,25.6784655 L22.846188,24.1127459 L29.2253371,24.1127459 C30.9977753,24.1127459 32.4396162,22.5909715 32.4396162,20.720272 C32.4396162,18.8495726 30.9977753,17.3277982 29.2253371,17.3277982 L22.846188,17.3277982 L22.8460955,15.7620786 L29.2253371,15.7620786 C31.8156172,15.7620786 33.923094,17.9863907 33.923094,20.720272 C33.923094,21.8524964 33.5682548,22.9199748 32.8967897,23.807473 C32.7614234,23.9863789 32.7070178,24.2189957 32.7479146,24.4437023 C32.7889038,24.6685065 32.9210317,24.8633303 33.1096008,24.9765137 C35.0754194,26.1566872 36.2966771,28.3656673 36.2966771,30.7412486 C36.2966771,34.3961242 33.4794293,37.3696536 30.0164389,37.3696536 L22.8460955,37.3696536 L22.8460955,35.803641 L22.846188,35.803641 Z M43.5165222,40.0834178 L22.8460955,40.0834178 L22.846188,38.9351779 L30.0165314,38.9351779 C34.2974563,38.9351779 37.7802474,35.2593061 37.7802474,30.7410532 C37.7802474,28.088617 36.5499222,25.6048328 34.5231285,24.0744647 C35.0968856,23.0653846 35.4065719,21.9014221 35.4065719,20.7201744 C35.4065719,17.1228181 32.6336443,14.1961637 29.2252445,14.1961637 L22.8460955,14.1961637 L22.8460955,10.7515415 L43.5165222,10.7515415 L43.5165222,40.0834178 Z M43.5165222,9.1858219 L22.846188,9.1858219 L22.846188,9.13367357 L22.846188,4.90614276 L43.5165222,4.90614276 L43.5165222,9.1858219 Z" id="Shape"></path>
                <path d="M42,5 C41.4476737,5 41,5.72971324 41,6.63046573 L41,8.36953427 C41,9.27008338 41.447549,10 42,10 C42.5523263,10 43,9.27028676 43,8.36953427 L43,6.63046573 C43,5.72971324 42.552451,5 42,5 Z" id="Shape"></path>
            </g>
        </g>
    </g>
</svg>