<svg xmlns="http://www.w3.org/2000/svg" width="159" height="44" viewBox="0 0 159 44">
    <g fill="#FFF" fill-rule="nonzero">
        <path d="M22.2 0C9.94 0 0 9.85 0 22s9.94 22 22.2 22 22.2-9.85 22.2-22a21.9 21.9 0 0 0-6.502-15.556A22.303 22.303 0 0 0 22.2 0zM11.688 21.233a.448.448 0 0 1-.444.428H8.19a.446.446 0 0 1-.322-.13.438.438 0 0 1-.128-.322c.265-5.45 4.802-9.734 10.308-9.734s10.043 4.284 10.308 9.734a.438.438 0 0 1-.128.321.446.446 0 0 1-.322.131h-3.048a.448.448 0 0 1-.444-.428c-.207-3.334-2.995-5.933-6.366-5.933-3.37 0-6.16 2.599-6.366 5.933h.006zM26.49 33c-5.512-.017-10.04-4.318-10.29-9.775a.438.438 0 0 1 .128-.321.446.446 0 0 1 .322-.131h3.03c.24.003.434.191.444.428.207 3.334 2.995 5.933 6.366 5.933 3.37 0 6.16-2.599 6.366-5.933a.448.448 0 0 1 .444-.428h3.054a.446.446 0 0 1 .322.13.438.438 0 0 1 .128.322c-.25 5.466-4.793 9.771-10.314 9.775zM150.036 12.564c-3.48 0-6.617 2.077-7.95 5.263a8.47 8.47 0 0 0 1.866 9.292 8.661 8.661 0 0 0 9.377 1.849c3.215-1.32 5.311-4.43 5.311-7.878-.003-4.707-3.854-8.523-8.604-8.526zm0 13.794c-2.936 0-5.316-2.358-5.316-5.268 0-2.91 2.38-5.268 5.316-5.268s5.316 2.359 5.316 5.268c-.003 2.908-2.381 5.265-5.316 5.268zM121.47 13.176h-2.67a.293.293 0 0 0-.294.292v.933c-3.524-2.764-8.601-2.374-11.654.895a8.47 8.47 0 0 0 0 11.583c3.053 3.268 8.13 3.658 11.654.895v1.361c0 .161.132.291.294.291h2.694a.29.29 0 0 0 .294-.291V13.468a.29.29 0 0 0-.094-.215.296.296 0 0 0-.224-.077zm-8.304 13.182c-2.936 0-5.316-2.358-5.316-5.268 0-2.91 2.38-5.268 5.316-5.268s5.316 2.359 5.316 5.268c-.003 2.908-2.381 5.265-5.316 5.268zM102.264 12.564h-2.244V7.212a.4.4 0 0 0-.402-.398H96.78a.4.4 0 0 0-.402.398v5.352H94.14a.406.406 0 0 0-.408.404v2.147c0 .223.183.404.408.404h2.244v13.283c0 .448.364.811.816.815h1.998a.818.818 0 0 0 .822-.815V15.525h2.244a.41.41 0 0 0 .288-.119.402.402 0 0 0 .12-.285v-2.147a.402.402 0 0 0-.117-.29.41.41 0 0 0-.291-.12zM140.502 25.038l-2.07-1.653a.326.326 0 0 0-.492.096 5.34 5.34 0 0 1-5.469 2.844 5.308 5.308 0 0 1-4.506-4.186 5.262 5.262 0 0 1 2.513-5.592 5.367 5.367 0 0 1 6.154.518.332.332 0 0 0 .45 0l1.836-1.867a.32.32 0 0 0 0-.464 8.66 8.66 0 0 0-9.822-1.102c-3.182 1.721-4.932 5.234-4.377 8.784.555 3.549 3.296 6.372 6.854 7.058 3.557.687 7.167-.912 9.025-3.996a.325.325 0 0 0-.096-.44zM92.088 18.956c-1.002-3.734-4.414-6.333-8.313-6.33-3.9.001-7.309 2.603-8.307 6.338-.999 3.735.664 7.668 4.05 9.583a8.656 8.656 0 0 0 10.386-1.422.438.438 0 0 0 0-.636l-1.8-1.587a.44.44 0 0 0-.6 0 5.338 5.338 0 0 1-5.254 1.274 5.275 5.275 0 0 1-3.65-3.956h13.368a.395.395 0 0 0 .396-.35 8.406 8.406 0 0 0-.276-2.914zm-13.236.232l-.054.13.054-.13zm-.36 1.528v0zm0 .755v.083c0 .03-.006-.06-.006-.083h.006zm.102-1.397v-.113.113zm2.862-1.112h-2.49a5.313 5.313 0 0 1 4.833-3.083 5.313 5.313 0 0 1 4.833 3.083h-7.176zM71.466 12.712h-2.694a.293.293 0 0 0-.294.292V14.4c-3.524-2.764-8.601-2.374-11.654.895a8.47 8.47 0 0 0 0 11.583c3.053 3.268 8.13 3.658 11.654.895v2.176a.383.383 0 0 0 0 .053c-.164 2.786-2.491 4.962-5.307 4.962-2.816 0-5.143-2.176-5.307-4.962a.37.37 0 0 0-.372-.357h-2.556c-.1 0-.197.04-.267.113a.367.367 0 0 0-.105.268c.21 4.553 3.996 8.137 8.595 8.137s8.385-3.584 8.595-8.137V13.004a.293.293 0 0 0-.288-.292zm-8.31 13.676c-2.936 0-5.316-2.359-5.316-5.268 0-2.91 2.38-5.268 5.316-5.268s5.316 2.359 5.316 5.268c-.02 2.897-2.393 5.235-5.316 5.238v.03z"/>
    </g>
</svg>
