<svg xmlns="http://www.w3.org/2000/svg" width="137" height="190" viewBox="0 0 137 190">
    <defs>
        <linearGradient id="a" x1=".003%" x2="99.999%" y1="50.005%" y2="50.005%">
            <stop offset="0%" stop-color="gray" stop-opacity=".25"/>
            <stop offset="54%" stop-color="gray" stop-opacity=".12"/>
            <stop offset="100%" stop-color="gray" stop-opacity=".1"/>
        </linearGradient>
    </defs>
    <g fill="none" fill-rule="evenodd">
        <path fill="#F5F5F5" fill-rule="nonzero" d="M128 27.947L114.812 24 114 41.858 127.878 46zM35 0v18.3L113.195 42 114 24.014z"/>
        <path fill="#000" fill-rule="nonzero" d="M128 27.947L114.812 24 114 41.858 127.878 46z" opacity=".1"/>
        <path fill="#3AD29F" fill-rule="nonzero" d="M128 61.947L114.812 58 114 75.858 127.878 80zM35 34v18.3L113.195 76 114 58.014z"/>
        <path fill="#000" fill-rule="nonzero" d="M128 61.947L114.812 58 114 75.858 127.878 80z" opacity=".1"/>
        <path stroke="#FFF" stroke-linecap="round" stroke-width="7" d="M118 68.001L120 71l4-5"/>
        <g stroke="#FFF" stroke-linecap="round" stroke-width="7" opacity=".4">
            <path d="M118.203 31.075l4.636 7.772M123.997 32.185l-5.794 5.553"/>
        </g>
        <path fill="#F5F5F5" fill-rule="nonzero" d="M128 94.947L114.812 91 114 108.858 127.878 113zM35 67v18.3l78.195 23.7.805-17.986z"/>
        <path fill="#000" fill-rule="nonzero" d="M128 94.947L114.812 91 114 108.858 127.878 113z" opacity=".1"/>
        <g stroke="#FFF" stroke-linecap="round" stroke-width="7" opacity=".4">
            <path d="M118.203 97.165l4.636 7.772M123.997 98.275l-5.794 5.553"/>
        </g>
        <ellipse cx="89.5" cy="59.5" fill="#000" fill-rule="nonzero" opacity=".3" rx="2.5" ry="5.5"/>
        <ellipse cx="89.5" cy="59" fill="#FF4669" fill-rule="nonzero" opacity=".1" rx="22.5" ry="45"/>
        <ellipse cx="89.5" cy="58.5" fill="#FFF" fill-rule="nonzero" opacity=".1" rx="12.5" ry="24.5"/>
        <path fill="url(#a)" fill-rule="nonzero" d="M76.865 31.04c-1.097-3.296-7.62 1.16-7.62 1.16l-.537.723-11.596 15.7-28.41-15.907v-7.113a9.862 9.862 0 0 0 6.8-3.883 9.894 9.894 0 0 0 1.836-7.62c1.43-.552 2.594-1.743 3.667-2.893.989-1.053 2.048-2.33 1.947-3.733a2.6 2.6 0 0 0-.039-.67c-.226-1.183-1.294-2.046-2.425-2.458-1.131-.413-2.354-.482-3.535-.724-2.816-.551-5.359-2.024-8.104-2.858A18.41 18.41 0 0 0 25.02.041c-.931-.077-1.9-.077-2.753.306-.933.422-1.61 1.246-2.36 1.947a10.74 10.74 0 0 1-3.095 2.018c-1.7.723-3.609 1.02-5.142 2.041a3.037 3.037 0 0 0-1.037 1.041c-.224.46-.32.971-.276 1.48-.007.45.026.898.1 1.34.27 1.89.58 3.825 1.536 5.476.78 1.35 1.946 2.425 3.092 3.48l2.577 2.367c.522.482 1.1 1.075 1.773 1.314-.043-.313.135-.644.4-.964L19 27.734a16.881 16.881 0 0 0-4.803-.76c-2.195-.026-4.416.372-5.376 1.869-.056.09-.105.186-.146.284-3.025 3.596-9.958 15.242-5.881 43.528-.35 3.46-.559 5.652-.559 5.652l.024.347-.024.263.049.038 2.269 31.229-4.39 30.778h.975v3.42H.041v5.495s15.241-.976 17.566-4.396c1.925-2.837-7.657-1.723-10.975-1.26v-2.105h.06v-1.16h1.157l4.39-20.883c4.51-7.812 2.198-27.365 2.198-27.365l5.487 3.297 4.38 22.974-3.288 34.075h.975v2.38h-1.28v5.496s15.24-.976 17.565-4.396c1.925-2.837-7.652-1.723-10.97-1.26l-.368-2.22h.671l4.394-30.778c2.166-8.34-.787-32.808-1.177-35.941l5.434-35.998-.077-.104.077-.509 21.947 7.699s2.195 2.198 4.452-4.339c2.108-6.107 7.89-14.295 8.638-15.338l.08-.111s6.586-3.297 5.488-6.594z" opacity=".5" transform="translate(15 29)"/>
        <path fill="#FDA57D" fill-rule="nonzero" d="M17 167.286V173h5v-8zM37 178.142V185l5-1.142L41 177z"/>
        <path fill="#F55F44" fill-rule="nonzero" d="M26 58s-12.427 9.565-6.305 47L26 58z"/>
        <path fill="#000" fill-rule="nonzero" d="M26 58s-12.427 9.565-6.305 47L26 58zM43 181l-.555-3L38 179v2zM17 169h5v-3l-5 2z" opacity=".05"/>
        <path fill="#FDA57D" fill-rule="nonzero" d="M35.11 51L34 58.584 44 64V53.166z"/>
        <path fill="#FF4669" fill-rule="nonzero" d="M16 168.192l4.31-30.06L18.034 107l28 7.515s3.461 26.719 1.196 35.425L42.924 180h-6.462l3.23-33.28-4.307-22.433L30 121.075s2.275 19.095-2.153 26.719l-4.297 20.398H16z"/>
        <path fill="#FDA57D" fill-rule="nonzero" d="M90.88 61.227c-1.06-3.33-7.362 1.172-7.362 1.172l-.518.735L85.502 68l.079-.112s6.36-3.332 5.3-6.661z"/>
        <path fill="#000" fill-rule="nonzero" d="M35.032 58.748s-8.516-2.257-10.644 1.069C22.259 63.142 18 107.919 18 107.919s12.655 10.686 27.677 7.481L51 80.135 35.032 58.748z" opacity=".05"/>
        <path fill="#F55F44" fill-rule="nonzero" d="M72.026 78.046L37.874 59.167a17.192 17.192 0 0 0-8.1-2.166c-2.16-.026-4.347.361-5.29 1.815C22.323 62.142 18 106.918 18 106.918s12.845 10.688 28.092 7.482l5.403-35.288 21.611 7.483s2.16 2.137 4.38-4.217C79.56 76.438 85.252 68.48 86 67.456l-2.55-4.686-11.424 15.276z"/>
        <path fill="#000" fill-rule="nonzero" d="M35 52.554c1.898 2.177 4.807 3.448 7.886 3.446.372 0 .744-.02 1.114-.056V54l-8.912-2-.088.554z" opacity=".05"/>
        <circle cx="42.5" cy="45.5" r="9.5" fill="#FDA57D" fill-rule="nonzero"/>
        <path fill="#333" fill-rule="nonzero" d="M16 171.737V177s14.547-.936 16.759-4.21c2.212-3.276-11.521-1.053-11.521-1.053H16zM36 182.737V188s14.547-.936 16.759-4.21c2.212-3.276-11.521-1.053-11.521-1.053H36z"/>
        <path fill="#000" fill-rule="nonzero" d="M36.784 50.508l3.788-5.412c.56-.801 1.135-1.617 1.92-2.203.786-.586 1.829-.913 2.76-.613.563.182 1.03.569 1.509.915 1.413 1.027 3.152 1.79 4.881 1.48 1.802-.325 3.187-1.73 4.44-3.061 1.04-1.104 2.159-2.46 1.873-3.95-.224-1.157-1.271-2-2.382-2.404-1.11-.404-2.308-.47-3.468-.697-2.762-.54-5.26-1.981-7.954-2.797a18.117 18.117 0 0 0-3.759-.727c-.914-.075-1.867-.075-2.701.3-.917.412-1.581 1.211-2.316 1.906a10.543 10.543 0 0 1-3.036 1.971c-1.669.712-3.533.998-5.047 1.998a2.976 2.976 0 0 0-1.016 1.02c-.388.726-.288 1.593-.172 2.402.264 1.847.568 3.741 1.506 5.356.766 1.32 1.909 2.373 3.036 3.405l2.53 2.317c.511.47 1.079 1.051 1.74 1.286-.118-.833 1.39-1.802 1.868-2.492z" opacity=".05"/>
        <path fill="#333" fill-rule="nonzero" d="M36.784 50.506l3.788-5.411c.56-.802 1.135-1.618 1.92-2.204.786-.586 1.829-.913 2.76-.612.563.181 1.03.569 1.509.915 1.413 1.027 3.152 1.79 4.881 1.48 1.802-.325 3.187-1.73 4.44-3.061 1.04-1.104 2.159-2.46 1.873-3.95-.224-1.157-1.271-2-2.382-2.404-1.11-.404-2.308-.47-3.468-.697-2.762-.54-5.26-1.98-7.954-2.796a18.118 18.118 0 0 0-3.759-.727c-.914-.075-1.867-.075-2.701.3-.917.412-1.581 1.211-2.316 1.906a10.543 10.543 0 0 1-3.036 1.973c-1.669.712-3.533.998-5.047 1.998a2.976 2.976 0 0 0-1.016 1.02c-.388.726-.288 1.592-.172 2.401.264 1.847.568 3.74 1.506 5.356.766 1.32 1.909 2.373 3.036 3.404l2.53 2.317c.511.47 1.079 1.051 1.74 1.286-.118-.833 1.39-1.814 1.868-2.494z"/>
        <g fill="#47E6B1" fill-rule="nonzero" opacity=".5">
            <path d="M.767 27.064h1v1.864h-1z"/>
            <path d="M1.864 27.83v1H0v-1z"/>
        </g>
        <g fill="#47E6B1" fill-rule="nonzero" opacity=".5">
            <path d="M127.767 125.064h1v1.864h-1z"/>
            <path d="M128.864 125.83v1H127v-1z"/>
        </g>
        <g fill="#47E6B1" fill-rule="nonzero" opacity=".5">
            <path d="M118.887 82.053h1v1.864h-1z"/>
            <path d="M119.984 82.82v1h-1.864v-1z"/>
        </g>
        <g fill="#47E6B1" fill-rule="nonzero" opacity=".5">
            <path d="M103.851 124.196h1v1.678h-1z"/>
            <path d="M104.855 124.87v1h-1.678v-1z"/>
        </g>
        <g fill="#47E6B1" fill-rule="nonzero" opacity=".5">
            <path d="M92.884 150.013h1v1.864h-1z"/>
            <path d="M93.964 150.799v1H92.1v-1z"/>
        </g>
        <g fill="#47E6B1" fill-rule="nonzero" opacity=".5">
            <path d="M15.804 58.016h1v1.864h-1z"/>
            <path d="M16.9 58.785v1h-1.864v-1z"/>
        </g>
        <path fill="#4D8AF0" fill-rule="nonzero" d="M21.838 27.012a.548.548 0 0 1-.302-.663.263.263 0 0 0 0-.06.275.275 0 0 0-.494-.182.263.263 0 0 0-.03.055.548.548 0 0 1-.663.302h-.06a.275.275 0 0 0-.182.494.263.263 0 0 0 .055.03.548.548 0 0 1 .302.663.263.263 0 0 0 0 .06.275.275 0 0 0 .494.182.263.263 0 0 0 .03-.055.548.548 0 0 1 .663-.302h.06a.275.275 0 0 0 .182-.494.263.263 0 0 0-.055-.03zM102.838 9.012a.548.548 0 0 1-.302-.663.263.263 0 0 0 0-.06.275.275 0 0 0-.494-.182.263.263 0 0 0-.03.055.548.548 0 0 1-.663.302h-.06a.275.275 0 0 0-.182.494.263.263 0 0 0 .055.03.548.548 0 0 1 .302.663.263.263 0 0 0 0 .06.275.275 0 0 0 .494.182.263.263 0 0 0 .03-.055.548.548 0 0 1 .663-.302h.06a.275.275 0 0 0 .182-.494.263.263 0 0 0-.055-.03zM3.838 73.012a.548.548 0 0 1-.302-.663.263.263 0 0 0 0-.06.275.275 0 0 0-.494-.182.263.263 0 0 0-.03.055.548.548 0 0 1-.663.302h-.06a.275.275 0 0 0-.182.494.263.263 0 0 0 .055.03.548.548 0 0 1 .302.663.263.263 0 0 0 0 .06.275.275 0 0 0 .494.182.263.263 0 0 0 .03-.055.548.548 0 0 1 .663-.302h.06a.275.275 0 0 0 .182-.494.263.263 0 0 0-.055-.03zM6.838 118.012a.548.548 0 0 1-.302-.663.263.263 0 0 0 0-.06.275.275 0 0 0-.494-.182.263.263 0 0 0-.03.055.548.548 0 0 1-.663.302h-.06a.275.275 0 0 0-.182.494.263.263 0 0 0 .055.03.548.548 0 0 1 .302.663.263.263 0 0 0 0 .06.275.275 0 0 0 .494.182.263.263 0 0 0 .03-.055.548.548 0 0 1 .663-.302h.06a.275.275 0 0 0 .182-.494.263.263 0 0 0-.055-.03z" opacity=".5"/>
        <circle cx="59.5" cy="32.5" r="1" fill="#F55F44" fill-rule="nonzero" opacity=".5"/>
        <circle cx="79.5" cy="125.5" r="1" fill="#4D8AF0" fill-rule="nonzero" opacity=".5"/>
        <circle cx="123.5" cy="51.5" r="1" fill="#4D8AF0" fill-rule="nonzero" opacity=".5"/>
        <circle cx="136.5" cy="83.5" r="1" fill="#47E6B1" fill-rule="nonzero" opacity=".5"/>
        <circle cx="88.5" cy="2.5" r="1" fill="#F55F44" fill-rule="nonzero" opacity=".5"/>
    </g>
</svg>
