<svg xmlns="http://www.w3.org/2000/svg" width="24" height="20" viewBox="0 0 24 20">
    <g fill="#B2B2B2" fill-rule="nonzero">
        <path d="M23.474 12.814L14.077 9.57a.845.845 0 0 0-.84.174.726.726 0 0 0-.19.791l3.402 8.964a.8.8 0 0 0 .739.501c.342 0 .637-.187.759-.475l1.08-2.732c1.296 1.164 2.359 2.066 3.19 2.706.76.586 2.23-.999 1.55-1.666l-2.813-2.55 2.549-1.058A.757.757 0 0 0 24 13.51a.761.761 0 0 0-.526-.696z"/>
        <path d="M11.458 7.956c.4-.377.93-.585 1.493-.585.249 0 .493.04.727.122L18 8.998v-7.68C18 .593 17.377 0 16.615 0H1.385C.623 0 0 .593 0 1.318v11.65c0 .725.623 1.318 1.385 1.318h11.16l-1.588-4.22a1.954 1.954 0 0 1 .501-2.11z"/>
    </g>
</svg>
