<svg xmlns="http://www.w3.org/2000/svg" width="20" height="20" viewBox="0 0 20 20">
    <path fill="#B2B2B2" fill-rule="nonzero" d="M18.76 4.752h-3.011v10.905h-1.46V4.752h1.456v-1.28c0-1.07.828-1.941 1.847-1.941.403 0 .73-.343.73-.766 0-.422-.327-.765-.73-.765-1.041 0-1.97.508-2.577 1.3C14.408.508 13.478 0 12.438 0c-.404 0-.73.343-.73.765 0 .423.326.766.73.766 1.018 0 1.847.87 1.847 1.941v1.28H1.241C.558 4.752 0 5.338 0 6.053v8.303c0 .715.558 1.301 1.24 1.301h13.045v.87c0 1.071-.829 1.942-1.847 1.942-.403 0-.73.343-.73.766 0 .422.327.765.73.765 1.04 0 1.97-.508 2.577-1.3.606.792 1.536 1.3 2.577 1.3.403 0 .73-.343.73-.765 0-.423-.327-.766-.73-.766-1.019 0-1.847-.87-1.847-1.941v-.871h3.014c.683 0 1.241-.586 1.241-1.301V6.053c0-.715-.558-1.3-1.24-1.3z"/>
</svg>
