<svg xmlns="http://www.w3.org/2000/svg" width="18" height="18" viewBox="0 0 18 18">
    <path fill="#B2B2B2" fill-rule="nonzero" d="M13.5 16.2a.901.901 0 0 1-.9-.9c0-1.189 1.8-1.19 1.8 0 0 .496-.404.9-.9.9zm-10.8 0a.901.901 0 0 1-.9-.9c0-.496.404-.9.9-.9s.9.404.9.9-.404.9-.9.9zm.9-12.6a1.8 1.8 0 0 0-1.8 1.8v7.366a2.692 2.692 0 0 0 .393 5.188A2.703 2.703 0 0 0 5.4 15.3a2.691 2.691 0 0 0-1.8-2.534V12.6h9v.166a2.692 2.692 0 0 0 .393 5.188A2.703 2.703 0 0 0 16.2 15.3a2.691 2.691 0 0 0-1.8-2.534V2.7a.9.9 0 0 1 .9-.9h1.8a.9.9 0 0 0 0-1.8h-2.7a1.8 1.8 0 0 0-1.8 1.8v1.8h-9z"/>
</svg>
