<svg xmlns="http://www.w3.org/2000/svg" width="60" height="60" viewBox="0 0 60 60">
    <g fill="#FF4669" fill-rule="nonzero">
        <path d="M30 60c-8.015 0-15.546-3.12-21.215-8.785C3.117 45.549 0 38.015 0 30.003c0-8.015 3.12-15.546 8.785-21.215C14.451 3.12 21.985 0 30 0s15.546 3.12 21.215 8.788C56.883 14.457 60 21.988 60 30.003s-3.12 15.546-8.785 21.212C45.549 56.88 38.015 60 30 60zm0-56.842C15.199 3.158 3.158 15.198 3.158 30c0 14.801 12.04 26.842 26.842 26.842 14.801 0 26.842-12.04 26.842-26.842 0-14.801-12.04-26.842-26.842-26.842z"/>
        <path d="M24.139 42c-.408 0-.815-.153-1.127-.456l-9.547-9.376c-.62-.61-.62-1.6 0-2.21.62-.61 1.63-.61 2.25 0l8.42 8.27 21.15-20.77c.62-.61 1.63-.61 2.25 0 .62.609.62 1.6 0 2.209L25.259 41.544a1.6 1.6 0 0 1-1.127.456h.007z"/>
    </g>
</svg>
