<svg xmlns="http://www.w3.org/2000/svg" width="40" height="40" viewBox="0 0 40 40">
    <path fill="#D8D8D8" fill-rule="nonzero" d="M20.013 12.01l-7.409 7.411 2.826 2.827 2.585-2.585V40h3.997V19.663l2.584 2.585 2.826-2.827-7.409-7.411zm16.55 13.4c-3.512 3.02-6.987 2.594-10.554 2.594v-3.998c3.71 0 5.44.272 7.448-1.102C38.29 19.6 35.77 11.816 29.806 12.03 27.142-1.177 6.367 3.29 10.494 16.89c-5.256-4.18-11.424 7.116-.262 7.116h3.785v3.998H8.424c-6.667 0-10.776-7.117-6.96-12.56 1.825-2.598 4.687-3.24 4.687-3.24C7.471 1.98 19.138-3.416 27.78 2.369c3.71 2.485 5.117 6.116 5.117 6.116 7.422 2.255 9.66 11.768 3.667 16.924z"/>
</svg>
