<svg xmlns="http://www.w3.org/2000/svg" width="16" height="16" viewBox="0 0 16 16">
    <path fill="#888" fill-rule="nonzero" d="M14.4 13.607c0 .441-.394.793-.836.793h-2.4c-.44 0-.764-.352-.764-.793v-2.4c0-.44.323-.807.764-.807h2.4c.442 0 .836.366.836.807v2.4zM13.564 8.8h-2.4C9.838 8.8 8.8 9.882 8.8 11.207v2.4C8.8 14.933 9.838 16 11.164 16h2.4C14.89 16 16 14.933 16 13.607v-2.4C16 9.882 14.89 8.8 13.564 8.8zM5.6 13.607c0 .441-.394.793-.836.793h-2.4c-.44 0-.764-.352-.764-.793v-2.4c0-.44.323-.807.764-.807h2.4c.442 0 .836.366.836.807v2.4zM4.764 8.8h-2.4C1.038 8.8 0 9.882 0 11.207v2.4C0 14.933 1.038 16 2.364 16h2.4C6.09 16 7.2 14.933 7.2 13.607v-2.4C7.2 9.882 6.09 8.8 4.764 8.8zM14.4 4.807c0 .441-.394.793-.836.793h-2.4c-.44 0-.764-.352-.764-.793v-2.4c0-.44.323-.807.764-.807h2.4c.442 0 .836.366.836.807v2.4zM13.564 0h-2.4C9.838 0 8.8 1.082 8.8 2.407v2.4C8.8 6.133 9.838 7.2 11.164 7.2h2.4C14.89 7.2 16 6.133 16 4.807v-2.4C16 1.082 14.89 0 13.564 0zM5.6 4.807c0 .441-.394.793-.836.793h-2.4c-.44 0-.764-.352-.764-.793v-2.4c0-.44.323-.807.764-.807h2.4c.442 0 .836.366.836.807v2.4zM4.764 0h-2.4C1.038 0 0 1.082 0 2.407v2.4C0 6.133 1.038 7.2 2.364 7.2h2.4C6.09 7.2 7.2 6.133 7.2 4.807v-2.4C7.2 1.082 6.09 0 4.764 0z"/>
</svg>
