<svg xmlns="http://www.w3.org/2000/svg" width="20" height="20" viewBox="0 0 20 20">
    <path fill="#B2B2B2" fill-rule="nonzero" d="M10 0C4.477 0 0 4.477 0 10s4.477 10 10 10 10-4.477 10-10C19.994 4.48 15.52.006 10 0zm5.602 3.432l-2.234 2.236c-.01.01-.02.02-.027.032a5.41 5.41 0 0 0-6.682 0 .198.198 0 0 0-.027-.032L4.398 3.432a8.62 8.62 0 0 1 11.204 0zM10 14.09a4.09 4.09 0 1 1 0-8.182 4.09 4.09 0 0 1 0 8.182zM1.364 10a8.59 8.59 0 0 1 2.07-5.6l2.233 2.232.03.027a5.42 5.42 0 0 0 0 6.682l-.03.027L3.434 15.6a8.59 8.59 0 0 1-2.07-5.6zm3.034 6.568l2.234-2.236c.01-.01.02-.02.027-.032a5.41 5.41 0 0 0 6.682 0 .198.198 0 0 0 .027.032l2.234 2.236a8.62 8.62 0 0 1-11.204 0zm12.168-.968l-2.233-2.232-.03-.027a5.42 5.42 0 0 0 0-6.682l.03-.027L16.566 4.4a8.609 8.609 0 0 1 0 11.2z"/>
</svg>
