<svg xmlns="http://www.w3.org/2000/svg" width="13" height="17" viewBox="0 0 13 17">
    <path fill="#FFF" fill-rule="nonzero" d="M11.375 5.667h-.813v-1.62A4.057 4.057 0 0 0 6.5 0a4.057 4.057 0 0 0-4.063 4.048v1.619h-.812C.727 5.667 0 6.39 0 7.286v8.095C0 16.275.727 17 1.625 17h9.75c.898 0 1.625-.725 1.625-1.619V7.286c0-.895-.727-1.62-1.625-1.62zM6.5 12.952a1.622 1.622 0 0 1-1.625-1.619c0-.894.727-1.619 1.625-1.619s1.625.725 1.625 1.62c0 .894-.727 1.618-1.625 1.618zm2.519-7.285H3.98v-1.62c0-1.384 1.13-2.509 2.519-2.509a2.516 2.516 0 0 1 2.519 2.51v1.619z"/>
</svg>
