<svg xmlns="http://www.w3.org/2000/svg" width="16" height="16" viewBox="0 0 16 16">
    <path fill="#FF4669" fill-rule="nonzero" d="M7.636 2.182c0-.257.055-.727.14-.727H0v1.454h7.777c-.086 0-.14-.47-.14-.727zm0 11.636c0-.257.055-.727.14-.727H0v1.454h7.777c-.086 0-.14-.47-.14-.727zm6.26-12.363C13.58.727 12.74 0 11.746 0 10.48 0 9.454.977 9.454 2.182s1.025 2.182 2.29 2.182c.996 0 1.835-.728 2.15-1.455h1.669V1.455h-1.668zm0 11.636c-.316-.727-1.155-1.455-2.15-1.455-1.266 0-2.291.977-2.291 2.182S10.48 16 11.745 16c.996 0 1.835-.727 2.15-1.455h1.669v-1.454h-1.668zM7.636 8c0 .257-.055.499-.14.727h7.777V7.273H7.496c.085 0 .14.47.14.727zM6.11 8c0 1.205-1.025 2.182-2.29 2.182-.997 0-1.836-.727-2.151-1.455H0V7.273h1.668c.315-.728 1.154-1.455 2.15-1.455 1.266 0 2.291.977 2.291 2.182z"/>
</svg>
