<?xml version="1.0" encoding="UTF-8"?>
<svg width="67px" height="60px" viewBox="0 0 67 60" version="1.1" xmlns="http://www.w3.org/2000/svg" xmlns:xlink="http://www.w3.org/1999/xlink">
    <!-- Generator: Sketch 48.1 (47250) - http://www.bohemiancoding.com/sketch -->
    <title>004-form</title>
    <desc>Created with Sketch.</desc>
    <defs></defs>
    <g id="02-.-tinh-nang" stroke="none" stroke-width="1" fill="none" fill-rule="evenodd" transform="translate(-427.000000, -4456.000000)">
        <g id="#3-copy-3" transform="translate(376.000000, 4406.000000)" fill="#FF4669" fill-rule="nonzero">
            <g id="#1">
                <g id="Testimonial-left-Copy-6" transform="translate(50.000000, 50.000000)">
                    <g id="004-form" transform="translate(1.000000, 0.000000)">
                        <path d="M65.1313446,0 L0.970221225,0 C0.434437049,0 0,0.435216541 0,0.971962053 L0,59.0280379 C0,59.5647835 0.434437049,60 0.970221225,60 L65.1314737,60 C65.6672579,60 66.1016949,59.5647835 66.1016949,59.0280379 L66.1016949,0.971962053 C66.1015658,0.435216541 65.6671288,0 65.1313446,0 Z M64.1612525,8.29368817 L12.914077,8.29368817 C12.3782928,8.29368817 11.9438558,8.72890472 11.9438558,9.26565023 C11.9438558,9.80239574 12.3782928,10.2376123 12.914077,10.2376123 L64.1611234,10.2376123 L64.1612525,58.0560759 L1.94031334,58.0560759 L1.94031334,10.2376123 L8.42975711,10.2376123 C8.96554128,10.2376123 9.39997833,9.80239574 9.39997833,9.26565023 C9.39997833,8.72890472 8.96554128,8.29368817 8.42975711,8.29368817 L1.94031334,8.29368817 L1.94031334,1.94379477 L64.1612525,1.94379477 L64.1611234,8.29368817 L64.1612525,8.29368817 Z" id="Shape"></path>
                        <path d="M35.6206882,45.7627119 L29.4640576,45.7627119 C27.236257,45.7627119 25.4237288,47.5875624 25.4237288,49.8305085 C25.4237288,52.0734546 27.236257,53.8983051 29.4640576,53.8983051 L35.6206882,53.8983051 C37.8484887,53.8983051 39.6610169,52.0734546 39.6610169,49.8305085 C39.6610169,47.5874335 37.8484887,45.7627119 35.6206882,45.7627119 Z M35.6206882,51.9611977 L29.4640576,51.9611977 C28.2970962,51.9611977 27.3477559,51.0054034 27.3477559,49.8305085 C27.3477559,48.6556135 28.2972242,47.6998192 29.4640576,47.6998192 L35.6206882,47.6998192 C36.7876496,47.6998192 37.7369899,48.6557424 37.7369899,49.8305085 C37.7369899,51.0052745 36.7876496,51.9611977 35.6206882,51.9611977 Z" id="Shape"></path>
                        <path d="M57.0127119,4.06779661 L56.8855932,4.06779661 C56.3591038,4.06779661 55.9322034,4.52315708 55.9322034,5.08474576 C55.9322034,5.64633445 56.3591038,6.10169492 56.8855932,6.10169492 L57.0127119,6.10169492 C57.5392013,6.10169492 57.9661017,5.64633445 57.9661017,5.08474576 C57.9661017,4.52315708 57.5392013,4.06779661 57.0127119,4.06779661 Z" id="Shape"></path>
                        <path d="M61.0805085,4.06779661 L60.9533898,4.06779661 C60.4269004,4.06779661 60,4.52315708 60,5.08474576 C60,5.64633445 60.4269004,6.10169492 60.9533898,6.10169492 L61.0805085,6.10169492 C61.6069979,6.10169492 62.0338983,5.64633445 62.0338983,5.08474576 C62.0338983,4.52315708 61.6069979,4.06779661 61.0805085,4.06779661 Z" id="Shape"></path>
                        <path d="M52.9449153,4.06779661 L52.8177966,4.06779661 C52.2913072,4.06779661 51.8644068,4.52315708 51.8644068,5.08474576 C51.8644068,5.64633445 52.2913072,6.10169492 52.8177966,6.10169492 L52.9449153,6.10169492 C53.4714046,6.10169492 53.8983051,5.64633445 53.8983051,5.08474576 C53.8983051,4.52315708 53.4715315,4.06779661 52.9449153,4.06779661 Z" id="Shape"></path>
                        <path d="M60.7304974,47.3456598 L54.0468077,40.8016829 L57.7805861,37.146096 C58.3023833,36.635226 58.0568393,35.7351521 57.3464924,35.545455 L50.5868102,33.7404659 L50.5868102,21.2963865 C50.5868102,20.7676807 50.1489429,20.3389831 49.6089282,20.3389831 L16.2321192,20.3389831 C15.6921046,20.3389831 15.2542373,20.7676807 15.2542373,21.2963865 L15.2542373,41.7201022 C15.2542373,42.2488081 15.6921046,42.6775057 16.2321192,42.6775057 L42.7862661,42.6775057 L44.3452818,48.2743985 C44.5390365,48.9699971 45.4583626,49.2102716 45.9801599,48.699529 L49.7139383,45.0439421 L56.3977582,51.5877917 C56.7744672,51.9566118 57.403877,51.9566118 57.7805861,51.5877917 L60.7306275,48.699529 C61.1124114,48.3256129 61.1124114,47.7194485 60.7304974,47.3456598 Z M17.2098711,40.7628262 L17.2098711,22.25379 L48.6311764,22.25379 L48.6311764,33.2182574 L41.1206787,31.2128698 C40.4042159,31.0215165 39.7245782,31.6869215 39.9200245,32.3883804 L42.2527576,40.7626988 L17.2098711,40.7628262 Z M57.0892372,49.5570517 L50.4054173,43.0132021 C50.0287083,42.6442546 49.3992985,42.644382 49.0225894,43.0132021 L45.7887475,46.1791946 L42.2571818,33.5012106 L55.2063427,36.9588195 L51.9726309,40.1249394 C51.5907169,40.4988554 51.5907169,41.1050199 51.9726309,41.4788085 L58.6564508,48.0226581 L57.0892372,49.5570517 Z" id="Shape"></path>
                        <path d="M36.6682426,16.2711864 L16.2131133,16.2711864 C15.6835943,16.2711864 15.2542373,16.7265469 15.2542373,17.2881356 C15.2542373,17.8497243 15.6835943,18.3050847 16.2131133,18.3050847 L36.6682426,18.3050847 C37.1977616,18.3050847 37.6271186,17.8497243 37.6271186,17.2881356 C37.6271186,16.7265469 37.1977616,16.2711864 36.6682426,16.2711864 Z" id="Shape"></path>
                        <path d="M50.9008227,16.2711864 L40.6244728,16.2711864 C40.0924247,16.2711864 39.6610169,16.7265469 39.6610169,17.2881356 C39.6610169,17.8497243 40.0924247,18.3050847 40.6244728,18.3050847 L50.9009509,18.3050847 C51.4329991,18.3050847 51.8644068,17.8497243 51.8644068,17.2881356 C51.8644068,16.7265469 51.4328709,16.2711864 50.9008227,16.2711864 Z" id="Shape"></path>
                    </g>
                </g>
            </g>
        </g>
    </g>
</svg>