<?xml version="1.0" encoding="UTF-8"?>
<svg width="46px" height="62px" viewBox="0 0 46 62" version="1.1" xmlns="http://www.w3.org/2000/svg" xmlns:xlink="http://www.w3.org/1999/xlink">
    <!-- Generator: Sketch 48.1 (47250) - http://www.bohemiancoding.com/sketch -->
    <title>Group 31</title>
    <desc>Created with Sketch.</desc>
    <defs></defs>
    <g id="02-.-tinh-nang" stroke="none" stroke-width="1" fill="none" fill-rule="evenodd" transform="translate(-1217.000000, -3960.000000)">
        <g id="Group-28" transform="translate(1176.000000, 3911.000000)">
            <g id="Group-31" transform="translate(41.000000, 50.000000)">
                <g id="002-smartphone" transform="translate(7.000000, 0.000000)">
                    <path d="M29.4508363,60 L3.50691021,60 C1.57064261,60 0,58.4224138 0,56.4775862 L0,3.52241379 C0,1.57758621 1.57064261,0 3.50691021,0 L29.4498063,0 C31.3871039,0 32.9577465,1.57758621 32.9577465,3.52241379 L32.9577465,56.4765517 C32.9577465,58.4224138 31.3871039,60 29.4508363,60 Z" id="Shape" stroke="#FF4669" stroke-width="2" fill-rule="nonzero"></path>
                    <rect id="Rectangle-path" stroke="#FF4669" stroke-width="2" fill-rule="nonzero" x="0" y="5.91549296" width="32.9577465" height="41.4084507"></rect>
                    <circle id="Oval" fill="#FF4669" fill-rule="nonzero" cx="16.4788732" cy="53.6619718" r="2.95774648"></circle>
                    <path d="M15.915493,3.38028169 L11.971831,3.38028169 C11.4266197,3.38028169 10.9859155,3.00253521 10.9859155,2.53521127 C10.9859155,2.06788732 11.4266197,1.69014085 11.971831,1.69014085 L15.915493,1.69014085 C16.4607042,1.69014085 16.9014085,2.06788732 16.9014085,2.53521127 C16.9014085,3.00253521 16.4607042,3.38028169 15.915493,3.38028169 Z" id="Shape" fill="#FF4669" fill-rule="nonzero"></path>
                    <path d="M20.8450704,3.38028169 L19.7183099,3.38028169 C19.0952113,3.38028169 18.5915493,3.00253521 18.5915493,2.53521127 C18.5915493,2.06788732 19.0952113,1.69014085 19.7183099,1.69014085 L20.8450704,1.69014085 C21.468169,1.69014085 21.971831,2.06788732 21.971831,2.53521127 C21.971831,3.00253521 21.468169,3.38028169 20.8450704,3.38028169 Z" id="Shape" fill="#FF4669" fill-rule="nonzero"></path>
                    <g id="Group" transform="translate(0.436620, 22.591549)"></g>
                </g>
                <g id="Group-22" transform="translate(0.000000, 33.000000)" fill-rule="nonzero">
                    <polygon id="Shape" fill="#FF4669" points="46 0 0 0 0 21 5.11111111 21 11.3445605 21 15.3333333 21 46 21"></polygon>
                    <path d="M9.08333333,9 L19.9166667,9 C20.5146667,9 21,8.553 21,8 C21,7.447 20.5146667,7 19.9166667,7 L9.08333333,7 C8.48533333,7 8,7.447 8,8 C8,8.553 8.48533333,9 9.08333333,9 Z" id="Shape" fill="#FFFFFF"></path>
                    <path d="M35.8846154,12 L9.11538462,12 C8.49969231,12 8,12.447 8,13 C8,13.553 8.49969231,14 9.11538462,14 L35.8846154,14 C36.5003077,14 37,13.553 37,13 C37,12.447 36.5003077,12 35.8846154,12 Z" id="Shape" fill="#FFFFFF"></path>
                </g>
            </g>
        </g>
    </g>
</svg>