<?xml version="1.0" encoding="UTF-8"?>
<svg width="57px" height="60px" viewBox="0 0 57 60" version="1.1" xmlns="http://www.w3.org/2000/svg" xmlns:xlink="http://www.w3.org/1999/xlink">
    <!-- Generator: Sketch 48.1 (47250) - http://www.bohemiancoding.com/sketch -->
    <title>259470</title>
    <desc>Created with Sketch.</desc>
    <defs></defs>
    <g id="01-.-home" stroke="none" stroke-width="1" fill="none" fill-rule="evenodd" transform="translate(-434.000000, -1960.000000)">
        <g id="Tính-năng-nổi-bật" transform="translate(374.000000, 1815.000000)" fill="#FF4669" fill-rule="nonzero">
            <g id="#3" transform="translate(0.000000, 85.000000)">
                <g id="#1">
                    <g id="Testimonial-left-Copy-6" transform="translate(60.000000, 60.000000)">
                        <g id="259470">
                            <path d="M14.0610108,34.8380289 C13.406873,33.9633115 12.4828231,33.4615385 11.5262512,33.4615385 L9.24280593,33.4615385 C8.28603933,33.4615385 7.36208674,33.9631895 6.70804631,34.8380289 C6.05381115,35.7128682 5.71427877,36.9006295 5.77649879,38.0970526 L5.87795928,40.0468061 L5.87795928,40.0469281 L6.11496008,44.5997284 C6.21048095,46.4357809 7.03579681,48.0612668 8.32255343,48.9480619 C8.96812258,49.3928624 9.6763986,49.6153846 10.3845773,49.6153846 C11.0927559,49.6153846 11.8010319,49.3928624 12.4466011,48.9480619 C13.7333577,48.0612668 14.5587709,46.4357809 14.6541944,44.5997284 L14.9249829,39.3969289 L14.9927531,38.0969306 C15.0548757,36.9006295 14.7153434,35.7128682 14.0610108,34.8380289 Z M7.75838636,37.9351627 C7.73141461,37.4153342 7.87299192,36.919539 8.15731499,36.5396408 C8.44144331,36.1594987 8.82693476,35.9502741 9.24280593,35.9502741 L10.8106724,35.9502741 L10.5318994,36.881598 C10.3896405,37.1351074 9.69402274,38.1906241 7.79266092,38.5901638 L7.75838636,37.9351627 Z M12.6721121,44.4377165 C12.6209924,45.4213771 12.1787337,46.2924346 11.4892503,46.7674903 C10.7975273,47.244132 9.97152984,47.244132 9.27980687,46.7674903 C8.59042081,46.2924346 8.14806475,45.4213771 8.09694502,44.4377165 L7.9222616,41.0814614 C9.54192937,40.7833011 10.6096014,40.088407 11.2848687,39.431576 C11.4049271,39.5360053 11.5371568,39.6349448 11.681071,39.7280284 C11.961986,39.9099257 12.3607199,40.089627 12.8888598,40.2718903 L12.6721121,44.4377165 Z M12.5929496,37.5172016 C12.550788,37.4899963 12.5161239,37.4651089 12.4852573,37.4419295 L12.7108657,36.688111 C12.8939231,36.9884672 12.9982073,37.344942 13.0121313,37.7219123 C12.7740595,37.6243148 12.6504958,37.5546546 12.5929496,37.5172016 Z" id="Shape"></path>
                            <path d="M25.3652872,58.5743815 L24.9048236,56.0309053 C24.3321502,52.868704 21.8273562,50.3449226 18.6723146,49.750638 C18.1960752,49.660825 17.7088046,49.6153846 17.2244993,49.6153846 L15.8371777,49.6153846 C15.516324,49.6153846 15.2087552,49.7429262 14.981726,49.9697723 L12.6925742,52.2594704 L10.4034224,49.9697723 C10.1765118,49.7429262 9.86882441,49.6153846 9.54797071,49.6153846 L8.1605305,49.6153846 C7.67610665,49.6153846 7.18895465,49.660825 6.71271524,49.750638 C3.55755499,50.3449226 1.05299827,52.868704 0.480324818,56.0307866 L0.0193867453,58.5743815 C-0.0445467651,58.9273454 0.051412808,59.2903941 0.281170154,59.5656467 C0.511046116,59.8408993 0.851234071,60 1.20980736,60 L24.174748,60 C24.5333213,60 24.8733906,59.8408993 25.1033852,59.5656467 C25.3331426,59.2903941 25.4291021,58.9272268 25.3652872,58.5743815 Z M2.65869016,57.5801502 L2.86116604,56.4622925 C3.25639138,54.2804412 4.98413816,52.5389941 7.16048704,52.1290813 C7.48952518,52.0671495 7.82603607,52.035709 8.16064912,52.035709 L9.04682214,52.035709 L11.8370039,54.8265566 C12.3095662,55.2989944 13.075345,55.2989944 13.5480259,54.8265566 L16.3382077,52.035709 L17.2243807,52.035709 C17.5589938,52.035709 17.895386,52.0671495 18.2245428,52.1290813 C20.4008917,52.5389941 22.1287571,54.2804412 22.5239824,56.4624111 L22.7263397,57.5801502 L2.65869016,57.5801502 Z" id="Shape"></path>
                            <path d="M47.5225681,34.8380289 C46.8684289,33.9633115 45.9443768,33.4615385 44.9878028,33.4615385 L42.7044497,33.4615385 C41.7476809,33.4616605 40.8237262,33.9634335 40.1695869,34.8381509 C39.5153503,35.7129902 39.1758171,36.9007515 39.2380373,38.0971746 L39.339498,40.0468061 L39.339498,40.0469281 L39.5764993,44.5997284 C39.6720204,46.4357809 40.4973382,48.0612668 41.7840977,48.9480619 C42.4296683,49.3928624 43.137946,49.6153846 43.8461262,49.6153846 C44.5543065,49.6153846 45.2625841,49.3928624 45.9081547,48.9480619 C47.1949143,48.0612668 48.0203294,46.4357809 48.1157531,44.5997284 L48.3865422,39.3969289 L48.4543125,38.0969306 C48.5163379,36.9006295 48.1768048,35.7128682 47.5225681,34.8380289 Z M41.2199293,37.9352847 C41.1929575,37.4154562 41.3345352,36.919661 41.6188589,36.5397628 C41.9029878,36.1596207 42.2884802,35.9503961 42.7043523,35.9503961 L44.2721249,35.9503961 L43.9933514,36.88172 C43.8510921,37.1352294 43.1554728,38.1907461 41.2541066,38.5902858 L41.2199293,37.9352847 Z M46.1336663,44.4378385 C46.0824491,45.4214991 45.6401894,46.2925566 44.9508017,46.7676123 C44.2590772,47.2442539 43.4330779,47.2442539 42.7413533,46.7676123 C42.0519657,46.2925566 41.6096086,45.4214991 41.5584888,44.4378385 L41.383805,41.0815834 C43.0034764,40.7834231 44.0712483,40.088529 44.7465171,39.431698 C44.8665757,39.5361273 44.9988057,39.6350668 45.1427202,39.7281504 C45.423636,39.9100477 45.8223708,40.089749 46.3505118,40.2720123 L46.1336663,44.4378385 Z M46.0545035,37.5173236 C46.0123418,37.4901183 45.9776777,37.4652309 45.9469084,37.4420515 L46.1725174,36.688233 C46.3553804,36.9885892 46.4597622,37.345064 46.4736863,37.7220343 C46.2357112,37.6244368 46.1121473,37.5547766 46.0545035,37.5173236 Z" id="Shape"></path>
                            <path d="M56.5191228,58.5743978 L56.0583057,56.030832 C55.4857538,52.8686668 52.9809726,50.3449143 49.825947,49.7506365 C49.34971,49.6608245 48.8624419,49.6153846 48.3781391,49.6153846 L46.9908246,49.6153846 C46.6699725,49.6153846 46.3624053,49.7429248 46.1353772,49.9697683 L43.8462371,52.2594402 L41.557097,49.9697683 C41.3301875,49.7429248 41.0225017,49.6153846 40.7016496,49.6153846 L39.3142165,49.6153846 C38.8297951,49.6153846 38.3426456,49.6609431 37.8664086,49.7506365 C34.711383,50.3449143 32.2067204,52.8686668 31.6340499,56.0307133 L31.1732328,58.5742791 C31.1092996,58.9272391 31.2052587,59.2902836 31.4350149,59.565533 C31.6648897,59.8407824 32.0050759,60 32.3636473,60 L55.328471,60 C55.6870425,60 56.0271101,59.8409011 56.2571035,59.565533 C56.4870969,59.2905209 56.5829374,58.9273577 56.5191228,58.5743978 Z M33.8124042,57.5800592 L34.014879,56.4623329 C34.4101023,54.2805066 36.1378403,52.5390794 38.3141781,52.1291713 C38.6432146,52.0672401 38.9797237,52.0358 39.3143351,52.0358 L40.2005036,52.0358 L42.9906711,54.8266157 C43.4632311,55.2990481 44.2290059,55.2990481 44.7016845,54.8266157 L47.491852,52.0358 L48.3780205,52.0358 C48.7126319,52.0358 49.0490224,52.0672401 49.3781775,52.1291713 C51.5545153,52.5390794 53.2822533,54.2805066 53.6774766,56.4623329 L53.8799514,57.5800592 L33.8124042,57.5800592 Z" id="Shape"></path>
                            <path d="M33.6763954,1.37650079 C33.0222576,0.501654813 32.098305,0 31.1415385,0 L28.8581905,0 C27.9014239,0 26.9774714,0.501654813 26.3234309,1.37650079 C25.6691958,2.25134677 25.3296634,3.43911702 25.3918834,4.6355491 L25.4933439,6.5851954 L25.7303447,11.138274 C25.8258656,12.9743404 26.6511814,14.5998386 27.937938,15.4866404 C28.5835072,15.9314442 29.2917832,16.1538462 29.9999619,16.1538462 C30.7081405,16.1538462 31.4163192,15.9314442 32.0619857,15.4866404 C33.3487423,14.5998386 34.1741555,12.9743404 34.269579,11.138274 L34.5403676,5.9354353 L34.6081377,4.63542711 C34.6702603,3.43923901 34.330728,2.25134677 33.6763954,1.37650079 Z M27.373771,4.47353607 C27.3467992,3.95370359 27.4883765,3.45802667 27.7726022,3.07800363 C28.0568279,2.69785859 28.4423194,2.48863242 28.8581905,2.48863242 L30.4259596,2.48863242 L30.1471867,3.41996337 C30.0049278,3.67347472 29.30931,4.72899939 27.4079482,5.12854207 L27.373771,4.47353607 Z M32.2874967,10.976261 C32.236377,11.959929 31.7940209,12.830993 31.1046349,13.3060523 C30.4128145,13.7826976 29.5870118,13.7826976 28.8951915,13.3060523 C28.2058054,12.830993 27.7634494,11.959929 27.7123296,10.976261 L27.5376462,7.61998045 C29.157314,7.32181791 30.2249861,6.62691863 30.9003507,5.97008266 C31.0205064,6.07451275 31.1526387,6.17345294 31.2966503,6.26653723 C31.5776628,6.4484359 31.9763967,6.62813861 32.5043418,6.81040327 L32.2874967,10.976261 Z M32.2083342,4.05557173 C32.1661726,4.02836622 32.1315085,4.00347868 32.100642,3.9802991 L32.3262504,3.22635291 C32.5092103,3.52683341 32.6135919,3.88331088 32.627516,4.26028398 C32.3894441,4.16268576 32.2659778,4.09290304 32.2083342,4.05557173 Z" id="Shape"></path>
                            <path d="M44.9806709,25.271183 L44.51997,23.0102873 C43.9472966,20.1995381 41.4425028,17.9562537 38.2874612,17.4281244 C37.8112219,17.3482933 37.3239513,17.3079032 36.839646,17.3079032 L35.4522059,17.3079032 C35.1313522,17.3079032 34.8237834,17.4212697 34.5967542,17.6229037 L32.3077211,19.6579102 L30.0185694,17.6226928 C29.7916588,17.4210587 29.4839714,17.3076923 29.1631177,17.3076923 L27.7757962,17.3076923 C27.2913724,17.3076923 26.8042204,17.3480824 26.327981,17.4279135 C23.1728208,17.9561483 20.6682642,20.1994326 20.0955908,23.0100764 L19.6347714,25.2709721 C19.5708379,25.5847071 19.6667974,25.907406 19.8965548,26.1520666 C20.1266679,26.3969381 20.4667373,26.5384615 20.8253105,26.5384615 L43.7902503,26.5384615 C44.1488236,26.5384615 44.4888929,26.3970435 44.7188875,26.1523829 C44.9485262,25.9076169 45.0444858,25.5848126 44.9806709,25.271183 Z M22.2739561,24.3873467 L22.4763133,23.3936241 C22.8715386,21.4542672 24.5992853,19.9063672 26.7756341,19.5420128 C27.1046723,19.4869642 27.4411832,19.459018 27.7757962,19.459018 L28.6620878,19.459018 L31.4521508,21.9396864 C31.9247131,22.3597222 32.6904919,22.3597222 33.1631728,21.9396864 L35.9532358,19.459018 L36.8395274,19.459018 C37.1741405,19.459018 37.5106513,19.4869642 37.8396895,19.5420128 C40.0160383,19.9064727 41.7439036,21.4542672 42.1391289,23.3937295 L42.3414862,24.3873467 L22.2739561,24.3873467 Z" id="Shape"></path>
                            <path d="M31.1538462,27.6923077 C30.5166796,27.6923077 30,28.1412223 30,28.6950409 L30,28.9972668 C30,29.5510854 30.5166796,30 31.1538462,30 C31.7910127,30 32.3076923,29.5510854 32.3076923,28.9972668 L32.3076923,28.6950409 C32.3076923,28.1412223 31.7910127,27.6923077 31.1538462,27.6923077 Z" id="Shape"></path>
                            <path d="M38.6555331,40.5577405 L31.7269082,36.5786436 L31.7269082,32.2977328 C31.7269082,31.6659538 31.211952,31.1538462 30.5769108,31.1538462 C29.9418695,31.1538462 29.4269133,31.6659538 29.4269133,32.2977328 L29.4269133,36.5785314 L22.4982885,40.5576284 C21.9482652,40.8734618 21.7597373,41.5730955 22.0773707,42.1201961 C22.2904794,42.487173 22.6768938,42.6923077 23.0744712,42.6923077 C23.2695389,42.6923077 23.4673127,42.6428466 23.648286,42.5388773 L30.5769108,38.5597803 L37.5055356,42.5388773 C37.6866216,42.6428466 37.8843954,42.6923077 38.0793504,42.6923077 C38.476815,42.6923077 38.8633422,42.487173 39.0764509,42.1201961 C39.3940842,41.5730955 39.2056691,40.8735739 38.6555331,40.5577405 Z" id="Shape"></path>
                        </g>
                    </g>
                </g>
            </g>
        </g>
    </g>
</svg>