<?xml version="1.0" encoding="UTF-8"?>
<svg width="64px" height="62px" viewBox="0 0 64 62" version="1.1" xmlns="http://www.w3.org/2000/svg" xmlns:xlink="http://www.w3.org/1999/xlink">
    <!-- Generator: Sketch 48.1 (47250) - http://www.bohemiancoding.com/sketch -->
    <title>003-user</title>
    <desc>Created with Sketch.</desc>
    <defs></defs>
    <g id="02-.-tinh-nang" stroke="none" stroke-width="1" fill="none" fill-rule="evenodd" transform="translate(-832.000000, -4950.000000)">
        <g id="#3-copy" transform="translate(776.000000, 4901.000000)" fill="#FF4669" fill-rule="nonzero" stroke="#FF4669" stroke-width="0.5">
            <g id="#1">
                <g id="003-user" transform="translate(57.000000, 50.000000)">
                    <path d="M53.9782759,40.862069 L48.1893103,49.1793103 L44.1041379,45.8265517 C43.6634483,45.4624138 43.0106897,45.5296552 42.6486207,45.9693103 C42.2855172,46.4110345 42.3496552,47.0637931 42.7924138,47.4248276 L47.7434483,51.4893103 C47.9286207,51.6424138 48.1613793,51.7241379 48.3993103,51.7241379 C48.4458621,51.7241379 48.4934483,51.7210345 48.5410345,51.7137931 C48.8265517,51.6744828 49.0831034,51.5172414 49.2486207,51.2803448 L55.6768966,42.0434483 C56.0027586,41.5748276 55.887931,40.9303448 55.4182759,40.6034483 C54.9486207,40.2755172 54.3051724,40.3924138 53.9782759,40.862069 Z" id="Shape"></path>
                    <path d="M56.0317241,35.3410345 C56.5955172,33.0806897 56.8965517,30.7675862 56.8965517,28.4482759 C56.8965517,12.7624138 44.1351724,0 28.4482759,0 C12.7613793,0 0,12.7624138 0,28.4482759 C0,36.7344828 3.56275862,44.2024138 9.23482759,49.4058621 L9.20793103,49.4296552 L10.1296552,50.2065517 C10.1875862,50.2551724 10.2506897,50.2955172 10.3086207,50.3441379 C10.802069,50.7537931 11.3141379,51.1427586 11.8355172,51.5193103 C12,51.6382759 12.1644828,51.7572414 12.3310345,51.872069 C12.8844828,52.2537931 13.4534483,52.6158621 14.0337931,52.9593103 C14.16,53.0327586 14.2862069,53.1051724 14.4124138,53.1775862 C15.0465517,53.5386207 15.6941379,53.8789655 16.3582759,54.1924138 C16.4068966,54.2151724 16.4555172,54.2358621 16.5041379,54.2586207 C18.6651724,55.2631034 20.972069,56.0006897 23.3834483,56.4362069 C23.4475862,56.4475862 23.5106897,56.4589655 23.5748276,56.4703448 C24.3227586,56.5996552 25.08,56.7031034 25.8475862,56.7724138 C25.9406897,56.7806897 26.0348276,56.7858621 26.127931,56.7941379 C26.8944828,56.8562069 27.6662069,56.8965517 28.4482759,56.8965517 C31.8227586,56.8965517 35.1248276,56.2996552 38.2789655,55.1358621 C40.7472414,58.1048276 44.4662069,60 48.6206897,60 C56.0358621,60 62.0689655,53.9668966 62.0689655,46.5517241 C62.0689655,41.8737931 59.6658621,37.7503448 56.0317241,35.3410345 Z M2.06896552,28.4482759 C2.06896552,13.9024138 13.9024138,2.06896552 28.4482759,2.06896552 C42.9941379,2.06896552 54.8275862,13.9024138 54.8275862,28.4482759 C54.8275862,30.4168966 54.6062069,32.3834483 54.1665517,34.3096552 C54.1489655,34.3013793 54.1293103,34.2962069 54.1117241,34.287931 C53.7227586,34.1131034 53.3234483,33.9568966 52.9158621,33.8193103 C52.8806897,33.807931 52.8465517,33.7924138 52.8113793,33.7810345 C52.3862069,33.6413793 51.9527586,33.5213793 51.51,33.4241379 C51.4893103,33.4189655 51.4686207,33.4127586 51.447931,33.4075862 C51.0165517,33.3144828 50.577931,33.2441379 50.1331034,33.1934483 C50.102069,33.1893103 50.0710345,33.1831034 50.04,33.1789655 C49.5734483,33.1313793 49.1006897,33.1034483 48.6206897,33.1034483 C42.4934483,33.1034483 37.3210345,37.2268966 35.7051724,42.8410345 C35.252069,42.4137931 34.9841379,41.8189655 34.9841379,41.1724138 L34.9841379,38.1134483 C35.1889655,37.862069 35.4031034,37.5775862 35.6224138,37.2682759 C36.7562069,35.667931 37.6655172,33.8865517 38.3286207,31.9686207 C39.6382759,31.3458621 40.4855172,30.0403448 40.4855172,28.5662069 L40.4855172,24.8989655 C40.4855172,24.0031034 40.1565517,23.132069 39.5689655,22.4482759 L39.5689655,17.6203448 C39.6227586,17.0824138 39.8131034,14.0534483 37.6210345,11.5541379 C35.7144828,9.37758621 32.6286207,8.27586207 28.4482759,8.27586207 C24.267931,8.27586207 21.182069,9.37758621 19.2755172,11.5531034 C17.0834483,14.0524138 17.2737931,17.0834483 17.3275862,17.6193103 L17.3275862,22.4472414 C16.74,23.1310345 16.4110345,24.002069 16.4110345,24.897931 L16.4110345,28.5651724 C16.4110345,29.7041379 16.922069,30.7665517 17.7962069,31.4834483 C18.6341379,34.7658621 20.3575862,37.2506897 20.9948276,38.0927586 L20.9948276,41.0865517 C20.9948276,41.9306897 20.5344828,42.7065517 19.7927586,43.112069 L11.6131034,47.5737931 C11.3513793,47.7165517 11.0937931,47.882069 10.8351724,48.0672414 C5.45793103,43.2331034 2.06896552,36.2296552 2.06896552,28.4482759 Z M26.487931,54.7468966 C26.3751724,54.7386207 26.2624138,54.7313793 26.1506897,54.7210345 C25.4948276,54.6631034 24.8410345,54.5855172 24.1924138,54.4789655 C24.1655172,54.4748276 24.1386207,54.4686207 24.1127586,54.4644828 C22.74,54.2348276 21.39,53.8975862 20.0751724,53.4568966 C20.04,53.4455172 20.0048276,53.4331034 19.9696552,53.4206897 C18.69,52.9862069 17.4455172,52.4493103 16.2444828,51.8234483 C16.1751724,51.7872414 16.1048276,51.7531034 16.0365517,51.7168966 C15.5037931,51.4324138 14.9824138,51.1241379 14.4693103,50.8034483 C14.3213793,50.7103448 14.1755172,50.6162069 14.0296552,50.5210345 C13.557931,50.2127586 13.0934483,49.892069 12.6403448,49.5527586 C12.5937931,49.5175862 12.5493103,49.4803448 12.5027586,49.4451724 C12.5358621,49.4265517 12.5689655,49.407931 12.6031034,49.3893103 L20.7827586,44.9275862 C22.1886207,44.16 23.0627586,42.687931 23.0627586,41.0855172 L23.0627586,37.3582759 L22.8217241,37.0706897 C22.8,37.0448276 20.5706897,34.3458621 19.7193103,30.6413793 L19.6251724,30.2317241 L19.2724138,30.0031034 C18.7748276,29.6813793 18.4768966,29.1434483 18.4768966,28.5631034 L18.4768966,24.8958621 C18.4768966,24.4148276 18.6817241,23.9668966 19.0531034,23.6306897 L19.3944828,23.3224138 L19.3944828,17.5603448 L19.3851724,17.4248276 C19.382069,17.4 19.0768966,14.912069 20.8293103,12.9144828 C22.3272414,11.2106897 24.8896552,10.3448276 28.4482759,10.3448276 C31.9913793,10.3448276 34.5486207,11.2034483 36.0475862,12.8958621 C37.797931,14.8727586 37.5113793,17.4072414 37.5093103,17.427931 L37.5,23.3255172 L37.8413793,23.6337931 C38.2127586,23.9689655 38.4175862,24.417931 38.4175862,24.8989655 L38.4175862,28.5662069 C38.4175862,29.3151724 37.9262069,29.9689655 37.1958621,30.1944828 L36.6806897,30.3537931 L36.5151724,30.8668966 C35.9058621,32.7631034 35.0368966,34.5134483 33.9331034,36.0724138 C33.6651724,36.452069 33.4013793,36.7913793 33.1717241,37.0531034 L32.9151724,37.3458621 L32.9151724,41.1724138 C32.9151724,42.8141379 33.8131034,44.2913793 35.2613793,45.0475862 C35.2065517,45.542069 35.1724138,46.0427586 35.1724138,46.5517241 C35.1724138,46.8537931 35.1827586,47.1548276 35.2024138,47.4548276 C35.2096552,47.5613793 35.2241379,47.6668966 35.2344828,47.7724138 C35.2437931,47.8717241 35.2531034,47.97 35.2644828,48.0693103 C35.2748276,48.1624138 35.28,48.2565517 35.2924138,48.3486207 C35.3162069,48.5244828 35.3503448,48.6982759 35.3813793,48.8731034 C35.402069,48.992069 35.4175862,49.112069 35.4413793,49.23 C35.4413793,49.23 35.4434483,49.2382759 35.4444828,49.2424138 C35.4506897,49.2734483 35.46,49.3024138 35.4662069,49.3334483 C35.4982759,49.4844828 35.5365517,49.6344828 35.5737931,49.7844828 C35.5996552,49.8889655 35.6203448,49.9934483 35.6482759,50.0968966 C35.6731034,50.187931 35.7051724,50.2758621 35.732069,50.3658621 C35.7672414,50.4858621 35.8044828,50.6048276 35.8437931,50.7227586 C35.8686207,50.7972414 35.8872414,50.8727586 35.9131034,50.9462069 C35.9855172,51.1541379 36.0682759,51.3589655 36.1510345,51.5627586 C36.152069,51.5658621 36.1531034,51.567931 36.1541379,51.5710345 C36.2172414,51.7262069 36.2834483,51.8782759 36.3517241,52.0303448 C36.4024138,52.1431034 36.4551724,52.2558621 36.5089655,52.3675862 C36.5441379,52.4410345 36.5751724,52.5155172 36.6113793,52.587931 C36.6351724,52.6355172 36.6631034,52.6810345 36.687931,52.7286207 C36.7748276,52.8972414 36.8668966,53.0617241 36.9610345,53.2251724 C36.9889655,53.2737931 37.0137931,53.3244828 37.0417241,53.3731034 C34.2610345,54.3382759 31.3758621,54.8275862 28.4482759,54.8275862 C27.7924138,54.8275862 27.1386207,54.7955172 26.487931,54.7468966 Z M48.6206897,57.9310345 C44.8334483,57.9310345 41.4817241,56.0637931 39.4117241,53.2096552 C39.3258621,53.0917241 39.2482759,52.9706897 39.1675862,52.8506897 C39.1117241,52.767931 39.0527586,52.6872414 39,52.6034483 C38.9555172,52.532069 38.912069,52.4606897 38.8686207,52.3882759 C38.822069,52.3117241 38.7806897,52.2331034 38.7362069,52.1555172 C38.6648276,52.0293103 38.5882759,51.9062069 38.522069,51.777931 C38.4734483,51.6837931 38.43,51.5865517 38.3834483,51.4903448 C38.3710345,51.4644828 38.3596552,51.4375862 38.3472414,51.4117241 C38.2696552,51.2493103 38.1889655,51.0889655 38.1186207,50.9234483 C38.0813793,50.8355172 38.0534483,50.7444828 38.0182759,50.6565517 C37.9386207,50.4506897 37.857931,50.2448276 37.7896552,50.0337931 C37.7575862,49.9355172 37.7327586,49.8341379 37.7037931,49.7348276 C37.6944828,49.7037931 37.6862069,49.6737931 37.677931,49.6437931 C37.62,49.437931 37.5641379,49.2310345 37.5175862,49.02 C37.5031034,48.9548276 37.4917241,48.8886207 37.4782759,48.8224138 C37.4658621,48.7603448 37.4524138,48.6972414 37.4410345,48.6351724 C37.3986207,48.4055172 37.3634483,48.1737931 37.3344828,47.94 C37.3313793,47.9131034 37.3282759,47.8862069 37.3251724,47.8582759 C37.3158621,47.7734483 37.3024138,47.6886207 37.2951724,47.6037931 C37.2631034,47.2562069 37.2413793,46.9065517 37.2413793,46.5517241 C37.2413793,46.2258621 37.2631034,45.9041379 37.29,45.5855172 C37.3189655,45.2803448 37.3593103,44.9658621 37.4162069,44.6348276 L37.4927586,44.1868966 C38.5841379,39.0434483 43.1575862,35.1724138 48.6206897,35.1724138 C49.082069,35.1724138 49.5413793,35.2075862 49.9986207,35.2644828 C50.1031034,35.2768966 50.2044828,35.2965517 50.307931,35.312069 C50.6855172,35.3689655 51.0610345,35.4434483 51.4313793,35.5386207 C51.5089655,35.5582759 51.5865517,35.5768966 51.6641379,35.5986207 C52.5765517,35.8541379 53.4589655,36.2203448 54.2886207,36.6982759 C57.6962069,38.6658621 60,42.3413793 60,46.5517241 C60,52.8258621 54.8948276,57.9310345 48.6206897,57.9310345 Z" id="Shape"></path>
                </g>
            </g>
        </g>
    </g>
</svg>