<svg xmlns="http://www.w3.org/2000/svg" width="16" height="16" viewBox="0 0 16 16">
    <path fill="#FFF" fill-rule="nonzero" d="M14.5 0h-10A1.5 1.5 0 0 0 3 1.5V3H1.5A1.5 1.5 0 0 0 0 4.5v10A1.5 1.5 0 0 0 1.5 16h10a1.5 1.5 0 0 0 1.5-1.5V13h1.5a1.5 1.5 0 0 0 1.5-1.5v-10A1.5 1.5 0 0 0 14.5 0zm-3.188 14.5H1.688a.187.187 0 0 1-.188-.188V4.688c0-.104.084-.188.188-.188H3v7A1.5 1.5 0 0 0 4.5 13h7v1.313a.187.187 0 0 1-.188.187zm3-3H4.688a.187.187 0 0 1-.188-.188V1.688c0-.104.084-.188.188-.188h9.625c.103 0 .187.084.187.188v9.624a.187.187 0 0 1-.188.188z"/>
</svg>
