<svg xmlns="http://www.w3.org/2000/svg" width="20" height="20" viewBox="0 0 20 20">
    <path fill="#FF4669" fill-rule="nonzero" d="M18.773 17.425a.951.951 0 1 1-1.347 1.347l-2.724-2.724a13.035 13.035 0 0 0 1.754-.939l2.317 2.316zM2.595 15.106c.56.357 1.145.672 1.754.94l-2.723 2.722a.951.951 0 1 1-1.347-1.347l2.316-2.315zM.283 1.63A.951.951 0 1 1 1.63.282l3.015 3.016a13 13 0 0 0-1.787.906L.283 1.63zm15.91 2.572a13.06 13.06 0 0 0-1.788-.905L17.422.279a.953.953 0 0 1 1.347 1.346l-2.576 2.576zm-4.76 5.537a1.905 1.905 0 1 1-3.811-.002 1.905 1.905 0 0 1 3.81.002zm-1.905 3.599a9.134 9.134 0 0 1-7.24-3.6 9.132 9.132 0 0 1 7.24-3.6 9.132 9.132 0 0 1 7.239 3.6 9.134 9.134 0 0 1-7.24 3.6zm9.524-3.6C17.147 6.45 13.6 4.234 9.528 4.234c-4.073 0-7.62 2.217-9.524 5.505 1.904 3.286 5.451 5.503 9.524 5.503 4.072 0 7.619-2.217 9.524-5.503z"/>
</svg>
