<?xml version="1.0" encoding="UTF-8"?>
<svg width="58px" height="60px" viewBox="0 0 58 60" version="1.1" xmlns="http://www.w3.org/2000/svg" xmlns:xlink="http://www.w3.org/1999/xlink">
    <!-- Generator: Sketch 48.1 (47250) - http://www.bohemiancoding.com/sketch -->
    <title>478544</title>
    <desc>Created with Sketch.</desc>
    <defs></defs>
    <g id="01-.-home" stroke="none" stroke-width="1" fill="none" fill-rule="evenodd" transform="translate(-1234.000000, -1960.000000)">
        <g id="Tính-năng-nổi-bật" transform="translate(374.000000, 1815.000000)" fill="#FF4669" fill-rule="nonzero">
            <g id="#2" transform="translate(800.000000, 85.000000)">
                <g id="478544" transform="translate(60.000000, 60.000000)">
                    <path d="M55.964163,57.6538874 L53.3789331,57.6538874 L53.3789331,20.2962671 C53.3789331,18.5574457 51.9574279,17.1428571 50.2103674,17.1428571 L44.4319372,17.1428571 C42.6847588,17.1428571 41.2633715,18.557563 41.2633715,20.2962671 L41.2633715,57.6538874 L34.698988,57.6538874 L34.698988,37.2221792 C34.698988,35.4833579 33.2776007,34.0687693 31.5304224,34.0687693 L25.7519921,34.0687693 C24.0048138,34.0687693 22.5834265,35.4834752 22.5834265,37.2221792 L22.5834265,57.6538874 L16.019043,57.6538874 L16.019043,47.0724503 C16.019043,45.3336289 14.5975378,43.9190403 12.8504773,43.9190403 L7.07192922,43.9190403 C5.32475087,43.9190403 3.90336358,45.3337462 3.90336358,47.0724503 L3.90336358,57.6538874 L1.17869416,57.6538874 C0.527701375,57.6538874 0,58.1790647 0,58.8269437 C0,59.4748227 0.527701375,60 1.17869416,60 L55.964163,60 C56.6151558,60 57.1428571,59.4748227 57.1428571,58.8269437 C57.1428571,58.1790647 56.6151558,57.6538874 55.964163,57.6538874 Z M13.6614189,57.6538874 L6.26063403,57.6538874 L6.26063403,47.0724503 C6.26063403,46.6272754 6.62449692,46.265153 7.07181135,46.265153 L12.8502416,46.265153 C13.297556,46.265153 13.6614189,46.6272754 13.6614189,47.0724503 L13.6614189,57.6538874 Z M32.3414818,57.6538874 L24.940697,57.6538874 L24.940697,37.2221792 C24.940697,36.7770043 25.3045598,36.4148819 25.7518743,36.4148819 L31.5303045,36.4148819 C31.9775011,36.4148819 32.3414818,36.7770043 32.3414818,37.2221792 L32.3414818,57.6538874 Z M51.0215448,57.6538874 L43.6207599,57.6538874 L43.6207599,20.2962671 C43.6207599,19.8510922 43.9846228,19.4889698 44.4319372,19.4889698 L50.2103674,19.4889698 C50.6576819,19.4889698 51.0215448,19.8510922 51.0215448,20.2962671 L51.0215448,57.6538874 Z" id="Shape"></path>
                    <path d="M54.2829126,1.18707432 C54.299256,0.879017469 54.1871867,0.565768018 53.9439029,0.330520502 C53.7006191,0.0952729862 53.3766687,-0.0132072742 53.0580884,0.00270918444 C53.0392934,0.00191900565 53.0207319,0 53.0015868,0 L45.9388855,0 C45.2941367,0 44.7714968,0.505375781 44.7714968,1.12882685 C44.7714968,1.75227792 45.2941367,2.2576537 45.9388855,2.2576537 L50.2998992,2.2576537 L38.7594453,13.4170102 L34.4074204,9.20874369 C34.188535,8.99708865 33.8915513,8.8781103 33.5819599,8.8781103 C33.2723684,8.8781103 32.9753847,8.99708865 32.7564994,9.20874369 L11.7704704,29.501664 C11.3146051,29.9424709 11.3146051,30.657244 11.7704704,31.0981638 C11.9984614,31.3183979 12.2971961,31.4285714 12.5959309,31.4285714 C12.8946656,31.4285714 13.1935171,31.3183979 13.4213914,31.097938 L33.5819599,11.6032112 L37.9339848,15.8114777 C38.38985,16.2522846 39.1290405,16.2522846 39.5850225,15.8114777 L51.950937,3.85415352 L51.950937,7.6707171 C51.950937,8.29416817 52.4735769,8.79954395 53.1183256,8.79954395 C53.7630744,8.79954395 54.2857143,8.29416817 54.2857143,7.6707171 L54.2857143,1.24170954 C54.2857143,1.22330966 54.2837297,1.20536131 54.2829126,1.18707432 Z" id="Shape"></path>
                    <circle id="Oval" stroke="#FF4669" cx="7.14285714" cy="35.7142857" r="1.42857143"></circle>
                </g>
            </g>
        </g>
    </g>
</svg>