<?xml version="1.0" encoding="UTF-8"?>
<svg width="62px" height="50px" viewBox="0 0 62 50" version="1.1" xmlns="http://www.w3.org/2000/svg" xmlns:xlink="http://www.w3.org/1999/xlink">
    <!-- Generator: Sketch 48.1 (47250) - http://www.bohemiancoding.com/sketch -->
    <title>546423</title>
    <desc>Created with Sketch.</desc>
    <defs></defs>
    <g id="04-chi-tiết-trang-lĩnh-vực-" stroke="none" stroke-width="1" fill="none" fill-rule="evenodd" transform="translate(-475.000000, -1119.000000)">
        <g id="Quản-lý-dữ-liệu-khách-hàng" transform="translate(475.000000, 1119.000000)" fill="#FF4669" fill-rule="nonzero">
            <g id="546423">
                <path d="M56.8294287,26.3922017 C56.1512448,26.3922017 55.5250259,26.5559137 54.9696136,26.8026698 C54.1252141,25.7336706 52.8145708,25.0417556 51.3371117,25.0403299 C50.5735999,25.0403299 49.8712938,25.2408712 49.267877,25.5413268 L49.204751,25.5760176 L47.3181735,26.6837469 C46.4724539,25.6825848 45.2057347,25.0410428 43.7845609,25.0403299 C43.021049,25.0403299 42.3187429,25.2408712 41.7153261,25.5413268 L41.639839,25.5835022 L34.4167192,29.9629774 C32.7855257,29.4858602 30.9744352,28.9625282 29.2244305,28.4711544 C27.3782968,27.9525746 25.6028497,27.4707052 24.1797557,27.1152434 C23.4671287,26.937156 22.84379,26.791027 22.3343421,26.6870734 C22.078958,26.6346808 21.8523767,26.593337 21.6512378,26.5628044 C21.4473386,26.5328657 21.2770425,26.5118374 21.0849045,26.5111246 C20.9365705,26.5118374 20.8081584,26.5246682 20.6619847,26.54237 C20.1299746,26.6117516 19.3733034,26.7721372 18.4807794,26.9793315 C16.6573277,27.4034621 14.3300687,28.0205305 13.0441477,28.3670821 L13.0441477,26.2125699 C13.0441477,24.7174204 11.8083914,23.4939759 10.2979292,23.4939759 L2.74621847,23.4939759 C1.23575631,23.4942135 0,24.7175392 0,26.2128075 L0,47.281406 C0,48.7765555 1.23575631,50 2.74621847,50 L10.2980492,50 C11.8083914,50 13.0442677,48.7766743 13.0442677,47.281406 L13.0442677,45.6455925 C14.6741411,45.9968962 18.2915216,46.7703108 22.1052405,47.5457451 C24.6846433,48.06979 27.3503341,48.5944288 29.5520614,48.9899276 C30.653285,49.1877364 31.6384577,49.3528741 32.4451737,49.4697773 C33.2587302,49.5860866 33.8649073,49.6580818 34.3269508,49.6608143 C34.6866246,49.6595075 35.0272167,49.5921456 35.3951713,49.4915185 C36.0797157,49.3004815 36.8588291,48.976384 37.750633,48.5475012 C40.8543651,47.0496192 45.3120647,44.2433478 49.5171404,41.466421 C53.7146555,38.6928207 57.640945,35.9540301 59.5646061,34.6423141 C60.7687994,33.820665 61.4457831,32.4322016 61.4457831,30.9628326 C61.4437429,28.4391961 59.3791886,26.3935085 56.8294287,26.3922017 Z M10.9845138,47.2811684 C10.9845138,47.6494611 10.6700842,47.9607278 10.2980492,47.9607278 L2.74621847,47.9607278 C2.37418345,47.9607278 2.05975386,47.6494611 2.05975386,47.2811684 L2.05975386,26.2128075 C2.05975386,25.8445148 2.37418345,25.5332481 2.74621847,25.5332481 L10.2980492,25.5332481 C10.6700842,25.5332481 10.9845138,25.8445148 10.9845138,26.2128075 L10.9845138,47.2811684 Z M58.3967762,32.9627807 C56.0309935,34.576259 50.7370553,38.2767688 45.612813,41.5716814 C43.052732,43.2177121 40.5352551,44.7612148 38.4708208,45.8798742 C37.4396837,46.4392038 36.5196771,46.8911346 35.7843679,47.1936098 C35.4171334,47.3443722 35.0957431,47.4579489 34.8409591,47.5279245 C34.5876153,47.599207 34.3966773,47.6230866 34.3274308,47.6216609 C34.1028897,47.6236806 33.5084737,47.565229 32.7443618,47.4523651 C30.0394272,47.0601928 24.9762707,46.0590307 20.6166204,45.1586145 C18.434815,44.7079906 16.4252259,44.2825532 14.9609681,43.9698608 C14.110328,43.788447 13.4539863,43.6463573 13.0447477,43.5586799 L13.0447477,30.4814385 C13.2460067,30.4263134 13.5095515,30.3550309 13.8260213,30.270086 C14.9115234,29.9785407 16.5680393,29.5414605 18.0537792,29.1793456 C18.795929,28.997813 19.496915,28.8362394 20.0536474,28.7212371 C20.3309935,28.6642111 20.5734163,28.6187091 20.7594338,28.5893645 C20.941971,28.5594259 21.0840644,28.5486147 21.0855045,28.5506344 C21.0889848,28.5499216 21.196755,28.5566934 21.3436488,28.5792662 C21.9121423,28.6634983 23.077092,28.9333024 24.4961055,29.301001 C28.772588,30.4068295 35.5156627,32.4055895 38.2399191,33.2245061 C39.1824878,33.5058342 40.0358881,33.9299648 40.5961008,34.4445053 C40.8776473,34.7014785 41.0891072,34.9760348 41.2312006,35.2729262 C41.373294,35.5712433 41.4535815,35.8941528 41.4550216,36.2889388 C41.4543016,37.0888467 41.1302711,37.8038097 40.6010213,38.3292802 C40.0751318,38.8478601 39.3610646,39.1651858 38.5640696,39.1726705 L35.9064194,38.9151032 L26.8365658,37.7623471 C26.2721527,37.6910647 25.7558641,38.0851378 25.6831372,38.6437546 C25.6102904,39.2024903 26.009928,39.7127539 26.573501,39.7848679 L35.6727574,40.9408317 L38.4889425,41.2139623 L38.5397073,41.2139623 C41.2865258,41.2132495 43.5129753,39.009196 43.5144155,36.2892952 C43.5157356,35.6049836 43.3627212,34.9613031 43.0914957,34.3979341 C42.6830972,33.5490789 42.0260354,32.8918546 41.2831655,32.3915706 C40.5375353,31.8899797 39.6958961,31.532617 38.8391354,31.274337 C38.3613705,31.1309404 37.7592738,30.9501206 37.0713691,30.7455399 L42.6604151,27.3561781 C43.0228492,27.1795164 43.3936841,27.0796021 43.7863611,27.0788893 C44.4523037,27.0781765 45.0536803,27.3337241 45.5082831,27.7470435 L42.7470633,29.3680065 C42.2582572,29.6549184 42.0969621,30.2807783 42.3873894,30.7646674 C42.6778167,31.2485565 43.3094362,31.408942 43.7988422,31.1215549 L50.2084055,27.3584353 C50.5728798,27.1796352 50.9457549,27.0791269 51.339872,27.0791269 C52.0504589,27.0784141 52.689639,27.371385 53.1530026,27.8362654 L45.6897402,32.217879 C45.2002141,32.5047909 45.039639,33.1306509 45.3300664,33.6151339 C45.6204937,34.099023 46.2521131,34.2586957 46.7415192,33.9711898 L54.8117988,29.2328075 C54.8900461,29.2198578 54.9690136,29.2008492 55.0459408,29.168178 C55.2113164,29.0987965 55.345969,28.9887839 55.4495388,28.8582182 L55.7014425,28.7100695 C56.0659168,28.5312693 56.4387919,28.4307611 56.832789,28.4307611 C57.5406156,28.4314739 58.1735552,28.7129208 58.639799,29.1723362 C59.1038827,29.6338901 59.3880695,30.2610569 59.3889095,30.9624762 C59.3854292,31.8169152 58.989992,32.5631237 58.3967762,32.9627807 Z" id="Shape"></path>
                <path d="M37.2656195,11.84391 C36.3632933,11.1739803 35.3177256,10.8056766 34.279823,10.5081726 C34.1387373,10.4679235 34.0002864,10.4354332 33.8592006,10.3978512 L33.8592006,4.04746129 C34.8615324,4.19936536 35.6027716,4.5156604 36.0960927,4.90602838 C36.4454536,5.18074076 36.686066,5.48867078 36.8511052,5.83466774 C37.0135095,6.18078593 37.1005803,6.57115391 37.1011791,7.01910723 C37.1011791,7.5933846 37.5615642,8.05940153 38.1289015,8.05940153 C38.6962388,8.05940153 39.1566239,7.5933846 39.1566239,7.01910723 C39.1573425,6.2929258 39.0100288,5.58214088 38.7058201,4.93791248 C38.2509443,3.96769045 37.4410784,3.17301277 36.3879654,2.65559335 C35.659661,2.29626084 34.8100325,2.06810167 33.8597994,1.95511317 L33.8597994,1.0402943 C33.8597994,0.465289536 33.3994143,0 32.832077,0 C32.2640212,0 31.8043547,0.465289536 31.8043547,1.0402943 L31.8043547,1.89752783 C31.0596422,1.95571933 30.3908621,2.10350149 29.7989726,2.33166067 C28.6355539,2.77694688 27.7840091,3.53695211 27.2570334,4.39066991 C26.7281414,5.24499387 26.5075302,6.17363323 26.5068116,7.01910723 C26.504057,7.90883102 26.7156856,8.709934 27.1139116,9.36252743 C27.4597993,9.93401645 27.9298855,10.3778479 28.4423694,10.7183894 C29.3432583,11.3141249 30.3724179,11.6345418 31.3979845,11.9119213 C31.5329622,11.9473211 31.6685386,11.9819936 31.803636,12.0159386 L31.803636,18.8471358 C30.8038194,18.7354808 30.0371895,18.4108208 29.5227894,17.9683229 C28.891736,17.4190194 28.5684843,16.7192666 28.5615378,15.8260271 C28.5615378,15.2510223 28.1011526,14.7857328 27.5338154,14.7857328 C26.9664781,14.7857328 26.506093,15.2510223 26.506093,15.8260271 C26.4985477,17.2803296 27.1110372,18.636919 28.1949304,19.5564659 C29.1246832,20.3525984 30.3647528,20.8297687 31.8035163,20.9477277 L31.8035163,21.851272 C31.8035163,22.4255493 32.2631828,22.8915663 32.8312387,22.8915663 C33.3985759,22.8915663 33.8589611,22.4255493 33.8589611,21.851272 L33.8589611,20.9101457 C35.0223797,20.7914593 36.1089078,20.5009867 37.0380618,19.9184655 C37.6724687,19.5175504 38.2226792,18.9627914 38.5940773,18.261705 C38.9682301,17.5625584 39.1573425,16.7359966 39.1557855,15.8260271 C39.157103,14.8765358 38.9557743,14.0346987 38.5734774,13.3327638 C38.2406443,12.7184797 37.778822,12.2266403 37.2656195,11.84391 Z M31.8029174,9.86527774 C30.8026217,9.59408111 29.9401781,9.27657374 29.4132024,8.86729352 C29.1295936,8.65016648 28.9335347,8.42200731 28.7930478,8.14390043 C28.6538783,7.86373261 28.5628552,7.51615963 28.561418,7.018986 C28.5606994,6.37960689 28.7930478,5.61390374 29.3602653,5.03077641 C29.6460298,4.73606071 30.0186256,4.4732291 30.5290734,4.27622663 C30.8805902,4.14105262 31.3052847,4.04103598 31.8027977,3.98914856 L31.8027977,9.86527774 L31.8029174,9.86527774 Z M36.7852332,17.2729345 C36.6399556,17.5434037 36.452999,17.7661074 36.2090332,17.965777 C35.8444618,18.2626749 35.3389244,18.5018662 34.7085896,18.6606805 C34.4454611,18.727237 34.1583791,18.7764574 33.8589611,18.8146455 L33.8589611,12.5528764 C34.4872598,12.7365433 35.062861,12.9392437 35.5287555,13.1928617 C36.0487847,13.4715747 36.4235363,13.7878698 36.6784009,14.1777528 C36.9305108,14.5695756 37.0969872,15.0612938 37.1004605,15.8255421 C37.0990233,16.4546165 36.9756631,16.9128746 36.7852332,17.2729345 Z" id="Shape"></path>
            </g>
        </g>
    </g>
</svg>