<?xml version="1.0" encoding="UTF-8"?>
<svg width="47px" height="50px" viewBox="0 0 47 50" version="1.1" xmlns="http://www.w3.org/2000/svg" xmlns:xlink="http://www.w3.org/1999/xlink">
    <!-- Generator: Sketch 48.1 (47250) - http://www.bohemiancoding.com/sketch -->
    <title>259501</title>
    <desc>Created with Sketch.</desc>
    <defs></defs>
    <g id="04-chi-tiết-trang-lĩnh-vực-" stroke="none" stroke-width="1" fill="none" fill-rule="evenodd" transform="translate(-1075.000000, -1758.000000)">
        <g id="259501" transform="translate(1075.000000, 1758.000000)" fill="#FF4669" fill-rule="nonzero">
            <path d="M28.1277997,1.45953109 C27.2704937,0.532032757 26.0596895,0 24.8056907,0 L21.524452,0 C20.2706469,0 19.0598427,0.532032757 18.2025367,1.45953109 C17.3451339,2.38722578 16.9003072,3.6465696 16.9820476,4.9149459 L17.127902,7.18180405 L17.4684225,12.4752305 C17.5958756,14.4573692 18.6970469,16.2122231 20.4138863,17.1696661 C21.2752599,17.6498603 22.2201172,17.8899083 23.1650714,17.8899083 C24.1100255,17.8899083 25.0549796,17.6497621 25.9164501,17.1695679 C27.6333863,16.2123213 28.7344608,14.4573692 28.8619139,12.4752305 L29.2510525,6.42631557 L29.3482888,4.91504408 C29.4297386,3.64666778 28.9850088,2.38722578 28.1277997,1.45953109 Z M19.0334029,6.02751191 L18.9534058,4.78476036 C18.9066278,4.05627115 19.1519459,3.36155556 19.6443254,2.82883555 C20.1366081,2.29611553 20.8044777,2.00275627 21.5245488,2.00275627 L24.4112254,2.00275627 L23.7678585,3.74199972 C23.6069926,3.99186563 22.4525544,5.58492035 19.0334029,6.02751191 Z M26.8905557,12.345045 C26.8071689,13.641206 26.0870977,14.7887238 24.964426,15.4148122 C23.8375897,16.0429623 22.4923593,16.0428641 21.3660073,15.4149103 C20.2432387,14.7887238 19.5230707,13.641206 19.4397807,12.345045 L19.162115,8.02820641 C21.8506389,7.70146624 23.4962944,6.7382307 24.4399895,5.92147844 C24.659449,6.10919695 24.9230715,6.28385764 25.2298886,6.44467507 C25.6657084,6.67294157 26.3234089,6.90101171 27.2256527,7.13654347 L26.8905557,12.345045 Z M27.3769306,4.78476036 L27.3566892,5.09912997 C26.6415574,4.89727366 26.295807,4.7488268 26.136878,4.66566907 C25.8675414,4.52458564 25.7272074,4.40991241 25.6567983,4.33932161 L26.3330938,2.51083331 C26.4583193,2.60498711 26.5766686,2.71072604 26.686011,2.82893372 C27.1783905,3.36165374 27.4238054,4.05627115 27.3769306,4.78476036 Z" id="Shape"></path>
            <path d="M37.8280486,28.6423791 L37.2790503,25.6165741 C36.6291937,22.0341835 33.7875504,19.1749536 30.2078116,18.501912 C29.6672264,18.4002084 29.1145107,18.3486239 28.5648276,18.3486239 L26.3249107,18.3486239 C26.059705,18.3486239 25.8054558,18.4541377 25.6182173,18.6416202 L23.1577033,21.1072248 L20.6363416,18.6341951 C20.4497878,18.4512068 20.1987669,18.3487216 19.9371807,18.3487216 L17.7654484,18.3487216 C17.2156675,18.3487216 16.662854,18.4003061 16.1223666,18.5020097 C16.1222688,18.5020097 16.1220731,18.5021074 16.1219753,18.5021074 C12.54253,19.1755398 9.70098454,22.0344766 9.05112788,25.6166718 L8.50222743,28.6425745 C8.44949933,28.9331284 8.52864039,29.232182 8.71812892,29.4588414 C8.90781311,29.685403 9.18827963,29.8165138 9.48400696,29.8165138 L36.8461713,29.8165138 C37.1418986,29.8165138 37.4223651,29.6855007 37.6120493,29.4588414 C37.8016357,29.2319866 37.8807767,28.9330307 37.8280486,28.6423791 Z M19.5292472,20.3413701 L22.4661728,23.2219959 C22.8572803,23.6055583 23.4849305,23.6021389 23.8720271,23.2145709 L26.7393007,20.3414678 L27.7507215,20.3414678 L23.1653337,24.9209643 L18.579848,20.3414678 L19.5292472,20.3414678 L19.5292472,20.3413701 Z M10.6789489,27.8235721 L11.0147848,25.971804 C11.4874789,23.3659051 13.457201,21.2540649 15.9908888,20.5743799 L22.4597163,27.0347584 C22.6545853,27.2292751 22.9099106,27.3265823 23.1652359,27.3265823 C23.4205611,27.3265823 23.6758864,27.2292751 23.8707554,27.0347584 L30.3394851,20.5743799 C32.8733685,21.2540649 34.8428949,23.3659051 35.3155891,25.9717063 C35.3155891,25.9717063 35.3155891,25.9717063 35.3155891,25.971804 L35.6515228,27.8235721 L10.6789489,27.8235721 Z" id="Shape"></path>
            <path d="M27.2443388,34.1743119 L26.6548386,34.1743119 C26.1209802,34.1743119 25.6880734,34.6364795 25.6880734,35.206422 C25.6880734,35.7763646 26.1209802,36.2385321 26.6548386,36.2385321 L27.244244,36.2385321 C27.7781024,36.2385321 28.2110092,35.7763646 28.2110092,35.206422 C28.2110092,34.6364795 27.7781972,34.1743119 27.2443388,34.1743119 Z" id="Shape"></path>
            <path d="M24.1026664,42.6945177 L24.1026664,32.6451556 C24.1026664,32.0963797 23.656771,31.6513761 23.106895,31.6513761 C22.5570191,31.6513761 22.1111237,32.0963797 22.1111237,32.6451556 L22.1111237,34.1762132 L7.29522875,34.1762132 C4.77919496,34.1762132 2.73229358,36.2191174 2.73229358,38.7299233 L2.73229358,42.6944202 C1.1587229,43.1302645 0,44.5716783 0,46.2791978 C-6.93732842e-16,48.3306766 1.67237652,49.9998051 3.72806497,49.9998051 C5.78375343,49.9998051 7.45612994,48.3306766 7.45612994,46.2791978 C7.45612994,44.5718732 6.29740705,43.1304593 4.72383636,42.6945177 L4.72383636,38.7300207 C4.72383636,37.3150128 5.87738464,36.163967 7.29513112,36.163967 L22.111026,36.163967 L22.111026,42.6946151 C20.5374553,43.1304593 19.3787324,44.5718732 19.3787324,46.2793926 C19.3787324,48.3309689 21.0512066,50 23.1067974,50 C25.1623882,50 26.8348624,48.3308715 26.8348624,46.2793926 C26.83496,44.5717757 25.6762371,43.1303619 24.1026664,42.6945177 Z M5.46448953,46.2791978 C5.46448953,47.2347812 4.68556374,48.0121488 3.72806497,48.0121488 C2.7705662,48.0121488 1.99164041,47.2346837 1.99164041,46.2791978 C1.99164041,45.3236144 2.77066383,44.5462467 3.72806497,44.5462467 C4.68546611,44.5462467 5.46448953,45.3236144 5.46448953,46.2791978 Z M23.106895,48.0122462 C22.1493963,48.0122462 21.3704705,47.2347812 21.3704705,46.2792952 C21.3704705,45.3237118 22.1494939,44.5463442 23.106895,44.5463442 C24.0643938,44.5463442 24.8433196,45.3237118 24.8433196,46.2792952 C24.8433196,47.2348786 24.0643938,48.0122462 23.106895,48.0122462 Z" id="Shape"></path>
            <path d="M43.5557881,42.6793743 L43.5557881,38.7286533 C43.5557881,36.2174019 41.5150512,34.1743119 39.0065948,34.1743119 L30.8092863,34.1743119 C30.2610664,34.1743119 29.8165138,34.6193771 29.8165138,35.1682291 C29.8165138,35.7170812 30.2610664,36.1621464 30.8092863,36.1621464 L39.0065948,36.1621464 C40.4201689,36.1621464 41.5701458,37.3134492 41.5701458,38.7285558 L41.5701458,42.7080253 C40.0270119,43.1606918 38.8966004,44.5895392 38.8966004,46.2788768 C38.8966004,48.3307375 40.5639403,50 42.6134378,50 C44.6629353,50 46.3302752,48.3306401 46.3302752,46.2788768 C46.3302752,44.5529945 45.1503176,43.0981274 43.5557881,42.6793743 Z M42.6133405,48.012263 C41.6587253,48.012263 40.8821454,47.2346902 40.8821454,46.2790718 C40.8821454,45.3233559 41.6587253,44.5458805 42.6133405,44.5458805 C43.5679556,44.5458805 44.3445356,45.3233559 44.3445356,46.2790718 C44.3445356,47.2347876 43.5679556,48.012263 42.6133405,48.012263 Z" id="Shape"></path>
        </g>
    </g>
</svg>