<?xml version="1.0" encoding="UTF-8"?>
<svg width="52px" height="52px" viewBox="0 0 52 52" version="1.1" xmlns="http://www.w3.org/2000/svg" xmlns:xlink="http://www.w3.org/1999/xlink">
    <!-- Generator: Sketch 48.1 (47250) - http://www.bohemiancoding.com/sketch -->
    <title>112714</title>
    <desc>Created with Sketch.</desc>
    <defs></defs>
    <g id="04-chi-tiết-trang-lĩnh-vực-" stroke="none" stroke-width="1" fill="none" fill-rule="evenodd" transform="translate(-474.000000, -2617.000000)">
        <g id="112714" transform="translate(475.000000, 2618.000000)" fill="#FF4669" fill-rule="nonzero" stroke="#FF4669" stroke-width="0.5">
            <path d="M49.2021277,45.212766 L4.78723404,45.212766 L4.78723404,0.79787234 C4.78723404,0.357234043 4.43010638,0 3.9893617,0 C3.54861702,0 3.19148936,0.357234043 3.19148936,0.79787234 L3.19148936,7.53542553 L0.79787234,7.53542553 C0.35712766,7.53542553 0,7.89265957 0,8.33329787 C0,8.77393617 0.35712766,9.13117021 0.79787234,9.13117021 L3.19148936,9.13117021 L3.19148936,15.0708511 L0.79787234,15.0708511 C0.35712766,15.0708511 0,15.4280851 0,15.8687234 C0,16.3093617 0.35712766,16.6665957 0.79787234,16.6665957 L3.19148936,16.6665957 L3.19148936,22.606383 L0.79787234,22.606383 C0.35712766,22.606383 0,22.963617 0,23.4042553 C0,23.8448936 0.35712766,24.2021277 0.79787234,24.2021277 L3.19148936,24.2021277 L3.19148936,30.1418085 L0.79787234,30.1418085 C0.35712766,30.1418085 0,30.4990426 0,30.9396809 C0,31.3803191 0.35712766,31.7375532 0.79787234,31.7375532 L3.19148936,31.7375532 L3.19148936,37.677234 L0.79787234,37.677234 C0.35712766,37.677234 0,38.0344681 0,38.4751064 C0,38.9157447 0.35712766,39.2729787 0.79787234,39.2729787 L3.19148936,39.2729787 L3.19148936,46.0106383 C3.19148936,46.4512766 3.54861702,46.8085106 3.9893617,46.8085106 L15.7801064,46.8085106 L15.7801064,49.2021277 C15.7801064,49.642766 16.137234,50 16.5779787,50 C17.0187234,50 17.3758511,49.642766 17.3758511,49.2021277 L17.3758511,46.8085106 L35.8156383,46.8085106 L35.8156383,49.2021277 C35.8156383,49.642766 36.172766,50 36.6135106,50 C37.0542553,50 37.411383,49.642766 37.411383,49.2021277 L37.411383,46.8085106 L49.2021277,46.8085106 C49.6428723,46.8085106 50,46.4512766 50,46.0106383 C50,45.57 49.6428723,45.212766 49.2021277,45.212766 Z" id="Shape"></path>
            <path d="M8.14049021,43.5779817 C8.58298507,43.5779817 8.94153088,43.2192126 8.94153088,42.776681 L8.94153088,24.0796655 L15.7058387,24.0796655 L15.7058387,42.776681 C15.7058387,43.2192126 16.0643845,43.5779817 16.5068794,43.5779817 C16.9493742,43.5779817 17.30792,43.2192126 17.30792,42.776681 L17.30792,31.6474695 L23.6272765,31.6474695 L23.6272765,42.776681 C23.6272765,43.2192126 23.9858223,43.5779817 24.4283171,43.5779817 C24.870812,43.5779817 25.2293578,43.2192126 25.2293578,42.776681 L25.2293578,30.8461689 C25.2293578,30.4036372 24.870812,30.0448682 24.4283171,30.0448682 L17.30792,30.0448682 L17.30792,23.2783649 C17.30792,22.8358332 16.9493742,22.4770642 16.5068794,22.4770642 L8.14049021,22.4770642 C7.69799534,22.4770642 7.33944954,22.8358332 7.33944954,23.2783649 L7.33944954,42.776681 C7.33944954,43.2192126 7.69799534,43.5779817 8.14049021,43.5779817 Z" id="Shape"></path>
            <path d="M28.782692,43.5779817 C29.2251869,43.5779817 29.5837327,43.2191938 29.5837327,42.776639 L29.5837327,8.94213489 L35.9030891,8.94213489 L35.9030891,42.776639 C35.9030891,43.2191938 36.2616349,43.5779817 36.7041298,43.5779817 C37.1466247,43.5779817 37.5051705,43.2191938 37.5051705,42.776639 L37.5051705,16.5104425 L44.2694783,16.5104425 L44.2694783,42.776639 C44.2694783,43.2191938 44.6280241,43.5779817 45.070519,43.5779817 C45.5130138,43.5779817 45.8715596,43.2191938 45.8715596,42.776639 L45.8715596,15.7090998 C45.8715596,15.266545 45.5130138,14.9077571 45.070519,14.9077571 L37.5051705,14.9077571 L37.5051705,8.14079222 C37.5051705,7.69823737 37.1466247,7.33944954 36.7041298,7.33944954 L28.782692,7.33944954 C28.3401972,7.33944954 27.9816514,7.69823737 27.9816514,8.14079222 L27.9816514,42.776639 C27.9816514,43.2191938 28.3401972,43.5779817 28.782692,43.5779817 Z" id="Shape"></path>
        </g>
    </g>
</svg>