<?xml version="1.0" encoding="UTF-8"?>
<svg width="51px" height="52px" viewBox="0 0 51 52" version="1.1" xmlns="http://www.w3.org/2000/svg" xmlns:xlink="http://www.w3.org/1999/xlink">
    <!-- Generator: Sketch 48.1 (47250) - http://www.bohemiancoding.com/sketch -->
    <title>349377</title>
    <desc>Created with Sketch.</desc>
    <defs></defs>
    <g id="04-chi-tiết-trang-lĩnh-vực-" stroke="none" stroke-width="1" fill="none" fill-rule="evenodd" transform="translate(-1077.000000, -3124.000000)">
        <g id="349377" transform="translate(1077.000000, 3125.000000)" fill="#FF4669" fill-rule="nonzero" stroke="#FF4669" stroke-width="0.5">
            <path d="M50.5149096,48.8014307 L48.1899096,44.1810994 C46.9115763,41.639006 44.3415763,40.060241 41.4824096,40.060241 L37.2690763,40.060241 C34.3065763,40.060241 31.858243,37.8519578 31.4890763,35.0058735 C34.4615763,33.0841867 36.435743,29.758509 36.435743,25.9789157 L36.435743,16.0391566 C36.435743,12.8426958 33.8190763,10.2409639 30.6024096,10.2409639 L11.435743,10.2409639 C10.975743,10.2409639 10.6024096,10.6112199 10.6024096,11.0692771 C10.6024096,12.5784639 11.2824096,13.932756 12.3549096,14.8455572 C12.2999096,14.9548946 12.2690763,15.0799699 12.2690763,15.2108434 C12.2690763,16.9958584 13.2340763,18.6292922 14.7690763,19.5106175 L14.7690763,25.9789157 C14.7690763,29.758509 16.743243,33.0841867 19.715743,35.0058735 C19.3465763,37.8519578 16.898243,40.060241 13.935743,40.060241 L9.72240964,40.060241 C6.86324297,40.060241 4.29240964,41.639006 3.01407631,44.1810994 L0.689909639,48.8014307 C0.632409639,48.915738 0.602409639,49.0432982 0.602409639,49.1716867 L0.602409639,50 L2.26907631,50 L2.26907631,49.3671687 L4.50574297,44.9216114 C5.49990964,42.9444277 7.49907631,41.7168675 9.72240964,41.7168675 L13.935743,41.7168675 C17.5265763,41.7168675 20.533243,39.1946536 21.263243,35.8391566 C22.593243,36.4198042 24.0590763,36.746988 25.6024096,36.746988 C27.145743,36.746988 28.6115763,36.4198042 29.9415763,35.8391566 C30.6715763,39.1946536 33.678243,41.7168675 37.2690763,41.7168675 L41.4824096,41.7168675 C43.705743,41.7168675 45.7049096,42.9444277 46.6999096,44.9216114 L48.935743,49.3671687 L48.935743,50 L50.6024096,50 L50.6024096,49.1716867 C50.6024096,49.0432982 50.5724096,48.915738 50.5149096,48.8014307 Z M25.6024096,35.0903614 C20.548243,35.0903614 16.435743,31.0026355 16.435743,25.9789157 L16.435743,19.0028614 C16.435743,18.6740211 16.2399096,18.3758283 15.9365763,18.2441265 C14.983243,17.8291416 14.2949096,17.0082831 14.0424096,16.0391566 L15.6024096,16.0391566 C16.0624096,16.0391566 16.435743,15.6689006 16.435743,15.2108434 C16.435743,14.7527861 16.0624096,14.3825301 15.6024096,14.3825301 C14.0524096,14.3825301 12.745743,13.3256024 12.3740763,11.8975904 L30.6024096,11.8975904 C32.8999096,11.8975904 34.7690763,13.755497 34.7690763,16.0391566 L34.7690763,25.9789157 C34.7690763,31.0026355 30.6565763,35.0903614 25.6024096,35.0903614 Z" id="Shape"></path>
            <path d="M30.0319277,48.8113363 L27.650241,44.1716867 L29.1084337,42.2782037 C29.3007229,42.029299 29.3310843,41.6966046 29.1885542,41.4181271 C29.0460241,41.1396495 28.7533735,40.9638554 28.4337349,40.9638554 L23.373494,40.9638554 C23.0538554,40.9638554 22.7620482,41.1396495 22.6186747,41.4181271 C22.4753012,41.6966046 22.5073494,42.029299 22.6987952,42.2782037 L24.156988,44.1716867 L21.7753012,48.8113363 C21.7171084,48.9246988 21.686747,49.0512048 21.686747,49.1785323 L21.686747,50 L23.373494,50 L23.373494,49.3723987 L25.299759,45.6207558 C25.4574699,45.7850493 25.6691566,45.8926616 25.9036145,45.8926616 C26.1380723,45.8926616 26.349759,45.7850493 26.5074699,45.6207558 L28.4337349,49.3723987 L28.4337349,50 L30.1204819,50 L30.1204819,49.1785323 C30.1204819,49.0512048 30.0901205,48.9246988 30.0319277,48.8113363 Z M25.9036145,43.7018072 L25.060241,42.6067908 L26.746988,42.6067908 L25.9036145,43.7018072 Z" id="Shape"></path>
            <path d="M21.3855422,19.2771084 C19.5582831,19.2771084 18.0722892,20.7631024 18.0722892,22.5903614 C18.0722892,24.4176205 19.5582831,25.9036145 21.3855422,25.9036145 C23.2128012,25.9036145 24.6987952,24.4176205 24.6987952,22.5903614 C24.6987952,20.7631024 23.2128012,19.2771084 21.3855422,19.2771084 Z M21.3855422,24.246988 C20.4719127,24.246988 19.7289157,23.503991 19.7289157,22.5903614 C19.7289157,21.6767319 20.4719127,20.9337349 21.3855422,20.9337349 C22.2991717,20.9337349 23.0421687,21.6767319 23.0421687,22.5903614 C23.0421687,23.503991 22.2991717,24.246988 21.3855422,24.246988 Z" id="Shape"></path>
            <path d="M29.8192771,19.2771084 C27.9920181,19.2771084 26.5060241,20.7631024 26.5060241,22.5903614 C26.5060241,24.4176205 27.9920181,25.9036145 29.8192771,25.9036145 C31.6465361,25.9036145 33.1325301,24.4176205 33.1325301,22.5903614 C33.1325301,20.7631024 31.6465361,19.2771084 29.8192771,19.2771084 Z M29.8192771,24.246988 C28.9056476,24.246988 28.1626506,23.503991 28.1626506,22.5903614 C28.1626506,21.6767319 28.9056476,20.9337349 29.8192771,20.9337349 C30.7329066,20.9337349 31.4759036,21.6767319 31.4759036,22.5903614 C31.4759036,23.503991 30.7329066,24.246988 29.8192771,24.246988 Z" id="Shape"></path>
            <path d="M48.0923695,0 L38.0522088,0 C36.66834,0 35.5421687,1.13518072 35.5421687,2.53012048 L35.5421687,7.59036145 C35.5421687,8.9853012 36.66834,10.1204819 38.0522088,10.1204819 L38.0522088,11.8072289 C38.0522088,12.1108434 38.2145248,12.3908434 38.4764056,12.5409639 C38.6044177,12.6143373 38.7466533,12.6506024 38.8888889,12.6506024 C39.0378179,12.6506024 39.186747,12.6101205 39.3197791,12.53 L43.3040495,10.1204819 L48.0923695,10.1204819 C49.4762383,10.1204819 50.6024096,8.9853012 50.6024096,7.59036145 L50.6024096,2.53012048 C50.6024096,1.13518072 49.4762383,0 48.0923695,0 Z M48.9290495,7.59036145 C48.9290495,8.05590361 48.5533802,8.43373494 48.0923695,8.43373494 L43.0722892,8.43373494 C42.9208501,8.43373494 42.771921,8.47506024 42.6413989,8.55433735 L39.7255689,10.316988 L39.7255689,9.27710843 C39.7255689,8.81072289 39.3507363,8.43373494 38.8888889,8.43373494 L38.0522088,8.43373494 C37.5911981,8.43373494 37.2155288,8.05590361 37.2155288,7.59036145 L37.2155288,2.53012048 C37.2155288,2.06457831 37.5911981,1.68674699 38.0522088,1.68674699 L48.0923695,1.68674699 C48.5533802,1.68674699 48.9290495,2.06457831 48.9290495,2.53012048 L48.9290495,7.59036145 Z" id="Shape"></path>
            <rect id="Rectangle-path" x="39.1566265" y="4.21686747" width="1.80722892" height="1.80722892"></rect>
            <rect id="Rectangle-path" x="42.1686747" y="4.21686747" width="1.80722892" height="1.80722892"></rect>
            <rect id="Rectangle-path" x="45.7831325" y="4.21686747" width="1.80722892" height="1.80722892"></rect>
            <path d="M29.6385542,28.313253 C29.6385542,29.7081928 28.5033735,30.8433735 27.1084337,30.8433735 L27.1084337,32.5301205 C29.4336145,32.5301205 31.3253012,30.6384337 31.3253012,28.313253 L29.6385542,28.313253 Z" id="Shape"></path>
        </g>
    </g>
</svg>