<?xml version="1.0" encoding="UTF-8"?>
<svg width="408px" height="388px" viewBox="0 0 408 388" version="1.1" xmlns="http://www.w3.org/2000/svg" xmlns:xlink="http://www.w3.org/1999/xlink">
    <!-- Generator: Sketch 48.1 (47250) - http://www.bohemiancoding.com/sketch -->
    <title>Group 8</title>
    <desc>Created with Sketch.</desc>
    <defs>
        <linearGradient x1="50%" y1="0%" x2="50%" y2="115.055012%" id="linearGradient-1">
            <stop stop-color="#DB1943" offset="0%"></stop>
            <stop stop-color="#FFC22A" offset="100%"></stop>
        </linearGradient>
        <filter x="0.0%" y="0.0%" width="100.0%" height="100.0%" filterUnits="objectBoundingBox" id="filter-2">
            <feGaussianBlur stdDeviation="0 -0" in="SourceGraphic"></feGaussianBlur>
        </filter>
    </defs>
    <g id="04-chi-tiết-trang-lĩnh-vực-" stroke="none" stroke-width="1" fill="none" fill-rule="evenodd" transform="translate(-508.000000, -3120.000000)">
        <g id="Group-8" transform="translate(508.000000, 3125.000000)">
            <g id="Group-3">
                <g id="Group-2" transform="translate(5.000000, 0.000000)">
                    <g id="490449" fill-rule="nonzero">
                        <path d="M231.908712,322.539282 L206.906702,247.661596 L222.626051,237.195323 L215.251788,226.144638 L198.993832,236.969528 L182.735876,226.144638 L175.361613,237.195323 L191.080962,247.661596 L166.092251,322.539282 C165.187923,325.255466 166.118849,328.237291 168.412916,329.950679 L195.010799,349.873788 C196.194405,350.757046 197.597443,351.201995 199.000481,351.201995 C200.40352,351.201995 201.806558,350.757046 202.990164,349.873788 L229.588047,329.950679 C231.875464,328.237291 232.81304,325.248825 231.908712,322.539282 Z M198.993832,336.266304 L180.222376,322.200589 L198.993832,265.951011 L217.765288,322.200589 L198.993832,336.266304 Z" id="Shape" stroke="#FFFFFF" stroke-width="10" fill="#FF4669"></path>
                        <path d="M372.176433,206.368023 C375.911,200.310112 378.1,193.203843 378.1,185.580031 L378.1,139.133832 C378.1,135.471218 375.128267,132.498661 371.466667,132.498661 L305.133333,132.498661 C301.471733,132.498661 298.5,135.471218 298.5,139.133832 L298.5,185.580031 C298.5,193.203843 300.689,200.310112 304.423567,206.368023 C294.7389,208.577535 286.745733,215.053462 282.334567,223.692456 C272.802467,211.118806 259.568967,201.497807 244.1332,196.36882 C261.054833,182.992315 271.966667,162.337026 271.966667,139.133832 L271.966667,131.695805 C285.233333,128.663532 295.183333,116.819751 295.183333,102.64039 C295.183333,88.4610286 285.233333,76.6172478 271.966667,73.5849745 L271.966667,66.1469474 C271.966667,40.5351861 251.138,19.7007481 225.533333,19.7007481 L99.5,19.7007481 C95.8384,19.7007481 92.8666667,22.6733049 92.8666667,26.3359195 L92.8666667,39.6062621 C92.8666667,59.2928155 107.2411,75.6418776 126.033333,78.8201247 L126.033333,139.133832 C126.033333,162.337026 136.945167,182.992315 153.8668,196.375455 C138.431033,201.504443 125.197533,211.125441 115.665433,223.699091 C111.254267,215.060098 103.2611,208.58417 93.5764333,206.374658 C97.311,200.310112 99.5,193.203843 99.5,185.580031 L99.5,139.133832 C99.5,135.471218 96.5282667,132.498661 92.8666667,132.498661 L26.5333333,132.498661 C22.8717333,132.498661 19.9,135.471218 19.9,139.133832 L19.9,185.580031 C19.9,193.203843 22.089,200.310112 25.8235667,206.368023 C11.0710333,209.732055 0,222.90287 0,238.661402 L0,371.364829 C0,375.027443 2.97173333,378 6.63333333,378 L106.133333,378 L291.866667,378 L391.366667,378 C395.028267,378 398,375.027443 398,371.364829 L398,238.661402 C398,222.90287 386.928967,209.732055 372.176433,206.368023 Z M271.966667,87.4392122 C277.817267,90.0003884 281.916667,95.8526095 281.916667,102.64039 C281.916667,109.42817 277.817267,115.280391 271.966667,117.841567 L271.966667,87.4392122 Z M33.1666667,145.769003 L86.2333333,145.769003 L86.2333333,169.562728 L85.9215667,188.638845 C85.0592333,196.056967 81.192,202.512989 75.5006,206.779404 C74.3663,207.615435 73.2253667,208.305493 72.0579,208.929199 C71.9119667,209.008821 71.7726667,209.088443 71.6267333,209.16143 C70.4924333,209.73869 69.3249667,210.223058 68.1376,210.621168 C67.9386,210.68752 67.7329667,210.747236 67.5273333,210.813588 C62.4263,212.399394 56.9604333,212.399394 51.8594,210.813588 C51.6537667,210.747236 51.4547667,210.694155 51.2557667,210.627803 C50.0684,210.223058 48.9009333,209.745325 47.7666333,209.168065 C47.6207,209.095079 47.4814,209.008821 47.3354667,208.935834 C46.168,208.312128 45.0270667,207.622071 43.9392,206.81258 C37.4252667,201.929094 33.1666667,194.272106 33.1666667,185.580031 L33.1666667,145.769003 Z M72.1043333,302.033923 L59.7,310.307982 L47.2956667,302.033923 L59.7,248.262495 L72.1043333,302.033923 Z M101.317533,255.123262 C101.264467,255.375399 101.1915,255.627535 101.138433,255.879672 C100.694,258.075913 100.3557,260.305331 100.097,262.554654 C100.043933,262.99921 99.9510667,263.443767 99.9112667,263.888323 C99.6459333,266.509216 99.5,269.156649 99.5,271.837259 L99.5,364.729657 L13.2666667,364.729657 L13.2666667,238.661402 C13.2666667,227.686829 22.1951333,218.755888 33.1666667,218.755888 L37.7436667,218.755888 C41.8762333,221.502849 46.5394667,223.500036 51.5542667,224.548393 L67.8457333,224.548393 C72.8605333,223.500036 77.5237667,221.502849 81.6563333,218.755888 L86.2333333,218.755888 C97.2048667,218.755888 106.133333,227.686829 106.133333,238.661402 C103.661311,246.159146 102.056044,251.646432 101.317533,255.123262 Z M106.133333,39.6062621 L106.133333,32.9710908 L225.533333,32.9710908 C243.821433,32.9710908 258.7,47.8537801 258.7,66.1469474 L258.7,79.4172901 L258.7,118.558166 C243.582633,115.479446 232.166667,102.069765 232.166667,86.0524614 L232.166667,72.7821188 C232.166667,69.1195042 229.194933,66.1469474 225.533333,66.1469474 L132.666667,66.1469474 C118.033533,66.1469474 106.133333,54.2434501 106.133333,39.6062621 Z M139.3,139.133832 L139.3,79.4172901 L218.9,79.4172901 L218.9,86.0524614 C218.9,106.827183 232.604467,124.450198 251.443133,130.375406 L229.420467,152.404175 L179.1,152.404175 L179.1,165.674517 L232.166667,165.674517 C233.9245,165.674517 235.616,164.977824 236.856433,163.730412 L258.554067,142.026767 C257.452933,164.81858 243.562733,184.266267 223.881633,193.343182 C221.9447,194.232295 219.981233,195.028515 217.9846,195.698668 C217.977967,195.698668 217.977967,195.705303 217.971333,195.705303 C205.6466,199.865555 192.360033,199.865555 180.0353,195.705303 C180.028667,195.705303 180.028667,195.698668 180.022033,195.698668 C178.0254,195.02188 176.061933,194.232295 174.125,193.343182 C153.6081,183.888063 139.3,163.173058 139.3,139.133832 Z M285.233333,364.729657 L112.766667,364.729657 L112.766667,271.837259 C112.766667,269.56803 112.899333,267.312072 113.1315,265.076019 C113.177933,264.618192 113.264167,264.167001 113.317233,263.715809 C113.5494,261.851326 113.834633,259.993478 114.226,258.155535 C114.292333,257.856953 114.3653,257.55837 114.431633,257.259787 C115.4399,252.854034 116.879333,248.534537 118.796367,244.327838 C118.829533,244.261487 118.816267,244.181865 118.8428,244.115513 C128.063133,224.024214 147.0013,209.241052 170.0853,206.115887 C178.9607,209.964286 188.7316,212.120717 199,212.120717 C209.2684,212.120717 219.0393,209.964286 227.908067,206.115887 C250.992067,209.241052 269.930233,224.024214 279.150567,244.115513 C279.1771,244.181865 279.163833,244.261487 279.197,244.327838 C281.120667,248.527902 282.5601,252.854034 283.561733,257.259787 C283.628067,257.55837 283.707667,257.850318 283.767367,258.155535 C284.158733,259.993478 284.443967,261.851326 284.676133,263.715809 C284.7292,264.173636 284.815433,264.618192 284.861867,265.076019 C285.100667,267.312072 285.233333,269.56803 285.233333,271.837259 L285.233333,364.729657 Z M311.766667,145.769003 L364.833333,145.769003 L364.833333,169.562728 L364.521567,188.638845 C363.659233,196.056967 359.792,202.512989 354.1006,206.779404 C352.9663,207.615435 351.825367,208.305493 350.6579,208.929199 C350.511967,209.008821 350.372667,209.088443 350.226733,209.16143 C349.092433,209.73869 347.924967,210.223058 346.7376,210.621168 C346.5386,210.68752 346.332967,210.747236 346.127333,210.813588 C341.0263,212.399394 335.560433,212.399394 330.4594,210.813588 C330.253767,210.747236 330.054767,210.694155 329.855767,210.627803 C328.6684,210.223058 327.500933,209.745325 326.366633,209.168065 C326.2207,209.095079 326.0814,209.008821 325.935467,208.935834 C324.768,208.312128 323.627067,207.622071 322.5392,206.81258 C316.025267,201.929094 311.766667,194.272106 311.766667,185.580031 L311.766667,145.769003 Z M350.704333,302.033923 L338.3,310.307982 L325.895667,302.033923 L338.3,248.262495 L350.704333,302.033923 Z M384.733333,364.729657 L298.5,364.729657 L298.5,271.837259 C298.5,269.156649 298.354067,266.509216 298.095367,263.888323 C298.048933,263.443767 297.9627,262.99921 297.909633,262.554654 C297.650933,260.298696 297.312633,258.069278 296.8682,255.879672 C296.815133,255.627535 296.742167,255.375399 296.6891,255.123262 C295.581333,249.908017 293.949533,244.898463 291.8733,240.107869 L291.8733,238.661402 C291.8733,227.686829 300.801767,218.755888 311.7733,218.755888 L316.3503,218.755888 C320.482867,221.502849 325.1461,223.500036 330.1609,224.548393 L311.939133,303.520202 C311.322233,306.214081 312.43,309.007489 314.725133,310.533578 L334.625133,323.803921 C335.7329,324.54706 337.019767,324.918629 338.3,324.918629 C339.580233,324.918629 340.8671,324.54706 341.9815,323.803921 L361.8815,310.533578 C364.176633,309.007489 365.2844,306.214081 364.6675,303.520202 L346.445733,224.548393 C351.460533,223.500036 356.123767,221.502849 360.256333,218.755888 L364.833333,218.755888 C375.804867,218.755888 384.733333,227.686829 384.733333,238.661402 L384.733333,364.729657 Z" id="Shape" stroke="#FFFFFF" stroke-width="10" fill="#FF4669" stroke-linecap="round"></path>
                        <path d="M306.819843,38.8975536 L301.440833,40.1111573 L303.335273,38.8975536 L292.145785,38.8975536 L282.592131,38.8975536 C280.552836,38.8975536 278.897756,37.1549432 278.897756,35.0077982 L278.897756,3.88975536 C278.897756,1.7426104 280.552836,0 282.592131,0 L341.702134,0 C343.741429,0 345.396509,1.7426104 345.396509,3.88975536 L345.396509,35.0077982 C345.396509,36.8437628 344.177365,38.4268932 342.474258,38.811979 L313.518863,48.6333613 C313.263951,48.6917076 313.001651,48.7189359 312.746739,48.7189359 C311.41307,48.7189359 310.156982,47.9565438 309.503078,46.6884836 C308.71987,45.171479 310.990793,40.115047 312.147132,38.8975536 L306.819843,38.8975536 Z" id="Shape" stroke="#FFFFFF" stroke-width="10" fill="#FF4669"></path>
                        <rect id="Rectangle-path" fill="#FFFFFF" x="297.209975" y="16.8643688" width="4.41083339" height="4.62631057" rx="2.20541669"></rect>
                        <rect id="Rectangle-path" fill="#FFFFFF" x="311.618038" y="16.8643688" width="4.41083339" height="4.62631057" rx="2.20541669"></rect>
                        <rect id="Rectangle-path" fill="#FFFFFF" x="326.580258" y="16.8643688" width="4.41083339" height="4.62631057" rx="2.20541669"></rect>
                    </g>
                    <path d="M322.474071,227.870229 C329.614668,222.62341 335.536113,220 340.238407,220 C344.9407,220 350.862145,222.62341 358.002742,227.870229 L369,348 L311,348 L322.474071,227.870229 Z" id="Rectangle-Copy" fill="#FFFFFF"></path>
                    <path d="M42.4740711,227.08713 C49.6146681,223.029043 55.5361133,221 60.2384067,221 C64.9407,221 70.8621452,223.029043 78.0027423,227.08713 L89,320 L31,320 L42.4740711,227.08713 Z" id="Rectangle-Copy-2" fill="#FFFFFF"></path>
                </g>
                <polyline id="Path-13" fill="url(#linearGradient-1)" filter="url(#filter-2)" points="204.215953 247.656502 203.26039 250.451431 177.786186 324.960995 204.215953 344.019621 230.163561 324.960995"></polyline>
                <rect id="Rectangle-36" fill="#FF4669" x="0" y="83" width="61" height="42" rx="3"></rect>
                <polygon id="Triangle-7" fill="#FF4669" transform="translate(32.500000, 128.250000) scale(-1, -1) translate(-32.500000, -128.250000) " points="32.5 125 41 131.5 24 131.5"></polygon>
                <g id="like-(1)" transform="translate(22.000000, 94.000000)" fill="#FFFFFF" fill-rule="nonzero">
                    <path d="M20,11.7110274 C20,10.9092351 19.37,10.2532232 18.6,10.2532232 C19.37,10.2532232 20,9.59721125 20,8.79541891 C20,7.99362658 19.37,7.33761467 18.6,7.33761467 L12.8600467,7.33761467 C13.714,4.66978432 13.7,3.81944711 13.7,2.18670636 C13.7,0.973764639 12.74492,0 11.6,0 L11.18,0 C10.914,0 10.578,0.218719229 10.5079533,0.553965611 C9.81537333,3.36174517 8.73256667,6.58363832 6,7.23624869 L6,17.7840455 L8.42195333,18.6209709 C9.13595333,18.868749 9.878,19 10.634,19 L17.2,19 C17.97322,19.0000486 18.6,18.3472924 18.6,17.5422444 C18.6,16.7370991 17.97322,16.0844401 17.2,16.0844401 L18.6,16.0844401 C19.37,16.0844401 20,15.4284282 20,14.6266359 C20,13.8248435 19.37,13.1688316 18.6,13.1688316 C19.37,13.1688316 20,12.5128197 20,11.7110274 Z" id="Shape"></path>
                    <path d="M2.5,6 L0.5,6 C0.223633333,6 0,6.31308667 0,6.7 L0,19.3 C0,19.6869133 0.223633333,20 0.5,20 L2.5,20 C3.32713333,20 4,19.0579867 4,17.9 L4,8.1 C4,6.94201333 3.32713333,6 2.5,6 Z M2.5,17.2 C2.22386667,17.2 2,16.8865867 2,16.5 C2,16.11332 2.22386667,15.8 2.5,15.8 C2.77613333,15.8 3,16.11332 3,16.5 C3,16.8865867 2.77613333,17.2 2.5,17.2 Z" id="Shape"></path>
                </g>
                <path d="M10.5,371.5 L396.532382,371.5" id="Line-10" stroke="#FFFFFF" stroke-width="6" stroke-linecap="square"></path>
            </g>
        </g>
    </g>
</svg>