<?xml version="1.0" encoding="UTF-8"?>
<svg width="60px" height="60px" viewBox="0 0 60 60" version="1.1" xmlns="http://www.w3.org/2000/svg" xmlns:xlink="http://www.w3.org/1999/xlink">
    <!-- Generator: Sketch 48.1 (47250) - http://www.bohemiancoding.com/sketch -->
    <title>001-house</title>
    <desc>Created with Sketch.</desc>
    <defs></defs>
    <g id="01-.-home" stroke="none" stroke-width="1" fill="none" fill-rule="evenodd" transform="translate(-472.000000, -5398.000000)">
        <g id="Linh-vực-áp-dung-hiueje-qua-nhất" transform="translate(375.000000, 5263.000000)" fill="#000000" fill-rule="nonzero">
            <g id="#1-copy-6" transform="translate(0.000000, 85.000000)">
                <g id="#1">
                    <g id="Testimonial-left-Copy-6" transform="translate(40.000000, 50.000000)">
                        <g id="001-house" transform="translate(57.000000, 0.000000)">
                            <path d="M14,36.182 L28,36.182 L28,26.182 L14,26.182 L14,36.182 Z M16,34.182 L16,31.182 L26,31.182 L26,34.182 L16,34.182 Z M26,28.182 L26,29.182 L16,29.182 L16,28.182 L26,28.182 Z" id="Shape"></path>
                            <path d="M14,40.182 L14,52.182 L28,52.182 L28,40.182 L14,40.182 Z M20,42.182 L20,45.182 L16,45.182 L16,42.182 L20,42.182 Z M16,47.182 L20,47.182 L20,50.182 L16,50.182 L16,47.182 Z M22,50.182 L22,47.182 L26,47.182 L26,50.182 L22,50.182 Z M26,45.182 L22,45.182 L22,42.182 L26,42.182 L26,45.182 Z" id="Shape"></path>
                            <path d="M32,36.182 L46,36.182 L46,26.182 L32,26.182 L32,36.182 Z M34,34.182 L34,33.182 L44,33.182 L44,34.182 L34,34.182 Z M44,28.182 L44,31.182 L34,31.182 L34,28.182 L44,28.182 Z" id="Shape"></path>
                            <path d="M59,48.182 C58.447,48.182 58,48.63 58,49.182 L58,50.182 L57,50.182 L57,49.182 C57,48.63 56.553,48.182 56,48.182 C55.447,48.182 55,48.63 55,49.182 L55,50.182 L54,50.182 L54,29.978 C54.521,30.212 55.073,30.341 55.626,30.341 C56.699,30.341 57.765,29.905 58.553,29.057 C59.313,28.239 59.698,27.132 59.61,26.019 C59.521,24.907 58.966,23.874 58.088,23.186 L32.722,3.345 L30,0.818 L27.343,3.29 L1.913,23.186 C1.034,23.874 0.479,24.907 0.391,26.019 C0.303,27.132 0.688,28.239 1.448,29.057 C2.642,30.343 4.469,30.667 6.001,29.979 L6.001,50.183 L5,50.183 L5,49.183 C5,48.631 4.553,48.183 4,48.183 C3.447,48.183 3,48.631 3,49.183 L3,50.183 L2,50.183 L2,49.183 C2,48.631 1.553,48.183 1,48.183 C0.447,48.183 0,48.631 0,49.183 L0,58.183 C0,58.735 0.447,59.183 1,59.183 C1.553,59.183 2,58.735 2,58.183 L2,57.183 L3,57.183 L3,58.183 C3,58.735 3.447,59.183 4,59.183 C4.553,59.183 5,58.735 5,58.183 L5,57.183 L6,57.183 L6,59.183 L32,59.183 L46,59.183 L54,59.183 L54,57.183 L55,57.183 L55,58.183 C55,58.735 55.447,59.183 56,59.183 C56.553,59.183 57,58.735 57,58.183 L57,57.183 L58,57.183 L58,58.183 C58,58.735 58.447,59.183 59,59.183 C59.553,59.183 60,58.735 60,58.183 L60,49.183 C60,48.63 59.553,48.182 59,48.182 Z M2.912,27.695 C2.527,27.28 2.34,26.741 2.385,26.177 C2.43,25.613 2.699,25.11 3.146,24.761 L28.64,4.811 L30.001,3.546 L31.425,4.865 L56.855,24.761 C57.301,25.11 57.571,25.613 57.616,26.177 C57.661,26.741 57.473,27.281 57.089,27.695 C56.381,28.457 55.228,28.553 54.403,27.918 L54,27.608 L30,9.108 L6.39,27.308 L6.389,27.309 L5.598,27.918 C4.772,28.553 3.62,28.457 2.912,27.695 Z M2,55.182 L2,52.182 L3,52.182 L3,55.182 L2,55.182 Z M5,55.182 L5,52.182 L6,52.182 L6,55.182 L5,55.182 Z M34,57.182 L34,42.182 L44,42.182 L44,57.182 L34,57.182 Z M52,57.182 L46,57.182 L46,40.182 L32,40.182 L32,57.182 L8,57.182 L8,28.591 L30,11.632 L52,28.591 L52,57.182 Z M54,55.182 L54,52.182 L55,52.182 L55,55.182 L54,55.182 Z M57,55.182 L57,52.182 L58,52.182 L58,55.182 L57,55.182 Z" id="Shape"></path>
                        </g>
                    </g>
                </g>
            </g>
        </g>
    </g>
</svg>