<?xml version="1.0" encoding="UTF-8"?>
<svg width="126px" height="50px" viewBox="0 0 126 50" version="1.1" xmlns="http://www.w3.org/2000/svg" xmlns:xlink="http://www.w3.org/1999/xlink">
    <!-- Generator: Sketch 48.1 (47250) - http://www.bohemiancoding.com/sketch -->
    <title>002-car</title>
    <desc>Created with Sketch.</desc>
    <defs></defs>
    <g id="01-.-home" stroke="none" stroke-width="1" fill="none" fill-rule="evenodd" transform="translate(-749.000000, -5415.000000)">
        <g id="Linh-vực-áp-dung-hiueje-qua-nhất" transform="translate(375.000000, 5263.000000)" fill="#474747" fill-rule="nonzero" stroke="#FFFFFF" stroke-width="1.2">
            <g id="#1-copy-5" transform="translate(300.000000, 85.000000)">
                <g id="#1">
                    <g id="Testimonial-left-Copy-6" transform="translate(40.000000, 68.000000)">
                        <g id="002-car" transform="translate(35.000000, 0.000000)">
                            <path d="M104.267241,38.3034752 L118,38.3034752 L118,32.557954 C118,29.6066712 117.218697,26.7128436 115.762456,24.159917 L115.74505,24.1216135 C115.731513,24.0909708 115.71024,24.0584128 115.694769,24.0258548 C115.677363,23.9952121 115.663826,23.9607389 115.646421,23.9300962 L115.627081,23.895623 C115.095254,22.803974 114.23466,21.6740215 112.904124,20.3582971 C109.599056,17.1101624 105.228399,15.3213901 100.594729,15.3213901 L97.5275338,15.3213901 L92.0584109,15.3213901 L86.6066933,15.3213901 L83.9243477,15.3213901 L66.519077,0 L50.312836,0 L45.4780385,0 L35.8084437,0 L24.2049299,15.3213901 L11.6344565,15.3213901 C8.43575456,15.3213901 5.83269962,17.899214 5.83269962,21.0669114 L5.83269962,38.3034752 L17.6315393,38.3034752 C18.1227547,40.6897817 19.5306477,42.7294418 21.4529632,44.1141124 L0,44.1696525 L0.00773567589,48 L46.421791,47.8793441 L46.4121214,44.0489965 L32.7992658,44.0834697 C34.6983742,42.7007142 36.0907959,40.67063 36.5781434,38.3034752 L85.3167694,38.3034752 C85.8002491,40.6514783 87.1713977,42.6662411 89.0453652,44.0489965 L61.8892749,44.0489965 L61.8892749,47.8793441 L112.171168,47.8793441 L112.171168,44.0489965 L100.538646,44.0489965 C102.412613,42.6662411 103.783762,40.6514783 104.267241,38.3034752 Z M110.080602,22.9820851 L105.26321,22.9820851 L101.420513,19.1766349 C104.675298,19.3700674 107.723155,20.7049435 110.080602,22.9820851 Z M47.4119575,3.83034752 L65.0492985,3.83034752 L78.1032516,15.3213901 L38.7093221,15.3213901 L47.4119575,3.83034752 Z M79.7722237,19.1517376 L73.9704668,28.7276064 L46.4159892,28.7276064 L38.8195555,19.1517376 L79.7722237,19.1517376 Z M37.7423627,3.83034752 L42.5771601,3.83034752 L33.8745247,15.3213901 L30.861479,15.3213901 L29.0397273,15.3213901 L37.7423627,3.83034752 Z M27.1058083,42.1338228 C23.9071063,42.1338228 21.3040514,39.5559989 21.3040514,36.3883015 C21.3040514,33.2206041 23.9071063,30.6427802 27.1058083,30.6427802 C30.3045103,30.6427802 32.9075652,33.2206041 32.9075652,36.3883015 C32.9075652,39.5559989 30.3045103,42.1338228 27.1058083,42.1338228 Z M94.7929723,42.1338228 C91.5942704,42.1338228 88.9912154,39.5559989 88.9912154,36.3883015 C88.9912154,33.2206041 91.5942704,30.6427802 94.7929723,30.6427802 C97.9916743,30.6427802 100.594729,33.2206041 100.594729,36.3883015 C100.594729,39.5559989 97.9916743,42.1338228 94.7929723,42.1338228 Z M100.503835,28.7027092 C100.314311,28.5629015 100.124787,28.4288393 99.9236594,28.304353 C99.6161663,28.1128357 99.2951357,27.9462155 98.9663695,27.7891713 C98.7613741,27.6914974 98.5621804,27.588078 98.3494493,27.5038104 C97.9781369,27.356342 97.5894192,27.2490923 97.1968336,27.1495033 C97.0053756,27.0997087 96.8235873,27.0345928 96.6263275,26.9962894 C96.0306805,26.8813789 95.4176282,26.8124327 94.7891045,26.8124327 C94.1605808,26.8124327 93.5475285,26.8813789 92.9518815,26.9962894 C92.7565557,27.0345928 92.5728334,27.0997087 92.3813754,27.1495033 C91.9887898,27.2510075 91.6000721,27.3582572 91.2287597,27.5038104 C91.0160286,27.588078 90.8168349,27.6914974 90.6118395,27.7891713 C90.2830733,27.9462155 89.9620427,28.1128357 89.6545496,28.304353 C89.4534221,28.4288393 89.263898,28.5648167 89.0743739,28.7027092 C88.7900878,28.9114631 88.5193392,29.1317081 88.2582601,29.3691896 C88.0842074,29.5281491 87.9159565,29.6871085 87.7535073,29.857559 C87.5078996,30.1161074 87.2854989,30.3938076 87.0689,30.6791685 C86.9315917,30.8591948 86.7904156,31.0353908 86.6666448,31.224993 C86.4558476,31.5486574 86.279861,31.8914735 86.1096762,32.2419503 C86.0226498,32.4200614 85.9201521,32.5885967 85.8447293,32.7724534 C85.6339321,33.2838048 85.4637472,33.8162231 85.3438442,34.365878 C85.3361086,34.4003511 85.3206372,34.4329091 85.3129015,34.4673822 C85.3129015,34.4692974 85.3109676,34.4712125 85.3109676,34.4731277 L36.5742756,34.4731277 C36.5742756,34.4712125 36.5723417,34.4692974 36.5723417,34.4673822 C36.564606,34.4329091 36.5491347,34.4022663 36.541399,34.3677932 C36.421496,33.8162231 36.2513111,33.2838048 36.040514,32.7724534 C35.9650911,32.5905119 35.8645273,32.4238918 35.777501,32.2476958 C35.6053822,31.897219 35.4293956,31.5505726 35.2166645,31.224993 C35.0928937,31.0353908 34.9536515,30.86111 34.8163433,30.6810837 C34.5997443,30.3957228 34.3773436,30.1180226 34.129802,29.857559 C33.9673528,29.6871085 33.7991019,29.5281491 33.6250492,29.3691896 C33.365904,29.1317081 33.0951554,28.9114631 32.8089354,28.7027092 C32.6194113,28.5629015 32.4279533,28.4288393 32.2268258,28.3024379 C31.9193326,28.1109205 31.600236,27.9462155 31.2714698,27.7891713 C31.0664744,27.6914974 30.8653468,27.5861629 30.6526157,27.5018952 C30.2813033,27.356342 29.8945195,27.2471771 29.5019339,27.1475881 C29.3104759,27.0977936 29.1267536,27.0307625 28.9294939,26.9943742 C28.3338469,26.8794638 27.7207945,26.8105175 27.0922709,26.8105175 C26.4637472,26.8105175 25.8506949,26.8794638 25.2550479,26.9943742 C25.0577881,27.0326777 24.8759997,27.0977936 24.6826078,27.1475881 C24.2900223,27.2471771 23.9032385,27.356342 23.5319261,27.5018952 C23.319195,27.5861629 23.1180674,27.6895823 22.913072,27.7891713 C22.5843058,27.9462155 22.2652091,28.1109205 21.957716,28.3024379 C21.7565884,28.4288393 21.5670644,28.5629015 21.3756064,28.7027092 C21.0913203,28.9114631 20.8205717,29.1317081 20.5594926,29.3691896 C20.3854399,29.5281491 20.2171889,29.6871085 20.0547397,29.857559 C19.809132,30.1180226 19.5847974,30.3938076 19.3681985,30.6810837 C19.2328242,30.86111 19.0916481,31.0353908 18.9678773,31.224993 C18.7551462,31.5505726 18.5791596,31.8953038 18.4070408,32.2476958 C18.3200144,32.4238918 18.2194506,32.5905119 18.1440278,32.7724534 C17.9312967,33.2838048 17.7630458,33.8162231 17.6431428,34.3677932 C17.6354071,34.4022663 17.6199358,34.4329091 17.6122001,34.4673822 C17.6122001,34.4692974 17.6102662,34.4712125 17.6102662,34.4731277 L9.70053756,34.4731277 L9.70053756,24.8972589 L15.5022945,24.8972589 L15.5022945,21.0669114 L9.70053756,21.0669114 C9.70053756,20.0116506 10.5688672,19.1517376 11.6344565,19.1517376 L21.3040514,19.1517376 L30.9736463,19.1517376 L33.9015996,19.1517376 L44.5381539,32.557954 L76.161597,32.557954 L84.2840566,19.1517376 L88.2737315,19.1517376 L95.9243149,19.1517376 L103.659991,26.8124327 L112.815163,26.8124327 C113.687361,28.601205 114.130228,30.5278698 114.130228,32.557954 L114.130228,34.4731277 L104.267241,34.4731277 C104.267241,34.4712125 104.265307,34.4692974 104.265307,34.4673822 C104.257572,34.4329091 104.2421,34.4003511 104.234365,34.365878 C104.114462,33.8143079 103.944277,33.2838048 103.73348,32.7724534 C103.658057,32.5885967 103.555559,32.4200614 103.468533,32.2419503 C103.298348,31.8933887 103.122361,31.5505726 102.911564,31.224993 C102.787793,31.0353908 102.646617,30.8591948 102.509309,30.6791685 C102.29271,30.3938076 102.070309,30.1180226 101.824702,29.857559 C101.662253,29.6871085 101.494002,29.5281491 101.319949,29.3691896 C101.060804,29.1317081 100.790055,28.9114631 100.503835,28.7027092 Z" id="Shape"></path>
                            <rect id="Rectangle-path" x="50" y="44" width="8" height="4"></rect>
                            <rect id="Rectangle-path" x="116" y="44" width="8" height="4"></rect>
                            <rect id="Rectangle-path" x="25" y="35" width="4" height="4"></rect>
                            <rect id="Rectangle-path" x="93" y="35" width="4" height="4"></rect>
                        </g>
                    </g>
                </g>
            </g>
        </g>
    </g>
</svg>