<?xml version="1.0" encoding="UTF-8"?>
<svg width="75px" height="60px" viewBox="0 0 75 60" version="1.1" xmlns="http://www.w3.org/2000/svg" xmlns:xlink="http://www.w3.org/1999/xlink">
    <!-- Generator: Sketch 48.1 (47250) - http://www.bohemiancoding.com/sketch -->
    <title>005-resort</title>
    <desc>Created with Sketch.</desc>
    <defs></defs>
    <g id="01-.-home" stroke="none" stroke-width="1" fill="none" fill-rule="evenodd" transform="translate(-1070.000000, -5398.000000)">
        <g id="Linh-vực-áp-dung-hiueje-qua-nhất" transform="translate(375.000000, 5263.000000)" fill="#474747" fill-rule="nonzero">
            <g id="#1-copy-2" transform="translate(600.000000, 85.000000)">
                <g id="#1">
                    <g id="Testimonial-left-Copy-6" transform="translate(40.000000, 50.000000)">
                        <g id="005-resort" transform="translate(55.000000, 0.000000)">
                            <path d="M43.7073659,48.7317073 L31.2196098,48.7317073 C30.5303415,48.7317073 29.970878,49.2898537 29.970878,49.980439 L29.970878,58.7218537 C29.970878,59.412439 30.5303415,59.9705854 31.2196098,59.9705854 L43.7073659,59.9705854 C44.3979512,59.9705854 44.9560976,59.412439 44.9560976,58.7218537 L44.9560976,49.980439 C44.9560976,49.2898537 44.3979512,48.7317073 43.7073659,48.7317073 Z M42.4584878,57.473122 L32.4681951,57.473122 L32.4681951,51.2291707 L42.4584878,51.2291707 L42.4584878,57.473122 Z" id="Shape"></path>
                            <rect id="Rectangle-path" x="36.2146829" y="49.980439" width="2.49760976" height="8.74141463"></rect>
                            <path d="M49.9511707,0.0292682927 L24.9756585,0.0292682927 C24.2863902,0.0292682927 23.7269268,0.588731707 23.7269268,1.278 L23.7269268,58.7218537 C23.7269268,59.412439 24.2863902,59.9705854 24.9756585,59.9705854 L49.9513171,59.9705854 C50.6419024,59.9705854 51.2000488,59.412439 51.2000488,58.7218537 L51.2000488,1.278 C51.2000488,0.588731707 50.6417561,0.0292682927 49.9511707,0.0292682927 Z M48.702439,57.473122 L26.2243902,57.473122 L26.2243902,2.52687805 L48.702439,2.52687805 L48.702439,57.473122 Z" id="Shape"></path>
                            <path d="M24.9756585,5.02434146 L14.9853659,5.02434146 C14.2960976,5.02434146 13.7366341,5.58380488 13.7366341,6.27307317 L13.7366341,58.7218537 C13.7366341,59.412439 14.2960976,59.9705854 14.9853659,59.9705854 L24.9756585,59.9705854 C25.6649268,59.9705854 26.2243902,59.412439 26.2243902,58.7218537 L26.2243902,6.27307317 C26.2243902,5.58380488 25.6649268,5.02434146 24.9756585,5.02434146 Z M23.7267805,57.473122 L16.2340976,57.473122 L16.2340976,7.52195122 L23.7267805,7.52195122 L23.7267805,57.473122 Z" id="Shape"></path>
                            <rect id="Rectangle-path" x="11.2390244" y="5.02434146" width="3.74634146" height="2.49760976"></rect>
                            <rect id="Rectangle-path" x="21.2293171" y="0.0292682927" width="32.4683415" height="2.49760976"></rect>
                            <rect id="Rectangle-path" x="28.722" y="42.4877561" width="2.49760976" height="3.74634146"></rect>
                            <rect id="Rectangle-path" x="33.7170732" y="42.4877561" width="2.49760976" height="3.74634146"></rect>
                            <rect id="Rectangle-path" x="38.7121463" y="42.4877561" width="2.49760976" height="3.74634146"></rect>
                            <rect id="Rectangle-path" x="43.7073659" y="42.4877561" width="2.49760976" height="3.74634146"></rect>
                            <rect id="Rectangle-path" x="28.722" y="36.2439512" width="2.49760976" height="3.74634146"></rect>
                            <rect id="Rectangle-path" x="33.7170732" y="36.2439512" width="2.49760976" height="3.74634146"></rect>
                            <rect id="Rectangle-path" x="38.7121463" y="36.2439512" width="2.49760976" height="3.74634146"></rect>
                            <rect id="Rectangle-path" x="43.7073659" y="36.2439512" width="2.49760976" height="3.74634146"></rect>
                            <rect id="Rectangle-path" x="28.722" y="30" width="2.49760976" height="3.74634146"></rect>
                            <rect id="Rectangle-path" x="33.7170732" y="30" width="2.49760976" height="3.74634146"></rect>
                            <rect id="Rectangle-path" x="38.7121463" y="30" width="2.49760976" height="3.74634146"></rect>
                            <rect id="Rectangle-path" x="43.7073659" y="30" width="2.49760976" height="3.74634146"></rect>
                            <rect id="Rectangle-path" x="28.722" y="23.7560488" width="2.49760976" height="3.74634146"></rect>
                            <rect id="Rectangle-path" x="33.7170732" y="23.7560488" width="2.49760976" height="3.74634146"></rect>
                            <rect id="Rectangle-path" x="38.7121463" y="23.7560488" width="2.49760976" height="3.74634146"></rect>
                            <rect id="Rectangle-path" x="43.7073659" y="23.7560488" width="2.49760976" height="3.74634146"></rect>
                            <rect id="Rectangle-path" x="28.722" y="17.5122439" width="2.49760976" height="3.74634146"></rect>
                            <rect id="Rectangle-path" x="33.7170732" y="17.5122439" width="2.49760976" height="3.74634146"></rect>
                            <rect id="Rectangle-path" x="38.7121463" y="17.5122439" width="2.49760976" height="3.74634146"></rect>
                            <rect id="Rectangle-path" x="43.7073659" y="17.5122439" width="2.49760976" height="3.74634146"></rect>
                            <rect id="Rectangle-path" x="28.722" y="11.2682927" width="2.49760976" height="3.74634146"></rect>
                            <rect id="Rectangle-path" x="33.7170732" y="11.2682927" width="2.49760976" height="3.74634146"></rect>
                            <rect id="Rectangle-path" x="38.7121463" y="11.2682927" width="2.49760976" height="3.74634146"></rect>
                            <rect id="Rectangle-path" x="43.7073659" y="11.2682927" width="2.49760976" height="3.74634146"></rect>
                            <rect id="Rectangle-path" x="28.722" y="5.02434146" width="2.49760976" height="3.74634146"></rect>
                            <rect id="Rectangle-path" x="33.7170732" y="5.02434146" width="2.49760976" height="3.74634146"></rect>
                            <rect id="Rectangle-path" x="38.7121463" y="5.02434146" width="2.49760976" height="3.74634146"></rect>
                            <rect id="Rectangle-path" x="43.7073659" y="5.02434146" width="2.49760976" height="3.74634146"></rect>
                            <rect id="Rectangle-path" x="18.7317073" y="48.7317073" width="2.49760976" height="3.74634146"></rect>
                            <rect id="Rectangle-path" x="18.7317073" y="42.4877561" width="2.49760976" height="3.74634146"></rect>
                            <rect id="Rectangle-path" x="18.7317073" y="36.2439512" width="2.49760976" height="3.74634146"></rect>
                            <rect id="Rectangle-path" x="18.7317073" y="30" width="2.49760976" height="3.74634146"></rect>
                            <rect id="Rectangle-path" x="18.7317073" y="23.7560488" width="2.49760976" height="3.74634146"></rect>
                            <rect id="Rectangle-path" x="18.7317073" y="17.5122439" width="2.49760976" height="3.74634146"></rect>
                            <rect id="Rectangle-path" x="18.7317073" y="11.2682927" width="2.49760976" height="3.74634146"></rect>
                            <path d="M59.9414634,5.02434146 L49.9511707,5.02434146 C49.2605854,5.02434146 48.702439,5.58380488 48.702439,6.27307317 L48.702439,58.7218537 C48.702439,59.412439 49.2605854,59.9705854 49.9511707,59.9705854 L59.9414634,59.9705854 C60.6320488,59.9705854 61.1901951,59.412439 61.1901951,58.7218537 L61.1901951,6.27307317 C61.1901951,5.58380488 60.6320488,5.02434146 59.9414634,5.02434146 Z M58.6927317,57.473122 L51.2000488,57.473122 L51.2000488,7.52195122 L58.6927317,7.52195122 L58.6927317,57.473122 Z" id="Shape"></path>
                            <rect id="Rectangle-path" x="59.9414634" y="5.02434146" width="3.74634146" height="2.49760976"></rect>
                            <rect id="Rectangle-path" x="53.6975122" y="48.7317073" width="2.49760976" height="3.74634146"></rect>
                            <rect id="Rectangle-path" x="53.6975122" y="42.4877561" width="2.49760976" height="3.74634146"></rect>
                            <rect id="Rectangle-path" x="53.6975122" y="36.2439512" width="2.49760976" height="3.74634146"></rect>
                            <rect id="Rectangle-path" x="53.6975122" y="30" width="2.49760976" height="3.74634146"></rect>
                            <rect id="Rectangle-path" x="53.6975122" y="23.7560488" width="2.49760976" height="3.74634146"></rect>
                            <rect id="Rectangle-path" x="53.6975122" y="17.5122439" width="2.49760976" height="3.74634146"></rect>
                            <rect id="Rectangle-path" x="53.6975122" y="11.2682927" width="2.49760976" height="3.74634146"></rect>
                            <rect id="Rectangle-path" x="0" y="57.473122" width="14.9853659" height="2.49760976"></rect>
                            <rect id="Rectangle-path" x="59.9414634" y="57.473122" width="14.9853659" height="2.49760976"></rect>
                            <rect id="Rectangle-path" x="4.99507317" y="32.4976098" width="2.49760976" height="26.2243902"></rect>
                            <rect id="Rectangle-path" transform="translate(6.243907, 38.741502) rotate(-53.130102) translate(-6.243907, -38.741502) " x="4.99510244" y="32.4976244" width="2.49760976" height="12.4877561"></rect>
                            <rect id="Rectangle-path" transform="translate(6.241344, 38.743097) rotate(-36.882502) translate(-6.241344, -38.743097) " x="-0.00307678866" y="37.4942425" width="12.4888413" height="2.49770972"></rect>
                            <rect id="Rectangle-path" x="67.4341463" y="32.4976098" width="2.49760976" height="26.2243902"></rect>
                            <rect id="Rectangle-path" transform="translate(68.682527, 38.741868) rotate(-53.130102) translate(-68.682527, -38.741868) " x="67.4343805" y="32.4979902" width="2.49629268" height="12.4877561"></rect>
                            <rect id="Rectangle-path" transform="translate(68.675572, 38.746937) rotate(-36.857292) translate(-68.675572, -38.746937) " x="62.4321633" y="37.498914" width="12.4868179" height="2.49604656"></rect>
                        </g>
                    </g>
                </g>
            </g>
        </g>
    </g>
</svg>