<?xml version="1.0" encoding="UTF-8"?>
<svg width="61px" height="60px" viewBox="0 0 61 60" version="1.1" xmlns="http://www.w3.org/2000/svg" xmlns:xlink="http://www.w3.org/1999/xlink">
    <!-- Generator: Sketch 48.1 (47250) - http://www.bohemiancoding.com/sketch -->
    <title>004-cooking</title>
    <desc>Created with Sketch.</desc>
    <defs></defs>
    <g id="01-.-home" stroke="none" stroke-width="1" fill="none" fill-rule="evenodd" transform="translate(-1376.000000, -5398.000000)">
        <g id="Linh-vực-áp-dung-hiueje-qua-nhất" transform="translate(375.000000, 5263.000000)" fill="#474747" fill-rule="nonzero">
            <g id="#1-copy-3" transform="translate(900.000000, 85.000000)">
                <g id="#1">
                    <g id="Testimonial-left-Copy-6" transform="translate(40.000000, 50.000000)">
                        <g id="004-cooking" transform="translate(61.000000, 0.000000)">
                            <path d="M59.8731501,53.8371247 L53.6828753,53.8371247 L52.1799577,39.5609302 L53.8432135,42.0553066 L54.255222,44.1183932 C54.4541226,45.1128964 55.0792389,45.9592389 55.9712474,46.4432981 C56.4766173,46.7172939 57.0317125,46.8553066 57.589852,46.8553066 C58.0170825,46.8553066 58.4463425,46.7741226 58.8553066,46.61074 C59.7361522,46.2586047 60.434334,45.5482452 60.7722622,44.6613108 C61.1091755,43.7743763 61.0594503,42.7798732 60.6352643,41.9304863 L59.7665962,40.1921353 C59.7635518,40.1850317 59.757463,40.1809725 59.7534038,40.1748837 C59.7513742,40.1698097 59.7513742,40.1647357 59.7493446,40.1596617 L53.6605497,28.996871 C53.547907,28.789852 53.3652431,28.6284989 53.1470613,28.5402114 L50.3969556,27.4401691 C52.4610571,25.7637209 53.7843552,23.2084567 53.7843552,20.3487526 C53.7843552,18.8194503 53.3814799,17.3134884 52.6406765,15.9658351 L52.1170402,10.7274419 C53.7508668,10.0353488 54.7991543,8.67653277 54.7991543,7.15636364 C54.7991543,4.97150106 52.6305285,3.18443975 49.925074,3.10021142 C48.8463425,1.22790698 46.8461734,0.052769556 44.6511628,0.052769556 C42.4561522,0.052769556 40.4559831,1.22790698 39.3772516,3.10021142 C36.671797,3.18443975 34.5031712,4.97150106 34.5031712,7.15636364 C34.5031712,8.67653277 35.5514588,10.0353488 37.1852854,10.7274419 L36.661649,15.9658351 C35.9208457,17.3134884 35.5179704,18.8194503 35.5179704,20.3487526 C35.5179704,23.2084567 36.8412685,25.7637209 38.9063848,27.4391543 L36.1562791,28.5391966 C35.9939112,28.6041438 35.8508245,28.7106977 35.7412262,28.8476956 L32.3162791,33.1291332 L28.1779281,29.8188584 L27.0728118,27.9769979 C26.885074,27.6634249 26.6455814,27.3975476 26.3868076,27.1550106 L26.3868076,24.4079493 C26.3868076,23.0866808 25.5353911,21.9704017 24.3572093,21.5502748 L24.3572093,17.3043552 L25.3720085,17.3043552 C27.0504863,17.3043552 28.4164059,15.9384355 28.4164059,14.2599577 L28.4164059,8.17116279 C28.4164059,6.49268499 27.0504863,5.12676533 25.3720085,5.12676533 L21.3128118,5.12676533 C19.634334,5.12676533 18.2684144,6.49268499 18.2684144,8.17116279 L18.2684144,14.2599577 C18.2684144,15.9384355 19.634334,17.3043552 21.3128118,17.3043552 L22.327611,17.3043552 L22.327611,21.5502748 C21.1494292,21.9704017 20.2980127,23.0866808 20.2980127,24.4079493 L20.2980127,28.4671459 C20.2980127,28.4681607 20.2980127,28.4701903 20.2980127,28.4712051 C20.0443129,29.0750106 19.9306554,29.7336152 20.0128541,30.4074419 C20.1579704,31.5815645 20.8226638,32.604482 21.8364482,33.2133615 L23.7564482,34.3651586 L30.502833,40.2682452 C31.6363636,41.2586892 33.2975899,41.28 34.4564905,40.314926 L37.2928541,37.950444 L35.6194503,53.8371247 L17.8787315,53.8371247 L19.0690909,51.4564059 C20.9687949,50.7227061 22.3255814,48.8889641 22.3255814,46.7335307 L22.3255814,44.5172093 C23.5037632,44.0970825 24.3551797,42.9808034 24.3551797,41.6595349 C24.3551797,39.9810571 22.98926,38.6151374 21.3107822,38.6151374 L3.04439746,38.6151374 C1.36591966,38.6151374 0,39.9810571 0,41.6595349 C0,42.9808034 0.85141649,44.0970825 2.02959831,44.5172093 L2.02959831,46.7335307 C2.02959831,48.8889641 3.38638478,50.7227061 5.28608879,51.4564059 L6.4764482,53.8371247 L1.01479915,53.8371247 C0.454630021,53.8371247 0,54.2917548 0,54.8519239 L0,58.9111205 C0,59.4712896 0.454630021,59.9259197 1.01479915,59.9259197 L59.8731501,59.9259197 C60.4333192,59.9259197 60.8879493,59.4712896 60.8879493,58.9111205 L60.8879493,54.8519239 C60.8879493,54.2917548 60.4333192,53.8371247 59.8731501,53.8371247 Z M22.3255814,15.2747569 L21.3107822,15.2747569 C20.7516279,15.2747569 20.2959831,14.8191121 20.2959831,14.2599577 L20.2959831,8.17116279 C20.2959831,7.61200846 20.7516279,7.15636364 21.3107822,7.15636364 L22.3255814,7.15636364 L22.3255814,15.2747569 Z M58.8197886,42.8367019 C58.9933192,43.1837632 59.0136152,43.5754757 58.8756025,43.9387738 C58.7375899,44.3010571 58.4625793,44.5811416 58.1023256,44.7252431 C57.7238055,44.8764482 57.2986047,44.852093 56.9393658,44.6572516 C56.5801268,44.4624101 56.3264271,44.1204228 56.2462579,43.7195772 L55.9844397,42.4094715 L58.3154334,41.8269767 L58.8197886,42.8367019 Z M52.0541226,30.2887104 L57.3391966,39.9780127 L55.2466808,40.5006342 L51.6786469,35.1485835 L50.2051586,29.5489218 L52.0541226,30.2887104 Z M49.8266385,36.5855391 L51.643129,53.8371247 L37.6602114,53.8371247 L39.4756871,36.5855391 L49.8266385,36.5855391 Z M39.8795772,34.5559408 L41.3753911,28.8679915 C41.4159831,28.8832135 41.4575899,28.8943763 41.4981818,28.9085835 C41.7021564,28.9836786 41.9071459,29.0557294 42.1172093,29.1166173 C42.1973784,29.1399577 42.2785624,29.1582241 42.3587315,29.1785201 C42.5525581,29.22926 42.7463848,29.2779704 42.9442706,29.315518 C43.0437209,29.3347992 43.144186,29.3459619 43.2436364,29.3611839 C43.427315,29.3895983 43.6099789,29.4200423 43.7967019,29.4383087 C43.927611,29.4504863 44.0595349,29.4515011 44.190444,29.4586047 C44.3446934,29.466723 44.4958985,29.481945 44.6511628,29.481945 C44.8064271,29.481945 44.9576321,29.466723 45.1118816,29.4586047 C45.2438055,29.4515011 45.3747146,29.4504863 45.5056237,29.4383087 C45.6923467,29.4210571 45.8750106,29.3906131 46.0586892,29.3611839 C46.1581395,29.3459619 46.2586047,29.3347992 46.358055,29.315518 C46.5559408,29.2779704 46.7497674,29.2282452 46.9435941,29.1785201 C47.0237632,29.1572093 47.1049471,29.1399577 47.1851163,29.1166173 C47.3951797,29.0557294 47.6011839,28.9846934 47.8041438,28.9085835 C47.8447357,28.8933615 47.8863425,28.8832135 47.9269345,28.8679915 L49.4237632,34.5559408 L39.8795772,34.5559408 Z M36.5327696,7.15636364 C36.5327696,6.05632135 37.9271036,5.12676533 39.577167,5.12676533 C39.6360254,5.12676533 39.6918393,5.13386892 39.7486681,5.13995772 L39.9120507,5.1551797 C40.3392812,5.18054968 40.74926,4.94207188 40.9217759,4.54325581 C41.563129,3.04845666 43.0274841,2.08236786 44.6511628,2.08236786 C46.2748414,2.08236786 47.7391966,3.04845666 48.3815645,4.54325581 C48.5530655,4.94207188 48.9691332,5.18866808 49.3912896,5.1551797 L49.5546723,5.13995772 C49.6104863,5.13386892 49.6663002,5.12676533 49.7251586,5.12676533 C51.375222,5.12676533 52.769556,6.05632135 52.769556,7.15636364 C52.769556,7.96718816 51.9495983,8.74249471 50.7754757,9.04287526 C50.2893869,9.16668076 49.9666808,9.62739958 50.0164059,10.1266808 L50.6334038,16.289556 L38.6689218,16.289556 L39.2849049,10.1276956 C39.33463,9.62841438 39.0119239,9.16769556 38.5258351,9.04389006 C37.3527273,8.74249471 36.5327696,7.96718816 36.5327696,7.15636364 Z M37.5475687,20.3487526 C37.5475687,19.6607188 37.6500634,18.9767442 37.8469345,18.3191543 L51.4543763,18.3191543 C51.6522622,18.9767442 51.7547569,19.6607188 51.7547569,20.3487526 C51.7547569,23.1658351 50.101649,25.5983087 47.7189006,26.7460465 C47.4885412,26.8566596 47.2531078,26.9550951 47.01463,27.0393235 C47.0034672,27.0433827 46.9923044,27.0474419 46.9811416,27.0515011 C45.4690909,27.5802114 43.8312051,27.5802114 42.3191543,27.0515011 C42.3079915,27.0474419 42.2968288,27.0433827 42.285666,27.0393235 C42.0471882,26.9550951 41.8127696,26.8566596 41.5813953,26.7460465 C39.2006765,25.5983087 37.5475687,23.1658351 37.5475687,20.3487526 Z M24.3551797,7.15636364 L25.3699789,7.15636364 C25.9291332,7.15636364 26.384778,7.61200846 26.384778,8.17116279 L26.384778,14.2599577 C26.384778,14.8191121 25.9291332,15.2747569 25.3699789,15.2747569 L24.3551797,15.2747569 L24.3551797,7.15636364 Z M23.3403805,23.3931501 C23.8995349,23.3931501 24.3551797,23.8487949 24.3551797,24.4079493 L24.3551797,26.1716702 C24.3490909,26.1706554 24.3419873,26.1706554 24.3358985,26.1696406 C24.3115433,26.1665962 24.2902326,26.1554334 24.2658774,26.152389 C24.2100634,26.1452854 24.1552643,26.1554334 24.1004651,26.1503594 C23.9238901,26.1361522 23.7493446,26.1341226 23.5727696,26.1442706 C23.484482,26.1493446 23.3972093,26.1493446 23.3109514,26.1605074 C23.1019027,26.1868922 22.8979281,26.2356025 22.6959831,26.2964905 C22.6097252,26.3228753 22.5265116,26.3502748 22.4422833,26.3817336 C22.4037209,26.3959408 22.3641438,26.405074 22.3265962,26.420296 L22.3265962,24.4079493 L22.3255814,24.4079493 C22.3255814,23.8487949 22.7812262,23.3931501 23.3403805,23.3931501 Z M22.8806765,31.472981 C22.4047357,31.1878224 22.0931924,30.7088372 22.0262156,30.1588161 C21.9815645,29.800592 22.0556448,29.4504863 22.2139535,29.1389429 C22.2180127,29.1308245 22.2251163,29.1257505 22.2291755,29.1176321 C22.2728118,29.0344186 22.3164482,28.9633827 22.3610994,28.8974207 C22.4158985,28.8213108 22.4696829,28.744186 22.5366596,28.6772093 C22.6787315,28.5341226 22.8441438,28.4255391 23.0176744,28.3413108 C23.0318816,28.3342072 23.0460888,28.325074 23.060296,28.3179704 C23.2338266,28.2398309 23.4185201,28.1911205 23.6072727,28.1718393 C23.6214799,28.1708245 23.6346723,28.1687949 23.6488795,28.1677801 C23.8325581,28.1525581 24.0182664,28.1687949 24.2009302,28.2104017 C24.2202114,28.2144609 24.2394926,28.2185201 24.257759,28.2235941 C24.4475264,28.274334 24.6322199,28.3524736 24.8016913,28.4681607 C24.8067653,28.4712051 24.8128541,28.4732347 24.8179281,28.4762791 C25.0219027,28.618351 25.1994926,28.8 25.3324313,29.0212262 L26.1229598,30.3394503 L24.1989006,32.2635095 L22.8806765,31.472981 Z M33.155518,38.7551797 C32.7698943,39.0758562 32.2147992,39.0707822 31.8372939,38.7399577 L25.8388161,33.4914165 L27.4736575,31.8565751 L31.8383087,35.3484989 C32.2746723,35.6986047 32.9139958,35.6285835 33.2641015,35.1901903 L37.1558562,30.3252431 L39.0951374,29.5499366 L37.6612262,35.0004228 L33.155518,38.7551797 Z M3.04439746,42.674334 C2.48524313,42.674334 2.02959831,42.2186892 2.02959831,41.6595349 C2.02959831,41.1003805 2.48524313,40.6447357 3.04439746,40.6447357 L21.3107822,40.6447357 C21.8699366,40.6447357 22.3255814,41.1003805 22.3255814,41.6595349 C22.3255814,42.2186892 21.8699366,42.674334 21.3107822,42.674334 L3.04439746,42.674334 Z M4.05919662,46.7335307 L4.05919662,44.7039323 L20.2959831,44.7039323 L20.2959831,46.7335307 C20.2959831,48.4120085 18.9300634,49.7779281 17.2515856,49.7779281 L7.10359408,49.7779281 C5.42511628,49.7779281 4.05919662,48.4120085 4.05919662,46.7335307 Z M16.6244397,51.8075264 L15.6096406,53.8371247 L13.192389,53.8371247 L13.192389,51.8075264 L16.6244397,51.8075264 Z M11.1627907,51.8075264 L11.1627907,53.8371247 L8.74553911,53.8371247 L7.73073996,51.8075264 L11.1627907,51.8075264 Z M58.858351,57.8963214 L2.02959831,57.8963214 L2.02959831,55.866723 L8.11839323,55.866723 L16.2367865,55.866723 L36.5327696,55.866723 L52.769556,55.866723 L58.858351,55.866723 L58.858351,57.8963214 Z" id="Shape"></path>
                            <path d="M47.6955603,40.6447357 L41.6067653,40.6447357 C41.0465962,40.6447357 40.5919662,41.0993658 40.5919662,41.6595349 L40.5919662,44.7039323 C40.5919662,46.9425793 42.4125159,48.763129 44.6511628,48.763129 C46.8898097,48.763129 48.7103594,46.9425793 48.7103594,44.7039323 L48.7103594,41.6595349 C48.7103594,41.0993658 48.2557294,40.6447357 47.6955603,40.6447357 Z M46.6807611,44.7039323 C46.6807611,45.8232558 45.7704863,46.7335307 44.6511628,46.7335307 C43.5318393,46.7335307 42.6215645,45.8232558 42.6215645,44.7039323 L42.6215645,42.674334 L46.6807611,42.674334 L46.6807611,44.7039323 Z" id="Shape"></path>
                            <rect id="Rectangle-path" x="11.1627907" y="30.4967442" width="2.02959831" height="5.07399577"></rect>
                            <rect id="Rectangle-path" x="16.2367865" y="32.5263425" width="2.02959831" height="4.05919662"></rect>
                            <rect id="Rectangle-path" x="6.08879493" y="32.5263425" width="2.02959831" height="4.05919662"></rect>
                            <rect id="Rectangle-path" x="11.1627907" y="26.4375476" width="2.02959831" height="2.02959831"></rect>
                            <rect id="Rectangle-path" x="6.08879493" y="28.4671459" width="2.02959831" height="2.02959831"></rect>
                            <rect id="Rectangle-path" x="16.2367865" y="28.4671459" width="2.02959831" height="2.02959831"></rect>
                        </g>
                    </g>
                </g>
            </g>
        </g>
    </g>
</svg>