<?xml version="1.0" encoding="UTF-8"?>
<svg width="60px" height="60px" viewBox="0 0 60 60" version="1.1" xmlns="http://www.w3.org/2000/svg" xmlns:xlink="http://www.w3.org/1999/xlink">
    <!-- Generator: Sketch 48.1 (47250) - http://www.bohemiancoding.com/sketch -->
    <title>003-make-up</title>
    <desc>Created with Sketch.</desc>
    <defs></defs>
    <g id="01-.-home" stroke="none" stroke-width="1" fill="none" fill-rule="evenodd" transform="translate(-476.000000, -5638.000000)">
        <g id="Linh-vực-áp-dung-hiueje-qua-nhất" transform="translate(375.000000, 5263.000000)" fill="#000000" fill-rule="nonzero">
            <g id="#1-copy-4" transform="translate(0.000000, 325.000000)">
                <g id="#1">
                    <g id="Testimonial-left-Copy-6" transform="translate(40.000000, 50.000000)">
                        <g id="003-make-up" transform="translate(61.000000, 0.000000)">
                            <path d="M58.205625,26.9935547 C56.7496875,22.7996484 53.9336719,17.9421094 50.27625,13.3154297 C46.6188281,8.68898438 42.5422266,4.82789062 38.7976172,2.44335937 C34.7935547,-0.106054688 31.5427734,-0.682851563 29.6430469,0.818671875 L26.3033203,3.45890625 C24.4037109,4.96066406 24.2149219,8.25703125 25.7714063,12.7413281 C27.1750781,16.7845313 29.8429688,21.4442578 33.3098438,25.9192969 C32.3524219,25.9402734 31.40625,25.9822266 30.4760156,26.0451563 C25.4642578,19.8523828 20.1052734,14.9755078 19.0628906,14.0442188 C18.6066797,12.6621094 17.9691797,11.2645313 17.1610547,9.88570313 C16.9155469,9.46699219 16.3768359,9.32648438 15.9582422,9.571875 C15.5394141,9.81738281 15.3989063,10.3558594 15.6444141,10.7746875 C16.3346484,11.9521875 16.8902344,13.1402344 17.3000391,14.3131641 L16.2234375,15.4114453 L10.6599609,9.95753906 C10.3133203,9.61769531 9.75667969,9.62320313 9.41695313,9.96996094 C9.07722656,10.3166016 9.08273438,10.873125 9.42925781,11.2129688 L14.9928516,16.666875 L13.0913672,18.6065625 L7.52777344,13.1526563 C7.18113281,12.8128125 6.62449219,12.8183203 6.28476563,13.1650781 C5.94503906,13.5117188 5.95054688,14.0682422 6.29707031,14.4080859 L11.8606641,19.8619922 L10.7840625,20.9602734 C7.32808594,19.8307031 4.42710938,17.6910938 2.56921875,16.0572656 C2.10070313,15.6452344 1.83,15.0757031 1.80703125,14.4533203 C1.7840625,13.8324609 2.0109375,13.2462891 2.44617188,12.8023828 L8.97808594,6.13875 C9.41308594,5.69484375 9.99234375,5.45589844 10.6158984,5.46703125 C11.2386328,5.47769531 11.8134375,5.73691406 12.2348438,6.19722656 C12.6235547,6.62191406 13.0038281,7.06230469 13.3645313,7.50597656 C13.6707422,7.88273437 14.2244531,7.93992187 14.6009766,7.63347656 C14.9776172,7.32726562 15.0348047,6.77367187 14.7284766,6.39703125 C14.3462109,5.92664062 13.9433203,5.46 13.5315234,5.01011719 C12.7810547,4.19015625 11.75625,3.72820312 10.6458984,3.70921875 C9.53765625,3.69140625 8.49902344,4.11597656 7.72265625,4.90804687 L1.190625,11.5716797 C0.414140625,12.36375 0.009140625,13.4102344 0.0502734375,14.5183594 C0.09140625,15.6280078 0.57375,16.6434375 1.40847656,17.3773828 C3.44707031,19.1702344 6.67335938,21.5355469 10.5520313,22.7298047 C11.1858984,23.4118359 13.5957422,25.9619531 16.9673438,29.0122266 C13.8234375,30.4760156 12.1198828,32.3283984 12.1198828,34.3389844 C12.1198828,34.8767578 12.2422266,35.4029297 12.4807031,35.91375 C12.4845703,35.9241797 12.4875,35.9348438 12.4917188,35.9452734 L14.7284766,41.4219141 C15.5484375,43.4296875 17.2018359,44.9588672 19.2644531,45.6171094 C21.991875,46.4874609 26.8870313,47.5250391 34.7189063,47.5250391 C40.3314844,47.5250391 44.4460547,46.9971094 47.3714063,46.3587891 L54.5196094,53.3661328 C55.6865625,54.5101172 55.7032031,56.1874219 54.5593359,57.3544922 C53.9901563,57.9350391 53.2985156,58.2416016 52.5582422,58.2416016 C52.5541406,58.2416016 52.5500391,58.2416016 52.5458203,58.2416016 C51.8264063,58.2382031 51.1251563,57.9373828 50.5710938,57.3942187 L41.4478125,48.4509375 C41.1011719,48.1110937 40.5445313,48.1168359 40.2049219,48.4633594 C39.8650781,48.81 39.8705859,49.3665234 40.2172266,49.7063672 L49.3405078,58.6496484 C50.2229297,59.5147266 51.3583594,59.9942578 52.5377344,59.9996484 C52.5445313,59.9996484 52.5512109,59.9996484 52.5580078,59.9996484 C53.7642188,59.9996484 54.9202734,59.4977344 55.8148828,58.5850781 C57.6420703,56.7212109 57.6144141,53.9378906 55.7504297,52.1107031 L49.3726172,45.8585156 C49.8782813,45.714375 50.3333203,45.5698828 50.7383203,45.429375 C52.4676563,44.8292578 53.8552734,43.5158203 54.5451563,41.8257422 L56.4001172,37.2830859 L57.6745313,36.275625 C57.6751172,36.2751562 57.6757031,36.2745703 57.6762891,36.2741016 C59.5734375,34.7721094 59.7617578,31.4763281 58.205625,26.9935547 Z M12.2526562,21.9734766 L18.3419531,15.7617188 C19.8985547,17.1808594 24.1604297,21.1901953 28.3512891,26.2273828 C23.8877344,26.7823828 18.8719922,28.2362109 18.7733203,28.2719531 C15.6580078,25.4966016 13.2853125,23.0621484 12.2526562,21.9734766 Z M13.8773438,34.3393359 C13.8773438,32.7705469 16.0348828,31.0832812 19.6490625,29.8259766 C23.4825,28.4921484 29.2723828,27.7814062 34.7576953,27.7208203 C35.5528125,28.6742578 36.3636328,29.5897266 37.1830078,30.4606641 C36.3652734,30.4260937 35.5421484,30.4073437 34.7187891,30.4073437 C30.1744922,30.4073437 25.7424609,30.9367969 22.2392578,31.8978516 C21.5203125,32.0950781 20.8412109,32.31 20.2208203,32.536875 C19.4542969,32.8169531 18.9591797,33.5246484 18.9591797,34.3395703 C18.9591797,35.1544922 19.4545313,35.8620703 20.2207031,36.1421484 C20.8409766,36.3689062 21.5201953,36.5839453 22.2392578,36.7812891 C22.7878125,36.9317578 24.0892969,37.2240234 24.1512891,37.2240234 C24.5557031,37.2240234 24.9196875,36.9432422 25.0093359,36.5319141 C25.1126953,36.0575391 24.8119922,35.5892578 24.3376172,35.4858984 C23.7725391,35.3627344 23.2230469,35.2282031 22.704375,35.0859375 C22.0317188,34.9014844 21.3992578,34.7013281 20.8242188,34.4910937 C20.7949219,34.4804297 20.7171094,34.4519531 20.7171094,34.3396875 C20.7171094,34.2274219 20.7949219,34.1989453 20.8242188,34.1882812 C21.399375,33.9781641 22.0318359,33.7780078 22.704375,33.5934375 C26.0602734,32.6726953 30.3271875,32.1655078 34.7187891,32.1655078 C36.1672266,32.1655078 37.614375,32.2230469 39.0277734,32.3326172 C40.3965234,33.6556641 41.7735938,34.8419531 43.1264063,35.8614844 C40.5266016,36.2896875 37.6604297,36.5138672 34.7187891,36.5138672 C32.5380469,36.5138672 30.3891797,36.3901172 28.3318359,36.1458984 C27.8487891,36.088125 27.4125,36.433125 27.3553125,36.9152344 C27.298125,37.3973437 27.6425391,37.8344531 28.1246484,37.8917578 C30.2503125,38.1440625 32.4690234,38.2719141 34.7186719,38.2719141 C38.4216797,38.2719141 42.0173438,37.9260937 45.1490625,37.2719531 C45.1592578,37.2783984 45.1694531,37.2853125 45.1796484,37.2917578 C46.4948438,38.1292969 47.7277734,38.7520312 48.8592188,39.1600781 C45.0082031,40.3525781 40.0244531,41.0177344 34.7187891,41.0177344 C22.4367188,41.0173828 13.8773438,37.4980078 13.8773438,34.3393359 Z M52.9169531,41.1615234 C52.4177344,42.3840234 51.4133203,43.3342969 50.1611719,43.7688281 C47.5337109,44.6805469 42.7216406,45.7673437 34.7183203,45.7673437 C27.1125,45.7673437 22.4067188,44.775 19.7982422,43.9426172 C18.2328516,43.4429297 16.9778906,42.2821875 16.3552734,40.7575781 L15.6237891,38.9666016 C16.5878906,39.5307422 17.7398438,40.05 19.0709766,40.5132422 C23.2639453,41.9721094 28.8209766,42.7755469 34.7185547,42.7755469 C41.4513281,42.7755469 48.1529297,41.5332422 52.4228906,39.6905859 C52.8733594,39.6317578 53.2877344,39.5108203 53.6647266,39.3297656 L52.9169531,41.1615234 Z M53.2439063,37.5371484 C52.0135547,38.5098047 49.3517578,37.86375 46.1239453,35.8085156 C42.5409375,33.526875 38.6187891,29.8051172 35.0799609,25.3290234 C27.463125,15.6939844 24.9158203,6.796875 27.3935156,4.83808594 L28.0846875,4.29164062 C27.9842578,5.87285156 28.3243359,7.83492187 29.1110156,10.1010937 C30.5669531,14.2951172 33.3829688,19.1525391 37.0403906,23.7791016 C40.6978125,28.4055469 44.7744141,32.2666406 48.5190234,34.6511719 C50.5432031,35.9401172 52.3739063,36.7229297 53.9358984,36.99 L53.2439063,37.5371484 Z M56.5836328,34.8969141 C55.3533984,35.8698047 52.6913672,35.2235156 49.4636719,33.1682812 C45.8805469,30.8866406 41.9583984,27.165 38.4196875,22.6887891 C34.8810938,18.2126953 32.1650391,13.5375 30.7719141,9.52453125 C29.5170703,5.90964844 29.5025391,3.17074219 30.7332422,2.19785156 C31.1104688,1.89960937 31.6221094,1.75347656 32.2434375,1.75347656 C33.6488672,1.75347656 35.6151563,2.50125 37.8532031,3.92636719 C41.4362109,6.208125 45.3583594,9.92976562 48.8970703,14.4058594 C56.5140234,24.0408984 59.0613281,32.9380078 56.5836328,34.8969141 Z" id="Shape"></path>
                        </g>
                    </g>
                </g>
            </g>
        </g>
    </g>
</svg>