<?xml version="1.0" encoding="UTF-8"?>
<svg width="60px" height="60px" viewBox="0 0 60 60" version="1.1" xmlns="http://www.w3.org/2000/svg" xmlns:xlink="http://www.w3.org/1999/xlink">
    <!-- Generator: Sketch 48.1 (47250) - http://www.bohemiancoding.com/sketch -->
    <title>007-light-bulb</title>
    <desc>Created with Sketch.</desc>
    <defs></defs>
    <g id="01-.-home" stroke="none" stroke-width="1" fill="none" fill-rule="evenodd" transform="translate(-778.000000, -5638.000000)">
        <g id="Linh-vực-áp-dung-hiueje-qua-nhất" transform="translate(375.000000, 5263.000000)" fill="#474747" fill-rule="nonzero">
            <g id="#1" transform="translate(300.000000, 325.000000)">
                <g id="Testimonial-left-Copy-6">
                    <g transform="translate(36.000000, 50.000000)">
                        <g id="007-light-bulb" transform="translate(67.000000, 0.000000)">
                            <path d="M33,39 C33.5530078,39 33.9999609,38.5519922 33.9999609,38.0000391 L33.9999609,24 L36.9999609,24 C39.7569141,24 42,21.7570313 42,18.9999609 C42,16.2430078 39.7570313,13.9999219 36.9999609,13.9999219 C34.2430078,13.9999219 31.9999219,16.2428906 31.9999219,18.9999609 L31.9999219,21.9999609 L27.9999609,21.9999609 L27.9999609,18.9999609 C27.9999609,16.2430078 25.7569922,13.9999219 22.9999219,13.9999219 C20.2429687,13.9999219 17.9998828,16.2428906 17.9998828,18.9999609 C17.9998828,21.7569141 20.2428516,24 22.9999219,24 L25.9999219,24 L25.9999219,38.0000391 C25.9999219,38.5519922 26.4479297,39 26.9998828,39 C27.5518359,39 27.9998437,38.5519922 27.9998437,38.0000391 L27.9998437,24 L31.9998047,24 L31.9998047,38.0000391 C32.0000391,38.5519922 32.4469922,39 33,39 Z M33.9999609,18.9999609 C33.9999609,17.3459766 35.3459766,15.9999609 36.9999609,15.9999609 C38.6539453,15.9999609 39.9999609,17.3459766 39.9999609,18.9999609 C39.9999609,20.6539453 38.6539453,21.9999609 36.9999609,21.9999609 L33.9999609,21.9999609 L33.9999609,18.9999609 Z M26.0000391,21.9999609 L23.0000391,21.9999609 C21.3460547,21.9999609 20.0000391,20.6539453 20.0000391,18.9999609 C20.0000391,17.3459766 21.3460547,15.9999609 23.0000391,15.9999609 C24.6540234,15.9999609 26.0000391,17.3459766 26.0000391,18.9999609 L26.0000391,21.9999609 Z" id="Shape"></path>
                            <path d="M7.14,2.12695312 L10.9680469,5.34 C11.1560156,5.49796875 11.3840625,5.57402344 11.6110547,5.57402344 C11.8960547,5.57402344 12.18,5.45296875 12.3769922,5.21707031 C12.7319531,4.79402344 12.6769922,4.16308594 12.2539453,3.808125 L8.42601562,0.594960937 C8.00296875,0.2409375 7.37296875,0.296015625 7.01707031,0.718007812 C6.66199219,1.14199219 6.71695312,1.77199219 7.14,2.12695312 Z" id="Shape"></path>
                            <path d="M7.78699219,10.8529687 L3.09,9.14402344 C2.57097656,8.95605469 1.99804687,9.22300781 1.80796875,9.74203125 C1.62,10.2610547 1.88695312,10.8350391 2.40597656,11.0240625 L7.10296875,12.7330078 C7.2159375,12.7740234 7.33101563,12.7940625 7.44492188,12.7940625 C7.85296875,12.7940625 8.236875,12.5410547 8.38488281,12.1351172 C8.57402344,11.6159766 8.30601563,11.0419922 7.78699219,10.8529687 Z" id="Shape"></path>
                            <path d="M48.3860156,5.57402344 C48.6119531,5.57402344 48.84,5.49703125 49.0270312,5.34 L52.8570703,2.12496094 C53.2801172,1.77 53.3360156,1.14 52.9801172,0.716015625 C52.6280859,0.294960937 51.9971484,0.238007812 51.5721094,0.59296875 L47.7420703,3.80800781 C47.3190234,4.16296875 47.2640625,4.79296875 47.6190234,5.21695312 C47.8160156,5.45203125 48.0999609,5.57402344 48.3860156,5.57402344 Z" id="Shape"></path>
                            <path d="M5.99800781,19.0019531 L0.999960937,19.0019531 C0.448007812,19.0019531 0,19.4499609 0,20.0019141 C0,20.5538672 0.448007813,21.001875 0.999960937,21.001875 L5.99800781,21.001875 C6.54996094,21.001875 6.99796875,20.5538672 6.99796875,20.0019141 C6.99796875,19.4499609 6.54996094,19.0019531 5.99800781,19.0019531 Z" id="Shape"></path>
                            <path d="M58.1900391,9.73898437 C58.0020703,9.22101562 57.4270312,8.95195312 56.9090625,9.14203125 L52.2110156,10.8520312 C51.6910547,11.0410547 51.4239844,11.6150391 51.6130078,12.1340625 C51.7610156,12.5401172 52.1439844,12.7920703 52.5529687,12.7920703 C52.6659375,12.7920703 52.7819531,12.7730859 52.8939844,12.7310156 L57.5929687,11.0210156 C58.1119922,10.8319922 58.38,10.2580078 58.1900391,9.73898437 Z" id="Shape"></path>
                            <path d="M30,0 C18.9719531,0 9.99996094,8.97199219 9.99996094,20.0000391 C9.99996094,28.44 13.3099219,34.7360156 20.4189844,39.8139844 C20.4529687,39.8380078 20.5030078,39.8680078 20.5400391,39.8879297 C20.5920703,39.9159375 21.6680859,40.516875 21.9380859,42.2029687 C20.8091016,42.6339844 20.0000391,43.7210156 20.0000391,45 C20.0000391,45.7680469 20.2900781,46.4690625 20.7659766,47.0000391 C20.2899609,47.5310156 20.0000391,48.2320312 20.0000391,49.0000781 C20.0000391,49.768125 20.2900781,50.4690234 20.7659766,51.0001172 C20.2899609,51.5310937 20.0000391,52.2321094 20.0000391,53.0001562 C20.0000391,54.6541406 21.3460547,56.0001562 23.0000391,56.0001562 C23.5519922,56.0001562 24,55.5521484 24,55.0001953 C24,54.4482422 23.5519922,54.0002344 23.0000391,54.0002344 C22.4490234,54.0002344 22.0000781,53.5512891 22.0000781,53.0002734 C22.0000781,52.4492578 22.4490234,52.0003125 23.0000391,52.0003125 L33,52.0003125 C33.5530078,52.0003125 33.9999609,51.5523047 33.9999609,51.0003516 C33.9999609,50.4483984 33.5530078,50.0003906 33,50.0003906 L23.0000391,50.0003906 C22.4490234,50.0003906 22.0000781,49.5514453 22.0000781,49.0004297 C22.0000781,48.4494141 22.4490234,48.0004687 23.0000391,48.0004687 L33,48.0004687 C33.5530078,48.0004687 33.9999609,47.5524609 33.9999609,47.0005078 C33.9999609,46.4485547 33.5530078,46.0005469 33,46.0005469 L23.0000391,46.0005469 C22.4490234,46.0005469 22.0000781,45.5516016 22.0000781,45.0005859 C22.0000781,44.4495703 22.4490234,44.000625 23.0000391,44.000625 L33,44.000625 C33.5530078,44.000625 33.9999609,43.5526172 33.9999609,43.0006641 C33.9999609,42.4487109 33.5530078,42.0007031 33,42.0007031 L23.9320312,42.0007031 C23.5780078,39.4826953 21.9460547,38.3916797 21.5370703,38.1556641 C14.9410547,33.4286719 12.0001172,27.8276953 12.0001172,20.000625 C12.0001172,10.0756641 20.0751562,2.000625 30.0001172,2.000625 C39.9250781,2.000625 48.0001172,10.0756641 48.0001172,20.000625 C48.0001172,27.8275781 45.0590625,33.4286719 38.4631641,38.1556641 C38.0032031,38.420625 36.0001172,39.7657031 36.0001172,43.0006641 C36.0001172,43.5526172 36.4470703,44.000625 37.0000781,44.000625 C37.5520312,44.000625 38.0000391,44.4495703 38.0000391,45.0005859 C38.0000391,45.5516016 37.5520312,46.0005469 37.0000781,46.0005469 C36.4470703,46.0005469 36.0001172,46.4485547 36.0001172,47.0005078 C36.0001172,47.5524609 36.4470703,48.0004687 37.0000781,48.0004687 C37.5520312,48.0004687 38.0000391,48.4494141 38.0000391,49.0004297 C38.0000391,49.5514453 37.5520312,50.0003906 37.0000781,50.0003906 C36.4470703,50.0003906 36.0001172,50.4483984 36.0001172,51.0003516 C36.0001172,51.5523047 36.4470703,52.0003125 37.0000781,52.0003125 C37.5520312,52.0003125 38.0000391,52.4492578 38.0000391,53.0002734 C38.0000391,53.5702734 37.5700781,54.0002344 37.0000781,54.0002344 L27,54.0002344 C26.4480469,54.0002344 26.0000391,54.4482422 26.0000391,55.0001953 L26.0000391,57 C26.0000391,58.6539844 27.3460547,60 29.0000391,60 L31.0000781,60 C32.6540625,60 34.0000781,58.6539844 34.0000781,57 L34.0000781,56.0000391 L37.0000781,56.0000391 C38.683125,56.0000391 40.0000781,54.6820312 40.0000781,53.0000391 C40.0000781,52.2319922 39.7100391,51.5310937 39.2340234,51 C39.7100391,50.4690234 40.0000781,49.7680078 40.0000781,48.9999609 C40.0000781,48.2319141 39.7100391,47.5310156 39.2340234,46.9999219 C39.7100391,46.4689453 40.0000781,45.7679297 40.0000781,44.9998828 C40.0000781,43.7208984 39.1910156,42.6338672 38.0610937,42.2028516 C38.3310937,40.516875 39.4060547,39.916875 39.4470703,39.8939062 C39.4940625,39.8709375 39.5390625,39.8438672 39.5810156,39.8138672 C46.6890234,34.7358984 50.0000391,28.4398828 50.0000391,19.9999219 C50.0000391,8.97199219 41.0280469,0 30,0 Z M32.0000391,57 C32.0000391,57.5510156 31.5520312,57.9999609 31.0000781,57.9999609 L29.0000391,57.9999609 C28.4490234,57.9999609 28.0000781,57.5510156 28.0000781,57 L28.0000781,56.0000391 L32.0000391,56.0000391 L32.0000391,57 Z" id="Shape"></path>
                            <path d="M59.0000391,18.9999609 L54,18.9999609 C53.4469922,18.9999609 53.0000391,19.4479688 53.0000391,19.9999219 C53.0000391,20.551875 53.4469922,20.9998828 54,20.9998828 L59.0000391,20.9998828 C59.5530469,20.9998828 60,20.551875 60,19.9999219 C60,19.4479688 59.5530469,18.9999609 59.0000391,18.9999609 Z" id="Shape"></path>
                        </g>
                    </g>
                </g>
            </g>
        </g>
    </g>
</svg>