<?xml version="1.0" encoding="UTF-8"?>
<svg width="45px" height="60px" viewBox="0 0 45 60" version="1.1" xmlns="http://www.w3.org/2000/svg" xmlns:xlink="http://www.w3.org/1999/xlink">
    <!-- Generator: Sketch 48.1 (47250) - http://www.bohemiancoding.com/sketch -->
    <title>006-smartphone</title>
    <desc>Created with Sketch.</desc>
    <defs></defs>
    <g id="01-.-home" stroke="none" stroke-width="1" fill="none" fill-rule="evenodd" transform="translate(-1075.000000, -5638.000000)">
        <g id="Linh-vực-áp-dung-hiueje-qua-nhất" transform="translate(375.000000, 5263.000000)" fill="#474747" fill-rule="nonzero">
            <g id="#1-copy" transform="translate(600.000000, 325.000000)">
                <g id="#1">
                    <g id="006-smartphone" transform="translate(100.000000, 50.000000)">
                        <path d="M28.2348387,49.353871 C26.3670968,49.353871 24.8477419,50.8732258 24.8477419,52.7409677 C24.8477419,54.6087097 26.3670968,56.1280645 28.2348387,56.1280645 C30.1025806,56.1280645 31.6219355,54.6087097 31.6219355,52.7409677 C31.6219355,50.8732258 30.1016129,49.353871 28.2348387,49.353871 Z M28.2348387,54.1925806 C27.4345161,54.1925806 26.7832258,53.5412903 26.7832258,52.7409677 C26.7832258,51.9406452 27.4345161,51.2893548 28.2348387,51.2893548 C29.0351613,51.2893548 29.6864516,51.9406452 29.6864516,52.7409677 C29.6864516,53.5412903 29.0351613,54.1925806 28.2348387,54.1925806 Z" id="Shape"></path>
                        <path d="M32.5896774,36.7732258 C34.7245161,36.7732258 36.4606452,35.0370968 36.4606452,32.9022581 C36.4606452,30.7674194 34.7245161,29.0312903 32.5896774,29.0312903 C30.4548387,29.0312903 28.7187097,30.7674194 28.7187097,32.9022581 C28.7187097,35.0370968 30.453871,36.7732258 32.5896774,36.7732258 Z M32.5896774,30.9667742 C33.6570968,30.9667742 34.5251613,31.8348387 34.5251613,32.9022581 C34.5251613,33.9696774 33.6570968,34.8377419 32.5896774,34.8377419 C31.5222581,34.8377419 30.6541935,33.9696774 30.6541935,32.9022581 C30.6541935,31.8348387 31.5222581,30.9667742 32.5896774,30.9667742 Z" id="Shape"></path>
                        <path d="M9.36387097,12.5796774 C9.6116129,12.5796774 9.85935484,12.4848387 10.0480645,12.296129 L11.9835484,10.3606452 C12.3619355,9.98225806 12.3619355,9.37064516 11.9835484,8.99225806 C11.6051613,8.61387097 10.9935484,8.61387097 10.6151613,8.99225806 L8.67967742,10.9277419 C8.30129032,11.306129 8.30129032,11.9177419 8.67967742,12.296129 C8.8683871,12.4848387 9.11612903,12.5796774 9.36387097,12.5796774 Z" id="Shape"></path>
                        <path d="M44.2025806,29.7551613 C44.2025806,28.9035484 43.8706452,28.1032258 43.2687097,27.5012903 L42.7296774,26.9622581 C43.6480645,26.1493548 44.2016129,24.9735484 44.2016129,23.7087097 C44.2016129,21.3077419 42.2477419,19.353871 39.8467742,19.353871 C39.6706452,19.353871 39.4964516,19.3712903 39.3241935,19.3925806 C39.3454839,19.2193548 39.3629032,19.0470968 39.3629032,18.87 C39.3629032,16.4690323 37.4090323,14.5151613 35.0080645,14.5151613 C34.8319355,14.5151613 34.6577419,14.5325806 34.4854839,14.553871 C34.5067742,14.3806452 34.5241935,14.2083871 34.5241935,14.0312903 C34.5241935,11.6303226 32.5703226,9.67645161 30.1693548,9.67645161 C29.9932258,9.67645161 29.8190323,9.69387097 29.6467742,9.71516129 C29.6680645,9.54193548 29.6854839,9.36967742 29.6854839,9.19258065 C29.6854839,6.7916129 27.7316129,4.83774194 25.3306452,4.83774194 C24.0648387,4.83774194 22.89,5.39225806 22.0770968,6.30967742 L21.3087097,5.54129032 L17.6670968,1.89967742 C16.4235484,0.656129032 14.4009677,0.656129032 13.1593548,1.89967742 L1.24451613,13.8145161 C0.00290322581,15.0580645 0.00290322581,17.0796774 1.24451613,18.3232258 L4.88612903,21.9648387 L9.63774194,26.7164516 C8.32548387,27.4674194 7.4283871,28.8658065 7.4283871,30.4829032 C7.4283871,31.9954839 8.20548387,33.3290323 9.38032258,34.11 C9.43935484,34.1883871 9.50806452,34.2658065 9.6,34.3441935 L20.0090323,44.7135484 L20.0090323,46.4516129 L18.0735484,46.4516129 L18.0735484,59.0322581 L35.4929032,59.0322581 L43.2348387,59.0322581 L43.2348387,46.4516129 L41.2993548,46.4516129 L41.2993548,43.5193548 C43.1506452,41.9506452 44.2025806,39.6948387 44.2025806,37.2570968 C44.2025806,35.5732258 43.6770968,33.9377419 42.716129,32.5616129 L43.2687097,32.0090323 C43.8706452,31.4070968 44.2025806,30.6067742 44.2025806,29.7551613 Z M42.2670968,23.7087097 C42.2670968,24.4519355 41.9245161,25.14 41.3603226,25.5929032 L37.9625806,22.1951613 C38.4154839,21.6309677 39.1045161,21.2883871 39.8467742,21.2883871 C41.1812903,21.2893548 42.2670968,22.3741935 42.2670968,23.7087097 Z M37.4283871,18.87 C37.4283871,19.6132258 37.0858065,20.3012903 36.5216129,20.7541935 L33.123871,17.3564516 C33.5767742,16.7922581 34.2658065,16.4496774 35.0080645,16.4496774 C36.3425806,16.4506452 37.4283871,17.5354839 37.4283871,18.87 Z M32.5896774,14.0312903 C32.5896774,14.7745161 32.2470968,15.4625806 31.6829032,15.9154839 L28.2851613,12.5177419 C28.7380645,11.9535484 29.4270968,11.6109677 30.1693548,11.6109677 C31.503871,11.6119355 32.5896774,12.6967742 32.5896774,14.0312903 Z M25.3316129,6.77322581 C26.666129,6.77322581 27.7509677,7.85806452 27.7509677,9.19258065 C27.7509677,9.93580645 27.4083871,10.623871 26.8441935,11.0767742 L23.4464516,7.67903226 C23.8993548,7.11580645 24.5883871,6.77322581 25.3316129,6.77322581 Z M2.61290323,16.9558065 C2.12516129,16.4670968 2.12516129,15.6725806 2.61290323,15.183871 L14.5277419,3.26903226 C14.6487097,3.14806452 14.79,3.05709677 14.94,2.99612903 C15.0077419,2.96806452 15.0841935,2.96903226 15.1558065,2.95354839 C15.3280645,2.91677419 15.4983871,2.91677419 15.6706452,2.95354839 C15.7422581,2.96903226 15.8187097,2.96806452 15.8864516,2.99612903 C16.0364516,3.05709677 16.1767742,3.14806452 16.2987097,3.26903226 L18.5719355,5.54225806 L4.88612903,19.2280645 L2.61290323,16.9558065 Z M19.9403226,6.91064516 L21.0803226,8.05064516 L25.9190323,12.8893548 L26.4735484,13.443871 L30.7577419,17.7280645 L31.3122581,18.2825806 L35.5964516,22.5667742 L36.1509677,23.1212903 L40.9896774,27.96 L41.8993548,28.8696774 C42.3880645,29.3583871 42.3880645,30.1519355 41.8993548,30.6406452 L41.4764516,31.0645161 L29.9854839,42.5564516 C29.4987097,43.0441935 28.7022581,43.046129 28.2135484,42.5564516 L20.4958065,34.8377419 L21.4596774,34.8377419 C23.8606452,34.8377419 25.8145161,32.883871 25.8145161,30.4829032 C25.8145161,28.0819355 23.8606452,26.1280645 21.4596774,26.1280645 L11.7851613,26.1280645 L6.25354839,20.5964516 L19.9403226,6.91064516 Z M11.2606452,28.1235484 L11.6622581,28.0780645 C11.7019355,28.0722581 11.7416129,28.0635484 11.7822581,28.0635484 L21.4596774,28.0635484 C22.7941935,28.0635484 23.8790323,29.1483871 23.8790323,30.4829032 C23.8790323,31.8174194 22.7941935,32.9022581 21.4596774,32.9022581 L18.5603226,32.9022581 L15.8235484,32.9022581 L11.7822581,32.9022581 C10.4477419,32.9022581 9.36290323,31.8174194 9.36290323,30.4829032 C9.36387097,29.3283871 10.1777419,28.3635484 11.2606452,28.1235484 Z M20.0090323,57.0958065 L20.0090323,48.386129 L28.1632258,48.386129 C31.1370968,48.386129 33.5574194,50.8064516 33.5574194,53.7803226 L33.5574194,57.0958065 L20.0090323,57.0958065 Z M41.2993548,57.0958065 L35.4929032,57.0958065 L35.4929032,53.7803226 C35.4929032,51.6454839 34.5696774,49.7274194 33.1083871,48.386129 L41.2993548,48.386129 L41.2993548,57.0958065 Z M41.3235484,33.9551613 C41.9370968,34.9432258 42.2670968,36.086129 42.2670968,37.2570968 C42.2670968,39.2458065 41.3496774,41.0758065 39.7490323,42.2806452 L39.363871,42.5709677 L39.363871,46.4506452 L28.1622581,46.4506452 L21.9435484,46.4506452 L21.9435484,43.8203226 L21.6019355,43.5309677 C21.5583871,43.4932258 21.5119355,43.4583871 21.4277419,43.3954839 L12.8370968,34.8367742 L17.7580645,34.8367742 L26.8441935,43.923871 C27.4664516,44.5451613 28.2822581,44.8558065 29.0980645,44.8558065 C29.9148387,44.8558065 30.7316129,44.5451613 31.3529032,43.923871 L41.3235484,33.9551613 Z" id="Shape"></path>
                    </g>
                </g>
            </g>
        </g>
    </g>
</svg>