<?xml version="1.0" encoding="UTF-8"?>
<svg width="60px" height="60px" viewBox="0 0 60 60" version="1.1" xmlns="http://www.w3.org/2000/svg" xmlns:xlink="http://www.w3.org/1999/xlink">
    <!-- Generator: Sketch 48.1 (47250) - http://www.bohemiancoding.com/sketch -->
    <title>149195</title>
    <desc>Created with Sketch.</desc>
    <defs></defs>
    <g id="01-.-home" stroke="none" stroke-width="1" fill="none" fill-rule="evenodd" transform="translate(-1378.000000, -5643.000000)">
        <g id="Linh-vực-áp-dung-hiueje-qua-nhất" transform="translate(375.000000, 5263.000000)" fill="#474747" fill-rule="nonzero">
            <g id="#1-copy-7" transform="translate(900.000000, 325.000000)">
                <g id="149195" transform="translate(103.000000, 55.000000)">
                    <path d="M10.5833898,1.7359322 C10.9810169,1.33830508 10.9810169,0.69559322 10.5833898,0.297966102 C10.1857627,-0.0996610169 9.54305085,-0.0996610169 9.14542373,0.297966102 C-2.35322034,11.7966102 -2.35322034,30.5064407 9.14542373,42.0050847 C9.34474576,42.2033898 9.60508475,42.3030508 9.86440678,42.3030508 C10.1237288,42.3030508 10.3850847,42.2033898 10.5833898,42.0050847 C10.9810169,41.6074576 10.9810169,40.9647458 10.5833898,40.5671186 C-0.122033898,29.860678 -0.122033898,12.4413559 10.5833898,1.7359322 Z" id="Shape"></path>
                    <path d="M50.8525424,0.297966102 C50.4549153,-0.0996610169 49.8122034,-0.0996610169 49.4145763,0.297966102 C49.0169492,0.69559322 49.0169492,1.33830508 49.4145763,1.7359322 C54.5928814,6.91322034 57.4444068,13.8081356 57.4444068,21.1515254 C57.4444068,28.4949153 54.5928814,35.3898305 49.4145763,40.5671186 C49.0169492,40.9647458 49.0169492,41.6074576 49.4145763,42.0050847 C49.6128814,42.2033898 49.8732203,42.3030508 50.1335593,42.3030508 C50.3938983,42.3030508 50.6542373,42.2033898 50.8525424,42.0050847 C56.4152542,36.4433898 59.4772881,29.0379661 59.4772881,21.1515254 C59.4772881,13.2650847 56.4152542,5.85966102 50.8525424,0.297966102 Z" id="Shape"></path>
                    <path d="M14.899322,6.04983051 C15.2969492,5.65220339 15.2969492,5.00949153 14.899322,4.61186441 C14.5016949,4.21423729 13.8589831,4.21423729 13.4613559,4.61186441 C4.34135593,13.7318644 4.34135593,28.5711864 13.4613559,37.6901695 C13.659661,37.8884746 13.92,37.9881356 14.180339,37.9881356 C14.440678,37.9881356 14.7010169,37.8884746 14.899322,37.6901695 C15.2969492,37.2925424 15.2969492,36.6498305 14.899322,36.2522034 C6.57254237,27.9254237 6.57254237,14.3776271 14.899322,6.04983051 Z" id="Shape"></path>
                    <path d="M46.5386441,4.61186441 C46.1410169,4.21423729 45.4983051,4.21423729 45.100678,4.61186441 C44.7030508,5.00949153 44.7030508,5.65220339 45.100678,6.04983051 C53.4274576,14.3766102 53.4274576,27.9254237 45.100678,36.2522034 C44.7030508,36.6498305 44.7030508,37.2925424 45.100678,37.6901695 C45.2989831,37.8884746 45.559322,37.9881356 45.819661,37.9881356 C46.08,37.9881356 46.340339,37.8884746 46.5386441,37.6901695 C55.6586441,28.5711864 55.6586441,13.7318644 46.5386441,4.61186441 Z" id="Shape"></path>
                    <path d="M19.2132203,8.92677966 C18.8155932,8.52915254 18.1728814,8.52915254 17.7752542,8.92677966 C14.5149153,12.1871186 12.7189831,16.5284746 12.7189831,21.1515254 C12.7189831,25.7745763 14.5149153,30.1149153 17.7752542,33.3762712 C17.9735593,33.5745763 18.2338983,33.6742373 18.4942373,33.6742373 C18.7545763,33.6742373 19.0149153,33.5745763 19.2132203,33.3762712 C19.6108475,32.9786441 19.6108475,32.3359322 19.2132203,31.9383051 C13.2650847,25.9901695 13.2650847,16.3138983 19.2132203,10.3657627 C19.6098305,9.96813559 19.6098305,9.32440678 19.2132203,8.92677966 Z" id="Shape"></path>
                    <path d="M42.2247458,8.92677966 C41.8271186,8.52915254 41.1844068,8.52915254 40.7867797,8.92677966 C40.3891525,9.32440678 40.3891525,9.96711864 40.7867797,10.3647458 C46.7349153,16.3128814 46.7349153,25.9891525 40.7867797,31.9372881 C40.3891525,32.3349153 40.3891525,32.9776271 40.7867797,33.3752542 C40.9850847,33.5735593 41.2454237,33.6732203 41.5057627,33.6732203 C41.7661017,33.6732203 42.0264407,33.5735593 42.2247458,33.3752542 C45.4850847,30.1149153 47.2810169,25.7735593 47.2810169,21.1505085 C47.2810169,16.5274576 45.4850847,12.1871186 42.2247458,8.92677966 Z" id="Shape"></path>
                    <path d="M29.9989831,14.2372881 C26.0745763,14.2372881 22.880339,17.4315254 22.880339,21.3559322 C22.880339,24.9345763 25.5386441,27.8969492 28.9820339,28.3932203 L28.9820339,58.9830508 C28.9820339,59.5454237 29.4366102,60 29.9989831,60 C30.5613559,60 31.0159322,59.5454237 31.0159322,58.9830508 L31.0159322,28.3932203 C34.459322,27.8969492 37.1176271,24.9345763 37.1176271,21.3559322 C37.1176271,17.4315254 33.9244068,14.2372881 29.9989831,14.2372881 Z M29.9989831,26.440678 C27.1952542,26.440678 24.9142373,24.159661 24.9142373,21.3559322 C24.9142373,18.5522034 27.1952542,16.2711864 29.9989831,16.2711864 C32.8027119,16.2711864 35.0837288,18.5522034 35.0837288,21.3559322 C35.0837288,24.159661 32.8027119,26.440678 29.9989831,26.440678 Z" id="Shape"></path>
                </g>
            </g>
        </g>
    </g>
</svg>