<svg xmlns="http://www.w3.org/2000/svg" xmlns:xlink="http://www.w3.org/1999/xlink" viewBox="0 0 75.16 75.16"><defs><style>.cls-1{fill:url(#linear-gradient);}.cls-2{fill:#fff;}</style><linearGradient id="linear-gradient" x1="0.32" y1="37.58" x2="74.85" y2="37.58" gradientUnits="userSpaceOnUse"><stop offset="0" stop-color="#ffa169"/><stop offset="0.52" stop-color="#fe6368"/><stop offset="1" stop-color="#d83451"/></linearGradient></defs><title>Asset 12</title><g id="Layer_2" data-name="Layer 2"><g id="Layer_1-2" data-name="Layer 1"><circle class="cls-1" cx="37.58" cy="37.58" r="37.26"/><path class="cls-2" d="M37.58,0A37.58,37.58,0,1,0,75.16,37.58,37.58,37.58,0,0,0,37.58,0ZM19.78,36.27A.76.76,0,0,1,19,37H13.86a.75.75,0,0,1-.76-.78,17.47,17.47,0,0,1,34.91,0,.75.75,0,0,1-.76.78H42.08a.76.76,0,0,1-.75-.73,10.8,10.8,0,0,0-21.55,0Zm25.06,20.1A17.49,17.49,0,0,1,27.39,39.68a.75.75,0,0,1,.76-.78h5.17a.76.76,0,0,1,.75.73,10.8,10.8,0,0,0,21.55,0,.76.76,0,0,1,.75-.73h5.17a.75.75,0,0,1,.76.78A17.49,17.49,0,0,1,44.85,56.37Z"/></g></g></svg>